<?xml version="1.0" standalone="no"?>
<!DOCTYPE svg PUBLIC "-//W3C//DTD SVG 20010904//EN"
 "http://www.w3.org/TR/2001/REC-SVG-20010904/DTD/svg10.dtd">
<svg version="1.0" xmlns="http://www.w3.org/2000/svg"
 width="750.000000pt" height="500.000000pt" viewBox="0 0 750.000000 500.000000"
 preserveAspectRatio="xMidYMid meet">

<g transform="translate(0.000000,500.000000) scale(0.100000,-0.100000)"
fill="#000000" stroke="none">
<path d="M5136 4205 c-18 -9 -26 -10 -26 -3 0 6 -3 8 -6 5 -4 -4 1 -18 10 -31
17 -27 21 -173 6 -231 -5 -18 -6 2 -3 48 5 66 4 77 -9 72 -11 -5 -17 3 -21 30
-6 38 -47 100 -47 71 0 -9 -4 -16 -9 -16 -5 0 -14 -14 -21 -31 -11 -26 -11
-39 3 -83 19 -60 20 -66 9 -66 -4 0 -14 21 -20 47 -10 35 -15 44 -22 33 -5 -8
-7 -25 -5 -37 16 -78 16 -80 -5 -40 -22 40 -45 41 -37 1 2 -13 0 -21 -4 -18
-5 3 -9 -5 -9 -18 0 -17 -3 -19 -9 -9 -11 16 -51 -2 -51 -24 0 -7 -6 -20 -13
-27 -7 -7 -21 -31 -30 -53 -29 -65 -33 -70 -63 -80 -16 -5 -32 -14 -35 -19 -4
-5 -13 -5 -20 0 -9 5 -7 -2 4 -20 10 -15 17 -37 16 -49 -2 -12 3 -33 11 -47 8
-14 20 -41 25 -60 8 -26 16 -35 33 -34 18 0 20 -4 16 -23 -7 -26 12 -56 29
-46 6 4 8 -4 3 -21 -4 -16 -3 -25 2 -22 14 9 35 -21 26 -36 -6 -9 -3 -9 9 1
35 28 26 3 -13 -38 -22 -22 -34 -41 -26 -41 9 0 12 -8 8 -25 -2 -14 -10 -25
-17 -25 -7 0 -15 -14 -19 -31 -3 -17 -10 -28 -15 -25 -5 3 -11 -4 -14 -16 -7
-27 1 -38 13 -18 5 8 12 11 16 7 4 -4 -1 -16 -10 -26 -10 -11 -16 -26 -14 -33
11 -33 -43 -138 -71 -138 -6 0 -11 -6 -11 -12 0 -9 -3 -9 -9 1 -6 9 -6 22 0
33 6 12 6 18 0 18 -6 0 -15 -15 -20 -32 l-10 -33 3 35 c2 19 7 43 11 53 15 36
-12 15 -32 -25 -30 -62 -37 -89 -22 -86 14 3 31 -62 30 -119 0 -26 5 -33 20
-33 10 0 19 -4 19 -10 0 -5 -4 -10 -8 -10 -5 0 5 -28 22 -61 20 -41 31 -79 33
-115 2 -54 18 -84 45 -84 10 0 10 -2 -1 -9 -16 -10 0 -47 32 -73 18 -13 23
-32 28 -102 4 -48 12 -93 19 -101 6 -8 9 -18 6 -24 -3 -5 12 -16 33 -25 22 -8
42 -20 46 -26 5 -7 11 -5 20 7 13 17 14 17 32 0 11 -9 22 -17 24 -17 4 0 4 25
0 63 -1 4 -11 12 -23 17 -20 8 -19 9 10 6 18 -1 32 -6 32 -9 0 -4 0 -23 0 -42
0 -29 -5 -37 -25 -45 -28 -11 -29 -14 -15 -40 7 -13 5 -27 -7 -50 -13 -28 -17
-30 -25 -16 -5 9 -6 30 -3 46 5 22 3 30 -7 30 -13 0 -44 39 -40 52 1 4 -7 6
-18 5 -25 -2 -25 -9 0 -32 20 -18 28 -41 10 -30 -8 5 -51 -33 -86 -77 -6 -8
-28 -28 -48 -45 -28 -22 -41 -44 -51 -83 -8 -28 -15 -54 -17 -56 -2 -2 -4 21
-5 51 -1 36 -7 61 -18 71 -9 9 -24 28 -32 41 -9 14 -34 31 -55 40 -53 21 -48
34 7 18 l45 -14 15 30 c12 23 13 34 4 52 -9 18 -9 20 1 10 10 -9 16 -9 26 2
19 18 18 39 -1 31 -8 -3 -15 -1 -15 4 0 6 7 10 15 10 22 0 18 27 -7 44 -12 9
-17 16 -10 16 7 0 20 17 28 38 9 20 21 45 26 55 10 21 1 84 -15 94 -6 3 -7 1
-3 -5 5 -8 2 -10 -9 -6 -10 4 -13 13 -10 26 5 13 -5 30 -33 58 -39 39 -62 50
-62 29 0 -5 5 -7 10 -4 6 3 10 -4 9 -17 0 -13 -3 -18 -5 -12 -3 6 -15 9 -28 7
-27 -6 -45 14 -22 23 28 11 17 24 -19 24 -22 0 -38 -6 -41 -15 -4 -8 -10 -12
-15 -9 -5 3 -9 0 -9 -5 0 -6 -7 -11 -15 -11 -9 0 -12 -6 -9 -15 7 -18 0 -19
-27 -5 -15 8 -19 7 -19 -5 0 -8 -5 -15 -11 -15 -22 0 -37 -33 -29 -61 5 -17 4
-31 -3 -38 -16 -16 -38 -14 -35 3 2 8 -1 16 -6 18 -16 5 -13 -43 3 -60 14 -14
40 -92 44 -132 1 -9 -5 -14 -15 -14 -18 2 -24 -22 -10 -41 14 -21 37 -11 35
15 l-3 25 10 -24 c6 -14 16 -21 24 -18 10 4 18 -4 25 -23 11 -34 9 -36 -42
-45 -33 -7 -37 -5 -37 14 0 24 -15 28 -24 6 -3 -8 -1 -15 5 -15 6 0 7 -5 4
-10 -4 -6 -10 -8 -15 -5 -5 3 -14 -4 -21 -16 -8 -17 -13 -19 -19 -8 -6 9 -12
10 -22 2 -7 -6 -16 -12 -20 -12 -24 -4 -38 -15 -38 -32 0 -25 22 -24 38 1 7
11 17 20 22 20 6 0 3 -11 -6 -25 -14 -22 -14 -25 -1 -25 11 0 14 -9 12 -34 -2
-23 1 -36 11 -40 10 -4 12 -14 8 -31 -5 -19 -2 -25 10 -25 9 0 21 -11 26 -25
5 -14 17 -28 25 -31 22 -9 18 -38 -7 -49 -28 -12 -34 -75 -8 -75 9 0 20 -3 24
-7 12 -12 80 -3 92 12 9 12 13 11 24 -6 25 -33 90 -22 90 15 0 12 11 37 25 56
14 19 25 40 25 46 0 7 6 17 13 21 8 4 16 16 20 26 3 9 13 17 21 17 12 0 11
-14 -5 -87 -19 -87 -42 -138 -59 -128 -5 3 -13 -3 -19 -13 -7 -14 -23 -19 -58
-21 -26 -1 -55 -3 -63 -3 -8 0 -39 2 -68 5 -47 4 -52 3 -47 -13 4 -14 -2 -19
-30 -24 -32 -6 -50 -26 -24 -26 7 0 22 -11 34 -24 32 -34 66 -54 100 -57 51
-5 129 12 186 40 50 24 55 30 62 69 6 30 15 46 31 53 12 6 42 35 66 65 48 61
65 68 55 24 -6 -27 -4 -30 19 -30 14 0 34 -8 44 -17 10 -10 29 -24 44 -32 24
-12 37 -32 59 -86 4 -11 10 -46 13 -79 5 -62 12 -78 25 -57 5 7 11 12 15 12
21 -3 26 1 26 20 0 16 4 19 18 14 9 -4 26 -7 38 -7 17 1 20 -3 17 -21 -3 -15
3 -26 18 -36 21 -13 22 -12 16 23 -6 39 9 60 18 24 8 -33 2 -87 -9 -80 -5 3
-6 -3 -2 -14 4 -10 8 -21 8 -24 2 -11 -53 -122 -58 -117 -3 3 1 18 9 34 19 38
29 93 17 93 -6 0 -10 12 -11 28 0 19 -7 6 -24 -43 -14 -38 -23 -60 -21 -47 6
35 -1 26 -33 -36 -30 -60 -144 -177 -161 -167 -5 3 -15 -3 -22 -15 -7 -11 -17
-20 -22 -20 -5 0 -20 -9 -32 -21 -31 -29 -58 -31 -66 -5 -6 21 -6 20 -7 -1 -1
-17 -7 -23 -23 -23 -18 0 -20 -2 -8 -10 12 -8 10 -14 -15 -42 -16 -18 -24 -28
-16 -21 7 6 19 9 27 6 7 -3 27 5 43 16 31 23 46 27 36 11 -3 -5 1 -10 10 -10
9 0 13 -4 10 -10 -8 -13 -3 -13 31 0 24 10 26 9 21 -12 -2 -13 -8 -31 -12 -40
-5 -13 -2 -15 16 -11 19 5 21 3 17 -15 -4 -12 -3 -22 1 -22 12 0 71 59 71 71
0 7 3 10 6 7 7 -8 -13 -46 -40 -77 l-21 -23 22 6 c19 6 21 4 18 -16 -3 -12
-15 -31 -27 -40 l-23 -18 23 0 c12 0 22 -5 22 -11 0 -5 5 -7 10 -4 18 11 11
-8 -12 -32 -14 -15 -17 -23 -8 -23 14 0 -42 -41 -75 -54 -32 -13 0 -19 37 -7
18 6 38 11 43 12 6 1 18 5 28 11 18 9 18 8 2 -16 -10 -14 -14 -26 -10 -26 15
0 45 22 45 33 0 7 7 22 16 33 8 10 12 12 8 4 -4 -8 9 0 28 18 19 18 36 31 39
29 2 -2 25 18 51 45 25 26 43 48 40 48 -3 0 8 15 24 32 44 47 70 107 56 129
-9 15 -6 23 16 46 30 31 52 74 52 103 0 13 7 20 19 20 12 0 23 9 27 23 9 29
36 66 49 67 35 2 137 134 184 240 28 61 35 90 37 155 l3 80 -14 -40 c-8 -22
-18 -48 -21 -58 -4 -9 -9 -17 -13 -17 -4 0 -13 -17 -20 -37 -15 -42 -73 -134
-96 -153 -13 -11 -15 -7 -15 24 0 20 -4 36 -9 36 -10 0 -21 -34 -21 -67 0 -16
-10 -27 -32 -37 -36 -14 -48 -12 -30 6 16 16 16 41 0 32 -7 -5 -5 3 5 16 30
43 30 49 -12 90 -25 25 -38 46 -35 55 5 12 10 10 26 -10 24 -30 39 -32 56 -5
7 11 17 20 22 20 13 0 13 -37 0 -45 -16 -10 -11 -25 9 -25 42 0 53 148 14 178
-17 13 -17 13 1 10 37 -6 57 131 22 154 -20 13 -36 9 -29 -8 5 -14 3 -15 -15
-5 -28 15 -99 14 -105 -1 -3 -10 -8 -10 -16 -2 -9 8 -9 17 -1 36 9 20 17 24
37 20 18 -3 24 -1 19 6 -5 8 2 10 25 5 25 -5 30 -3 24 7 -6 10 0 11 27 6 29
-5 34 -4 33 11 -4 38 -19 80 -45 123 -55 94 -69 134 -70 195 -1 114 1 134 9
140 5 3 7 13 4 24 -3 11 2 21 11 24 23 9 19 26 -9 39 -31 14 -32 32 -1 46 18
8 24 20 29 58 3 27 12 53 21 59 19 15 21 25 4 25 -7 0 -13 10 -14 23 0 12 -4
34 -8 49 -7 24 -4 29 18 39 33 16 34 39 1 39 l-26 0 26 27 c30 33 32 47 5 38
-26 -8 -25 3 1 31 l21 23 -23 -6 c-20 -6 -22 -4 -12 9 9 11 10 17 1 26 -8 8
-6 10 8 6 14 -3 28 9 52 44 17 27 32 56 32 66 0 9 4 26 10 36 5 10 14 51 20
91 9 62 8 80 -7 122 l-17 48 -18 -23 c-17 -23 -17 -22 -8 18 9 40 9 56 -5 169
-4 28 -2 69 3 92 6 24 6 40 1 37 -14 -8 -11 4 8 32 13 21 14 27 3 34 -7 4 -9
13 -5 20 5 8 4 11 -2 7 -7 -4 -9 22 -7 78 3 75 2 84 -12 78 -11 -4 -15 -2 -12
8 2 7 -6 29 -19 48 -13 18 -23 40 -23 47 0 7 -8 19 -18 26 -9 7 -26 27 -37 43
-22 35 -41 55 -51 55 -4 0 -13 8 -20 18 -13 16 -13 16 -14 -3 -1 -11 -6 -33
-13 -48 -11 -27 -12 -25 -13 30 -1 59 -16 103 -35 103 -6 0 -8 -12 -5 -27 3
-16 1 -46 -3 -68 -8 -37 -9 -34 -10 30 -1 78 -6 90 -44 110 -21 11 -30 11 -51
0z m104 -724 c0 -15 -23 -26 -28 -13 -2 7 -8 10 -13 6 -5 -3 -9 0 -9 5 0 6 11
11 25 11 14 0 25 -4 25 -9z m249 -45 c-9 -8 -10 -7 -5 7 3 10 7 24 7 30 1 7 3
4 6 -7 3 -10 -1 -23 -8 -30z m-562 -91 c-5 -28 -2 -35 11 -36 10 0 5 -5 -11
-11 -35 -13 -45 -4 -24 20 18 20 23 37 8 28 -5 -4 -7 3 -4 14 9 35 26 22 20
-15z m546 20 c-3 -9 -8 -14 -10 -11 -3 3 -2 9 2 15 9 16 15 13 8 -4z m-513
-107 c0 -6 -6 -5 -15 2 -8 7 -15 14 -15 16 0 2 7 1 15 -2 8 -4 15 -11 15 -16z
m569 -52 c-9 -8 -10 -7 -5 7 3 10 7 24 7 30 1 7 3 4 6 -7 3 -10 -1 -23 -8 -30z
m-574 -287 c10 -15 -1 -22 -24 -14 -12 3 -19 11 -16 16 8 12 32 11 40 -2z
m-269 -39 c8 0 14 -4 14 -10 0 -5 -6 -10 -14 -10 -17 0 -38 25 -29 34 4 4 9 2
11 -3 2 -6 10 -11 18 -11z m554 -388 c0 -15 -2 -15 -10 -2 -13 20 -13 33 0 25
6 -3 10 -14 10 -23z m-710 -17 c-7 -8 -19 -15 -27 -15 -13 0 -13 3 -3 15 7 8
19 15 27 15 13 0 13 -3 3 -15z m550 -40 c7 -9 8 -15 2 -15 -5 0 -12 7 -16 15
-3 8 -4 15 -2 15 2 0 9 -7 16 -15z m-372 -114 c3 -8 -4 -12 -19 -9 -29 4 -36
25 -7 23 12 -1 24 -7 26 -14z m232 -386 c0 -2 -5 -16 -12 -30 -12 -27 -31 -35
-23 -10 3 8 7 22 10 30 4 13 25 22 25 10z m-20 -84 c0 -5 -7 -11 -15 -15 -9
-3 -15 0 -15 9 0 8 7 15 15 15 8 0 15 -4 15 -9z m-366 -96 c9 -54 1 -72 -21
-53 -9 7 -24 12 -35 10 -22 -4 -24 11 -3 28 8 7 15 18 15 24 0 13 20 36 31 36
4 0 10 -20 13 -45z m329 -1 c12 -12 -13 -44 -34 -44 -19 0 -19 1 -2 25 19 26
26 29 36 19z m592 -24 c4 -6 -10 -9 -37 -9 l-43 2 35 7 c19 4 36 8 37 9 1 0 5
-3 8 -9z m15 -200 c0 -5 -2 -10 -4 -10 -3 0 -8 5 -11 10 -3 6 -1 10 4 10 6 0
11 -4 11 -10z m-214 -197 c-5 -35 -13 -63 -17 -63 -13 0 -15 56 -2 86 6 16 13
45 14 64 l1 35 7 -30 c3 -16 2 -58 -3 -92z m20 -265 c-16 -56 -45 -105 -46
-78 0 8 6 27 14 42 8 15 17 42 21 60 9 41 17 56 23 40 2 -6 -3 -35 -12 -64z
m-96 -192 c0 -3 -4 -8 -10 -11 -5 -3 -10 -1 -10 4 0 6 5 11 10 11 6 0 10 -2
10 -4z"/>
<path d="M4679 3685 c9 -25 18 -39 23 -33 3 7 0 24 -8 39 -23 45 -33 42 -15
-6z"/>
<path d="M4609 3688 c-8 -27 -5 -38 12 -38 21 0 22 1 13 24 -5 13 -22 22 -25
14z"/>
<path d="M3970 3660 c-7 -4 -9 -13 -5 -21 6 -9 3 -11 -9 -6 -10 4 -24 -1 -37
-14 -11 -11 -28 -19 -37 -17 -21 4 -52 -26 -52 -50 0 -21 -52 -46 -80 -37 -17
5 -24 0 -38 -34 -9 -22 -25 -42 -34 -45 -10 -2 -18 -11 -18 -20 0 -9 -4 -16
-9 -16 -5 0 -35 -33 -67 -72 -39 -50 -60 -86 -65 -113 -4 -22 -11 -51 -15 -65
l-7 -25 24 20 24 20 -21 -25 c-18 -20 -22 -39 -23 -104 -2 -61 1 -77 11 -74
13 6 23 -155 22 -387 0 -164 -21 -255 -59 -255 -11 0 -12 6 -3 30 11 33 4 65
-12 55 -6 -3 -13 1 -16 9 -11 28 -41 17 -68 -24 -28 -42 -33 -70 -14 -70 6 0
1 -12 -13 -26 l-24 -27 23 6 c13 3 20 1 16 -5 -10 -15 -12 -58 -3 -58 33 0
108 24 113 36 5 14 120 74 141 74 6 0 23 12 39 27 l29 27 -7 -45 c-5 -24 -8
-63 -9 -86 0 -23 -4 -40 -9 -37 -14 9 -38 -63 -34 -99 4 -31 0 -38 -40 -67
-24 -19 -41 -36 -38 -39 3 -3 -12 -14 -33 -23 l-38 -18 60 6 c77 8 101 20 61
30 -30 7 -30 7 22 30 38 17 50 27 46 38 -3 9 -10 16 -15 16 -6 0 -4 10 3 23 7
12 11 28 9 36 -1 8 2 10 10 5 7 -4 10 -3 5 4 -6 10 59 172 74 182 4 3 7 12 7
20 0 25 35 71 49 66 26 -10 42 4 39 35 -3 21 1 32 15 39 19 10 22 41 7 56 -4
4 -2 13 4 21 9 10 7 13 -6 13 -14 0 -16 6 -13 30 3 17 2 30 -2 30 -14 0 -38
68 -33 93 7 37 27 50 72 45 22 -2 37 1 34 6 -3 5 0 7 8 4 8 -3 14 -19 14 -39
0 -26 -5 -34 -20 -37 -11 -2 -28 -11 -37 -19 -22 -20 -9 -48 27 -57 14 -4 23
-11 20 -16 -3 -6 -1 -10 5 -10 6 0 9 -4 5 -9 -3 -6 7 -6 27 0 46 13 50 12 43
-11 -9 -29 0 -25 56 23 28 24 49 51 49 62 1 19 1 19 14 3 7 -10 18 -18 23 -18
17 0 53 46 53 67 0 14 8 22 28 26 20 4 31 16 43 44 30 73 20 180 -16 180 -5 0
-14 10 -20 22 -5 11 -15 21 -22 21 -9 0 -12 16 -12 50 2 71 -30 128 -90 158
-43 22 -45 23 -27 3 22 -24 19 -25 -19 -11 -23 9 -26 8 -21 -5 6 -17 -19 -21
-29 -5 -3 6 -12 10 -18 10 -8 0 -7 -3 2 -9 11 -7 11 -9 0 -14 -8 -3 -3 -6 11
-7 25 -1 25 -1 2 -10 -29 -12 -56 -2 -42 15 8 9 8 15 0 20 -15 9 -2 25 21 25
21 0 26 16 7 23 -8 4 -4 8 9 12 13 4 20 11 17 16 -3 5 1 9 8 9 8 0 14 9 15 21
2 24 30 48 55 49 11 0 15 6 11 20 -4 15 0 20 15 20 19 0 21 5 17 48 -3 38 -10
52 -37 75 -67 58 -97 90 -103 107 -7 22 -27 31 -45 20z m160 -490 c0 -4 11
-11 25 -14 24 -6 36 -26 15 -26 -5 0 -10 5 -10 10 0 6 -6 10 -13 10 -8 0 -22
9 -32 20 -17 18 -17 20 -2 14 9 -3 17 -10 17 -14z m-153 -26 c-1 -1 -14 0 -29
3 -21 4 -24 8 -15 17 8 10 15 9 29 -3 9 -8 16 -16 15 -17z m-57 -69 c-7 -8
-16 -12 -21 -9 -13 8 -1 24 18 24 13 0 13 -3 3 -15z m150 -5 c0 -5 -7 -7 -15
-4 -8 4 -12 10 -9 15 6 11 24 2 24 -11z m-184 -26 c-5 -13 -1 -15 18 -10 14 3
27 2 30 -3 3 -5 -2 -11 -12 -13 -10 -3 -18 -15 -19 -26 -1 -18 4 -22 28 -22
33 0 39 -19 9 -27 -23 -6 -26 -23 -7 -42 10 -10 7 -16 -12 -32 -13 -10 -28
-19 -35 -19 -6 0 -24 -14 -40 -30 -30 -30 -60 -39 -71 -20 -4 6 -1 17 5 25 6
8 9 19 5 25 -4 6 1 20 11 31 9 10 13 19 9 19 -4 0 3 11 16 24 40 39 68 76 59
76 -5 0 -7 7 -4 15 4 8 1 15 -6 15 -10 0 -10 3 0 15 16 20 24 19 16 -1z m224
-20 c0 -8 -5 -12 -10 -9 -6 4 -8 11 -5 16 9 14 15 11 15 -7z m-159 -174 c-22
-19 -41 -26 -41 -15 0 5 51 34 60 34 3 0 -6 -9 -19 -19z m209 -84 c0 -2 -3
-12 -7 -22 -6 -16 -7 -16 -14 2 -7 18 -8 18 -14 -3 -6 -19 -35 -42 -35 -27 0
15 37 53 53 54 9 0 17 -2 17 -4z m-60 -109 c0 -2 -12 -14 -26 -28 l-27 -24 18
28 c14 22 35 36 35 24z"/>
<path d="M4046 3271 c-4 -5 3 -7 14 -4 23 6 26 13 6 13 -8 0 -17 -4 -20 -9z"/>
<path d="M3205 3241 c-3 -6 3 -15 14 -20 26 -14 31 -14 31 3 0 8 6 17 13 19 6
3 -2 6 -20 6 -17 1 -34 -3 -38 -8z"/>
<path d="M3138 3228 c-26 -9 -39 -28 -19 -28 10 0 9 -19 -2 -37 -12 -18 8 -16
23 2 7 9 19 14 26 11 7 -3 18 2 24 10 7 8 8 14 3 14 -6 0 -14 8 -19 19 -7 15
-14 17 -36 9z"/>
<path d="M3294 3218 c-81 -46 -79 -43 -79 -96 0 -41 -3 -48 -13 -39 -8 6 -12
24 -10 44 2 18 0 33 -4 33 -4 0 -9 -10 -9 -22 -1 -15 -3 -18 -6 -7 -3 14 -8
15 -28 5 -14 -6 -25 -18 -25 -25 0 -12 3 -12 12 -3 18 18 29 15 19 -5 -39 -78
-43 -118 -15 -160 10 -15 17 -34 16 -40 -2 -7 3 -10 11 -7 22 8 43 -19 66 -83
12 -32 26 -66 31 -75 6 -10 10 -23 10 -28 0 -29 124 -197 134 -182 2 4 8 37
12 72 3 36 11 71 16 77 6 7 8 20 4 29 -3 8 0 27 8 42 20 39 30 126 17 150 -6
11 -11 50 -12 86 -1 36 -5 66 -9 66 -4 0 -6 20 -4 45 2 24 -1 47 -6 50 -6 4
-6 15 0 30 7 19 6 25 -5 25 -9 0 -12 6 -8 16 5 14 2 16 -21 10 -18 -4 -25 -3
-21 4 11 18 -39 11 -81 -12z m-15 -202 c7 -8 11 -23 8 -33 -3 -13 -10 -5 -24
27 l-20 45 -23 -37 c-25 -42 -35 -50 -20 -15 6 12 13 30 16 40 4 9 10 17 15
17 5 0 9 17 9 38 0 63 15 58 21 -7 3 -33 11 -67 18 -75z m-6 -76 c-3 -12 -8
-19 -11 -16 -5 6 5 36 12 36 2 0 2 -9 -1 -20z"/>
<path d="M4130 3236 c0 -2 7 -6 15 -10 8 -3 15 -1 15 4 0 6 -7 10 -15 10 -8 0
-15 -2 -15 -4z"/>
<path d="M4669 3131 c-13 -11 -21 -22 -17 -26 10 -10 48 14 48 30 0 19 -3 19
-31 -4z"/>
<path d="M105 3113 c-16 -2 -47 -8 -68 -15 l-37 -11 0 -233 0 -233 58 1 c31 0
77 -7 101 -16 34 -12 67 -15 149 -10 58 3 112 10 120 16 17 15 104 11 114 -5
6 -9 10 -9 17 2 7 12 11 12 23 0 11 -10 13 -24 7 -56 -5 -24 -6 -51 -3 -60 4
-12 3 -14 -3 -6 -12 16 -103 -6 -111 -26 -3 -9 -9 -19 -14 -22 -12 -8 26 -49
47 -49 10 0 35 5 56 12 32 9 42 9 56 -4 14 -12 43 -15 131 -13 62 0 116 5 121
11 18 18 16 49 -4 66 -19 15 -19 17 -2 35 9 11 17 28 17 39 0 10 16 30 35 44
19 14 35 30 35 35 0 6 9 16 20 23 11 7 20 19 20 27 0 8 7 15 16 15 9 0 29 11
46 25 16 14 39 25 51 25 12 0 33 9 47 20 14 11 37 20 51 20 40 0 88 20 99 40
5 10 7 33 4 52 -7 34 -51 108 -65 108 -4 0 -27 25 -51 55 l-43 55 -96 0 -97 0
-32 -37 c-17 -21 -39 -47 -49 -58 -10 -11 -25 -34 -34 -51 -9 -17 -22 -31 -29
-32 -90 -12 -123 -33 -130 -82 -3 -22 -9 -26 -49 -30 -45 -5 -75 -21 -92 -47
-10 -15 -43 -17 -52 -3 -8 13 -51 13 -75 0 -13 -7 -21 -6 -30 5 -10 12 -9 15
7 15 16 0 19 5 16 25 -3 13 -12 30 -19 36 -11 9 -11 15 -3 25 6 7 8 26 4 41
-6 28 -47 83 -62 83 -12 0 -98 92 -106 113 -6 17 -48 38 -70 36 -7 -1 -25 -4
-42 -6z"/>
<path d="M5511 2724 c-19 -19 -38 -34 -43 -34 -14 0 1 -59 20 -81 8 -10 19
-16 24 -13 4 3 8 1 8 -5 0 -5 -9 -13 -21 -16 -11 -4 -26 -21 -33 -38 -16 -42
-15 -123 2 -120 6 2 12 -4 12 -12 0 -30 107 -8 128 26 12 19 11 25 -8 51 -27
37 -37 126 -14 135 16 6 17 58 2 79 -5 7 -7 18 -6 25 2 7 -3 13 -10 14 -7 0
-16 5 -20 12 -5 8 -18 1 -41 -23z"/>
<path d="M7440 2671 c-8 -4 -36 -18 -62 -31 -31 -15 -48 -29 -48 -41 0 -25 18
-34 71 -35 25 -1 55 -6 66 -13 12 -6 24 -11 27 -11 3 0 6 32 6 70 0 66 -1 70
-22 69 -13 0 -30 -4 -38 -8z"/>
<path d="M6491 2641 c-12 -8 -12 -12 -2 -25 8 -9 20 -16 28 -16 19 0 43 -25
43 -45 0 -9 -6 -15 -12 -13 -24 5 -78 -26 -78 -45 0 -20 7 -23 68 -30 34 -4
48 -1 63 14 10 10 24 19 30 19 6 0 9 10 7 23 -2 15 -11 23 -28 25 -35 5 -42
15 -31 44 7 20 5 28 -10 41 -21 19 -56 22 -78 8z"/>
<path d="M2818 2313 c6 -2 18 -2 25 0 6 3 1 5 -13 5 -14 0 -19 -2 -12 -5z"/>
<path d="M2773 2299 c-6 -6 -26 -10 -44 -10 -58 -1 -89 -18 -89 -49 0 -16 3
-30 8 -33 4 -2 2 -3 -4 -1 -6 1 -15 -1 -20 -6 -15 -14 -83 -29 -90 -19 -12 21
-87 4 -107 -25 -4 -6 -5 -21 -2 -33 4 -15 0 -23 -14 -28 -14 -4 -50 -69 -52
-94 -1 -10 118 -40 141 -36 14 3 53 2 88 -3 34 -5 65 -5 68 0 3 4 16 8 30 8
14 0 23 4 19 9 -3 5 5 11 17 13 22 3 22 4 -7 20 l-30 17 50 -5 c39 -3 45 -2
30 6 -15 8 -7 9 37 6 53 -4 56 -3 52 17 -2 11 1 24 7 28 6 3 -4 15 -23 27 -36
24 -28 28 21 11 38 -13 81 -4 81 17 0 8 10 19 23 24 12 5 17 9 11 9 -5 1 -19
8 -30 17 -19 15 -18 15 4 11 12 -3 22 -1 22 3 0 15 -43 40 -67 40 -24 0 -32
25 -10 33 6 2 -3 4 -21 4 -19 0 -38 6 -42 14 -5 7 -12 10 -16 6 -4 -4 -12 -2
-19 3 -7 6 -15 6 -22 -1z"/>
<path d="M3740 2300 c0 -5 5 -10 10 -10 6 0 10 5 10 10 0 6 -4 10 -10 10 -5 0
-10 -4 -10 -10z"/>
<path d="M2516 2274 c-9 -22 -8 -24 9 -24 8 0 15 9 15 20 0 24 -15 27 -24 4z"/>
<path d="M3569 2259 c-23 -19 -23 -20 -2 -10 12 6 25 16 28 21 10 16 -1 12
-26 -11z"/>
<path d="M3480 2235 c0 -8 -9 -20 -20 -27 -26 -16 -26 -38 0 -38 26 0 71 21
65 31 -3 4 -1 10 5 14 18 11 10 23 -12 18 -19 -4 -20 -3 -8 6 12 9 11 11 -7
11 -14 0 -23 -6 -23 -15z"/>
<path d="M3762 2238 c-5 -7 -24 -42 -42 -78 l-32 -65 37 40 c32 34 65 90 65
110 0 10 -18 5 -28 -7z"/>
<path d="M2987 2224 c-3 -5 1 -15 9 -22 16 -14 18 -5 5 17 -5 7 -11 9 -14 5z"/>
<path d="M3597 2162 c-21 -23 -21 -29 -2 -29 8 0 17 9 21 19 8 27 0 31 -19 10z"/>
<path d="M4318 2124 c-4 -3 -4 -12 -1 -20 3 -8 -2 -17 -11 -20 -23 -9 -20 -23
4 -17 22 6 37 40 23 54 -5 5 -12 7 -15 3z"/>
<path d="M4383 2083 c-20 -8 -15 -23 7 -23 11 0 20 7 20 15 0 15 -6 17 -27 8z"/>
<path d="M3945 2061 c-3 -5 -1 -12 5 -16 6 -4 8 -11 5 -16 -4 -5 1 -9 9 -9 8
0 18 5 21 10 3 6 -1 10 -10 10 -11 0 -15 5 -11 15 6 16 -9 21 -19 6z"/>
<path d="M3981 2007 c-7 -9 -10 -25 -6 -34 6 -17 7 -17 16 0 6 10 9 25 7 34
-3 15 -4 15 -17 0z"/>
<path d="M4033 1962 c0 -12 5 -22 9 -22 11 0 10 12 -2 30 -7 12 -9 10 -7 -8z"/>
<path d="M4075 1950 c-20 -40 -19 -50 15 -90 17 -19 30 -39 30 -45 0 -5 9 -21
19 -34 l19 -25 -3 47 c-2 26 -7 62 -11 79 -4 18 -8 44 -8 57 -1 15 -9 27 -23
32 -19 7 -25 3 -38 -21z"/>
<path d="M6375 1770 c-3 -5 -36 -9 -73 -8 -76 2 -112 -7 -112 -28 0 -12 -14
-14 -73 -11 -41 2 -79 7 -86 11 -7 5 -25 2 -42 -4 -16 -7 -39 -10 -51 -7 -12
4 -29 1 -37 -6 -11 -9 -15 -9 -18 1 -5 13 -35 17 -46 6 -15 -15 19 -46 87 -79
86 -41 109 -62 84 -76 -24 -14 -10 -46 25 -59 17 -6 42 -20 55 -33 13 -12 40
-27 60 -32 34 -10 37 -14 38 -50 2 -44 22 -134 34 -150 13 -18 21 -65 10 -65
-5 0 -10 7 -10 15 0 8 -4 15 -10 15 -5 0 -10 -11 -10 -25 0 -26 -42 -74 -49
-54 -2 6 1 21 7 32 44 96 47 117 12 117 -10 0 -20 6 -23 13 -2 6 -8 8 -13 4
-5 -5 -2 -14 7 -20 19 -14 14 -32 -18 -66 -23 -26 -23 -26 -23 -3 0 12 -4 22
-10 22 -5 0 -10 -5 -10 -12 0 -9 -3 -9 -12 0 -10 10 -10 15 2 23 11 7 8 8 -12
3 -26 -6 -27 -4 -30 42 -2 27 -8 49 -15 52 -18 5 -16 -28 3 -74 15 -35 14 -66
-1 -107 -6 -13 -3 -16 9 -11 20 8 22 -19 2 -35 -7 -6 -17 -41 -21 -77 -4 -36
-10 -78 -15 -94 -6 -20 -5 -30 3 -34 8 -3 7 -8 -3 -15 -13 -10 -13 -13 3 -25
12 -9 14 -16 8 -21 -6 -3 -11 -15 -11 -26 0 -10 -7 -19 -15 -19 -8 0 -15 -9
-15 -20 0 -11 4 -20 8 -20 13 0 31 -59 20 -66 -5 -3 -8 -15 -5 -25 3 -10 1
-22 -5 -25 -14 -9 21 -44 67 -65 22 -11 31 -17 20 -14 -11 2 -33 7 -50 11 -27
7 -29 6 -16 -9 7 -10 10 -17 6 -17 -4 0 -2 -7 5 -15 16 -19 3 -37 -21 -30 -23
8 -24 -9 -4 -45 8 -14 14 -37 15 -51 0 -14 3 -29 8 -33 4 -4 7 -48 7 -97 0
-49 -3 -89 -7 -89 -5 0 -8 -43 -8 -95 l0 -95 181 0 c176 0 181 1 176 20 -3 11
-1 20 4 20 5 0 9 5 9 10 0 6 -5 9 -11 8 -6 -2 -13 2 -16 9 -3 7 4 11 17 10 14
-1 30 -15 43 -39 l22 -38 390 0 390 0 18 73 c22 95 22 107 -8 152 -23 33 -24
38 -10 49 9 6 21 23 28 36 8 15 21 25 35 25 26 1 42 20 42 53 0 29 23 28 55
-4 63 -63 90 -172 59 -239 -10 -22 -23 -58 -29 -80 -8 -29 -17 -41 -33 -43
-12 -2 -22 -8 -22 -13 0 -5 36 -9 80 -9 l80 0 0 108 c0 95 -4 116 -30 187 -17
44 -37 92 -46 107 -11 21 -15 66 -15 208 1 100 3 186 7 191 9 16 -6 69 -21 69
-14 0 -35 -50 -35 -82 0 -10 6 -21 14 -24 12 -5 12 -9 0 -32 -8 -15 -14 -32
-14 -37 0 -6 -14 -21 -30 -35 -25 -21 -29 -30 -24 -56 9 -46 -39 -72 -97 -52
-33 11 -36 20 -14 38 20 16 19 49 -1 57 -21 8 -11 47 22 86 13 16 24 32 25 35
2 23 9 140 13 214 2 59 0 88 -8 91 -6 2 -11 24 -11 48 0 36 -4 46 -22 54 -13
5 -23 18 -23 27 0 10 -6 18 -14 18 -7 0 -16 14 -20 32 -8 41 -23 58 -52 58
-14 0 -35 13 -51 31 -16 18 -47 44 -70 59 -23 15 -39 30 -36 34 11 11 -19 26
-53 26 -18 0 -39 9 -51 23 -56 59 -81 77 -109 77 -16 0 -44 9 -62 20 -18 11
-37 20 -43 20 -5 0 -31 20 -57 45 -26 25 -50 45 -55 45 -4 0 -25 17 -45 38
-39 39 -86 60 -97 42z m185 -241 c0 -5 -4 -9 -10 -9 -5 0 -10 7 -10 16 0 8 5
12 10 9 6 -3 10 -10 10 -16z m-240 -465 c-6 -14 -7 -36 -4 -49 4 -17 0 -26
-14 -34 -12 -6 -23 -11 -26 -11 -9 0 -1 37 11 52 6 7 14 25 18 41 4 15 11 27
16 27 5 0 4 -12 -1 -26z m-209 -497 c-6 -8 -8 -16 -5 -19 3 -3 1 -8 -4 -12
-13 -8 -11 28 2 36 17 12 20 9 7 -5z m329 -42 c0 -8 -4 -15 -10 -15 -5 0 -10
7 -10 15 0 8 5 15 10 15 6 0 10 -7 10 -15z m-365 -35 c-3 -5 -10 -10 -16 -10
-5 0 -9 5 -9 10 0 6 7 10 16 10 8 0 12 -4 9 -10z m410 -10 c-8 -25 10 -27 24
-2 20 33 12 -39 -8 -82 -11 -23 -26 -57 -34 -77 -8 -20 -27 -45 -42 -55 -15
-11 -41 -31 -57 -45 l-31 -26 23 -21 c13 -12 19 -22 12 -22 -6 0 -13 4 -16 9
-3 5 -15 7 -26 4 -13 -4 -27 3 -40 18 -26 32 -25 44 8 65 37 24 51 44 52 73 0
14 16 38 41 61 31 28 40 42 35 58 -5 14 1 26 20 41 34 26 47 27 39 1z m20
-300 c-16 -16 -38 -30 -49 -30 -21 1 -21 1 -1 12 11 6 28 19 38 29 10 11 23
19 29 19 7 0 -1 -13 -17 -30z"/>
<path d="M470 1751 c-8 -5 -33 -15 -56 -21 -36 -11 -45 -10 -68 5 -39 26 -109
16 -147 -21 -16 -15 -37 -29 -46 -30 -10 -2 -48 -11 -85 -21 l-68 -18 0 -176
c0 -187 0 -189 48 -189 9 0 28 -9 42 -20 14 -11 35 -20 48 -20 12 0 22 -4 22
-9 0 -16 123 -49 165 -44 40 5 96 39 127 79 11 13 34 24 61 28 41 6 46 11 68
56 15 31 31 49 42 50 9 0 17 4 17 9 0 5 9 13 20 16 25 8 26 25 3 32 -25 7 -63
90 -63 135 0 20 -4 40 -10 43 -5 3 -10 25 -10 48 0 23 -4 47 -8 54 -10 16 -83
25 -102 14z"/>
<path d="M6956 1694 c-9 -23 -7 -36 3 -30 12 8 21 46 11 46 -4 0 -11 -7 -14
-16z"/>
<path d="M7003 1673 c3 -15 1 -38 -4 -50 -7 -18 -5 -25 7 -30 12 -4 14 -14 9
-43 -5 -27 -2 -40 9 -50 9 -7 16 -18 16 -24 0 -7 11 -23 25 -36 l24 -23 -8 31
c-7 23 -6 34 5 43 10 8 13 21 9 36 -7 28 5 30 31 2 10 -11 28 -30 40 -42 28
-29 74 -128 74 -159 0 -23 39 -68 59 -68 5 0 16 -11 25 -25 9 -14 21 -25 27
-25 14 0 82 -32 89 -41 3 -4 17 -5 33 -2 l27 5 0 259 0 259 -26 6 c-56 14
-134 -12 -134 -45 0 -6 -6 -11 -13 -11 -7 0 -17 -10 -22 -21 -14 -30 -30 -20
-28 16 2 44 -38 72 -82 57 -39 -15 -162 -16 -170 -2 -13 21 -27 9 -22 -17z"/>
<path d="M1062 1615 c-6 -14 -9 -32 -6 -40 4 -10 0 -15 -11 -15 -10 0 -23 -7
-29 -16 -8 -10 -32 -16 -74 -18 -70 -4 -121 -29 -102 -51 6 -7 11 -34 12 -59
1 -48 10 -58 27 -28 9 16 11 16 24 -2 13 -17 14 -17 31 8 9 15 21 24 26 21 5
-3 17 6 26 20 20 30 49 33 64 5 11 -21 64 -29 74 -11 3 5 22 12 41 15 19 4 36
11 36 16 1 6 2 15 3 20 0 6 6 14 13 18 6 4 15 20 19 36 5 22 2 33 -19 52 -14
13 -37 26 -51 30 -15 3 -29 10 -32 15 -3 5 -18 9 -33 9 -20 0 -31 -7 -39 -25z"/>
<path d="M2607 1634 c-4 -5 -29 -9 -55 -9 -46 -1 -122 -36 -122 -56 0 -5 -6
-9 -13 -9 -8 0 -24 -11 -36 -24 -12 -13 -36 -27 -54 -30 -53 -11 -67 -32 -67
-101 l0 -61 44 -23 c48 -24 292 -65 336 -57 71 13 155 38 162 49 10 17 -23 27
-41 13 -11 -8 -15 -8 -18 1 -3 9 -12 9 -30 2 -14 -5 -28 -7 -31 -4 -3 3 1 5 9
6 8 1 3 4 -11 8 l-25 8 27 13 c15 7 25 16 23 21 -3 4 8 10 25 14 16 4 30 11
30 16 0 5 10 9 23 9 12 0 29 5 37 11 11 7 4 8 -25 4 -33 -4 -36 -4 -16 5 19 8
21 13 11 25 -8 10 -9 15 -2 15 6 0 16 9 21 19 9 17 8 18 -12 14 l-22 -6 24 26
c19 21 21 29 13 40 -7 8 -9 17 -6 20 4 3 -7 9 -22 12 -16 4 -39 10 -51 15 -34
14 -117 23 -126 14z"/>
<path d="M2834 1488 l-19 -21 28 18 c28 18 33 25 19 25 -5 0 -17 -10 -28 -22z"/>
<path d="M2885 1490 c-3 -5 -2 -10 4 -10 5 0 13 5 16 10 3 6 2 10 -4 10 -5 0
-13 -4 -16 -10z"/>
<path d="M5856 1421 c-4 -24 -5 -46 -2 -48 7 -7 19 63 14 79 -3 7 -8 -7 -12
-31z"/>
<path d="M4932 1425 c0 -16 2 -22 5 -12 2 9 2 23 0 30 -3 6 -5 -1 -5 -18z"/>
<path d="M5751 1330 c-14 -55 -22 -102 -19 -105 10 -10 39 65 49 127 16 100
-4 85 -30 -22z"/>
<path d="M6085 1381 c-3 -12 -11 -21 -17 -21 -24 0 1 -23 28 -25 16 -2 39 -6
52 -10 21 -7 23 -5 20 21 -2 22 -9 30 -28 32 -14 2 -30 8 -37 13 -8 7 -13 4
-18 -10z"/>
<path d="M2820 1310 c0 -5 7 -7 15 -4 8 4 15 8 15 10 0 2 -7 4 -15 4 -8 0 -15
-4 -15 -10z"/>
<path d="M2868 1313 c7 -3 16 -2 19 1 4 3 -2 6 -13 5 -11 0 -14 -3 -6 -6z"/>
<path d="M4932 1300 c0 -14 2 -19 5 -12 2 6 2 18 0 25 -3 6 -5 1 -5 -13z"/>
<path d="M6100 1265 c-7 -9 -11 -18 -8 -20 7 -8 38 5 38 15 0 17 -18 19 -30 5z"/>
<path d="M4430 1250 c-6 -11 -8 -20 -6 -20 3 0 10 9 16 20 6 11 8 20 6 20 -3
0 -10 -9 -16 -20z"/>
<path d="M5028 1178 c-13 -18 -35 -51 -48 -73 -23 -39 -23 -39 -2 -21 26 23
87 115 80 122 -3 2 -16 -10 -30 -28z"/>
<path d="M7317 1078 c-8 -13 -18 -56 -22 -96 -3 -40 -13 -92 -21 -114 -17 -49
-17 -48 -1 -48 7 0 21 15 32 33 15 25 20 28 23 15 5 -23 15 -23 37 2 34 37 16
200 -24 225 -6 3 -17 -5 -24 -17z"/>
<path d="M5515 1010 c3 -5 8 -10 11 -10 2 0 4 5 4 10 0 6 -5 10 -11 10 -5 0
-7 -4 -4 -10z"/>
<path d="M4805 970 c-3 -5 -1 -10 4 -10 6 0 11 5 11 10 0 6 -2 10 -4 10 -3 0
-8 -4 -11 -10z"/>
<path d="M4295 952 c-22 -5 -55 -31 -55 -44 0 -13 17 -9 34 8 9 8 16 13 16 9
0 -4 7 1 16 10 19 19 16 23 -11 17z"/>
<path d="M4090 910 c-23 -5 -23 -7 -6 -13 11 -4 24 -3 30 3 14 14 5 18 -24 10z"/>
<path d="M4392 901 c-7 -4 -23 -6 -35 -4 -14 3 -30 -4 -44 -19 l-22 -23 85 -3
c69 -3 84 -1 84 11 0 9 3 22 6 31 5 13 -1 16 -27 16 -19 0 -40 -4 -47 -9z"/>
<path d="M4540 895 c-24 -13 -24 -14 -4 -15 12 0 27 7 34 15 16 19 3 19 -30 0z"/>
<path d="M4140 890 c-13 -8 -13 -10 2 -10 9 0 20 5 23 10 8 13 -5 13 -25 0z"/>
<path d="M4478 873 c6 -2 18 -2 25 0 6 3 1 5 -13 5 -14 0 -19 -2 -12 -5z"/>
<path d="M4505 858 c-16 -6 -37 -13 -45 -16 -10 -3 -6 -7 13 -14 15 -5 27 -17
27 -26 0 -12 6 -10 26 9 14 13 30 32 35 42 11 20 -7 22 -56 5z"/>
<path d="M5412 760 c-18 -39 -28 -91 -46 -250 -2 -19 -1 -26 1 -15 3 11 9 24
14 30 5 5 9 17 9 27 0 10 12 66 26 123 29 118 27 152 -4 85z"/>
<path d="M5216 689 c-27 -27 -46 -52 -44 -55 9 -8 101 81 97 94 -2 6 -26 -11
-53 -39z"/>
<path d="M5351 609 c-7 -41 -15 -80 -17 -87 -2 -7 0 -11 5 -7 11 6 35 137 29
155 -2 7 -10 -20 -17 -61z"/>
<path d="M5327 664 c-4 -4 -7 -14 -7 -23 0 -11 3 -12 11 -4 6 6 10 16 7 23 -2
6 -7 8 -11 4z"/>
<path d="M5256 615 c-3 -8 -12 -15 -21 -15 -8 0 -15 -4 -15 -9 0 -5 -12 -23
-27 -38 -62 -65 -103 -127 -103 -153 0 -15 -7 -33 -15 -40 -20 -16 -19 -30 2
-30 9 0 13 -3 10 -7 -4 -3 -2 -12 4 -20 8 -9 8 -13 1 -13 -11 0 -45 -60 -38
-67 2 -3 13 4 24 14 41 39 61 52 67 43 4 -6 2 -10 -3 -10 -5 0 -14 -17 -20
-37 l-11 -38 37 42 c20 23 42 50 49 60 12 17 12 17 6 -2 -14 -43 26 6 43 53
10 26 23 56 30 67 7 11 15 36 19 55 4 19 12 40 17 47 5 7 8 18 5 25 -4 8 -6 7
-6 -4 -1 -10 -5 -18 -10 -18 -5 0 -16 -19 -24 -42 -9 -24 -16 -36 -16 -28 -1
9 8 33 19 55 22 43 24 55 11 55 -4 0 -26 -35 -47 -77 -35 -70 -82 -129 -93
-117 -7 6 51 124 61 124 4 0 8 8 8 17 0 9 3 13 7 10 6 -7 24 22 48 81 12 27
12 32 1 32 -8 0 -16 -7 -20 -15z m-16 -55 c0 -5 -5 -10 -11 -10 -5 0 -7 5 -4
10 3 6 8 10 11 10 2 0 4 -4 4 -10z m-5 -173 c-4 -14 -12 -28 -19 -30 -9 -4 -8
5 3 28 18 38 25 39 16 2z m-39 -54 c-4 -5 -9 -6 -11 -3 -1 3 -12 -4 -24 -14
-22 -20 -25 -18 -15 8 3 9 18 16 32 16 14 0 22 -3 18 -7z m-23 -38 c-3 -9 -8
-14 -10 -11 -3 3 -2 9 2 15 9 16 15 13 8 -4z"/>
<path d="M5114 597 c-6 -7 -22 -21 -37 -32 -15 -11 -29 -26 -32 -34 -6 -14 9
-4 53 37 7 6 17 12 22 12 4 0 10 7 14 15 6 18 -5 19 -20 2z"/>
<path d="M5163 574 c-13 -14 -23 -31 -23 -37 0 -6 -7 -19 -17 -29 -9 -10 -14
-21 -11 -23 3 -3 22 19 42 49 20 30 42 57 48 59 9 4 8 6 -2 6 -8 0 -25 -11
-37 -25z"/>
<path d="M5312 580 c0 -14 2 -19 5 -12 2 6 2 18 0 25 -3 6 -5 1 -5 -13z"/>
<path d="M5010 465 c-7 -8 -8 -15 -2 -15 5 0 15 7 22 15 7 8 8 15 2 15 -5 0
-15 -7 -22 -15z"/>
<path d="M5065 190 c-16 -17 -16 -20 -3 -15 9 4 19 13 22 21 7 19 2 18 -19 -6z"/>
<path d="M4310 9 c0 -5 5 -7 10 -4 6 3 10 8 10 11 0 2 -4 4 -10 4 -5 0 -10 -5
-10 -11z"/>
</g>
</svg>
