<?xml version="1.0" standalone="no"?>
<!DOCTYPE svg PUBLIC "-//W3C//DTD SVG 20010904//EN"
 "http://www.w3.org/TR/2001/REC-SVG-20010904/DTD/svg10.dtd">
<svg version="1.0" xmlns="http://www.w3.org/2000/svg"
 width="750.000000pt" height="500.000000pt" viewBox="0 0 750.000000 500.000000"
 preserveAspectRatio="xMidYMid meet">

<g transform="translate(0.000000,500.000000) scale(0.100000,-0.100000)"
fill="#000000" stroke="none">
<path d="M0 2500 l0 -2500 2941 0 c2339 0 2945 3 2957 13 12 9 16 9 19 0 8
-22 31 -14 37 12 6 24 42 48 59 38 4 -2 7 -13 7 -25 0 -17 3 -18 14 -9 12 10
13 8 9 -8 l-5 -21 731 0 731 0 0 2500 0 2500 -3750 0 -3750 0 0 -2500z m5499
1500 c21 -14 47 -20 102 -21 92 -2 109 -6 109 -25 0 -9 20 -44 45 -78 25 -35
45 -69 45 -75 0 -6 5 -11 10 -11 6 0 10 -7 10 -15 0 -8 -9 -15 -20 -15 -11 0
-20 -6 -21 -12 0 -7 -4 -3 -9 9 -5 12 -18 27 -29 33 -26 13 -27 6 -3 -19 34
-39 41 -49 34 -56 -4 -4 -7 -27 -7 -51 0 -35 3 -44 18 -44 10 0 17 -7 17 -17
0 -25 -16 -47 -28 -39 -6 3 -13 2 -16 -3 -3 -5 1 -11 9 -15 22 -8 19 -46 -4
-46 -14 0 -19 -9 -23 -43 -9 -77 0 -102 43 -126 21 -12 39 -29 39 -37 0 -9 -3
-14 -7 -12 -49 25 -85 37 -97 32 -25 -9 -8 -25 20 -18 28 7 31 -3 7 -22 -17
-13 -17 -13 0 -14 9 0 17 -7 17 -15 0 -8 11 -22 25 -31 l26 -17 -21 -19 c-11
-10 -20 -24 -20 -31 0 -7 -10 -1 -21 13 l-21 25 7 -30 c4 -20 2 -25 -4 -16 -5
7 -13 11 -19 7 -6 -3 -12 -1 -14 5 -2 5 -11 7 -21 3 -24 -9 -1 -37 24 -29 21
7 37 -14 19 -25 -8 -5 -10 -15 -5 -26 11 -28 17 -63 19 -124 1 -30 8 -65 15
-77 9 -19 8 -29 -6 -55 -10 -18 -18 -37 -19 -43 -2 -24 -17 -45 -33 -45 -12
-1 -9 -7 12 -25 37 -33 33 -65 -10 -84 -18 -8 -33 -21 -33 -28 0 -7 -4 -13 -9
-13 -11 0 68 -157 94 -186 6 -6 20 -14 30 -18 12 -3 21 -16 21 -31 1 -14 11
-34 23 -44 18 -16 19 -20 6 -25 -22 -8 -19 -47 4 -53 15 -4 22 -20 31 -71 7
-37 17 -73 22 -79 6 -7 10 -32 11 -57 0 -37 5 -46 28 -60 19 -11 26 -22 22
-36 -3 -11 -9 -20 -14 -20 -17 0 -9 -27 16 -50 15 -14 25 -35 25 -51 0 -33 19
-79 33 -79 6 0 6 -5 0 -12 -6 -7 -13 -30 -16 -51 -5 -30 -2 -41 15 -56 11 -11
18 -24 15 -28 -3 -5 -7 -28 -8 -51 -2 -23 -7 -42 -12 -42 -4 0 -5 -4 -2 -10 3
-5 -1 -10 -9 -10 -9 0 -15 -3 -15 -7 5 -28 -3 -53 -16 -53 -27 0 -16 -27 28
-70 23 -23 49 -56 57 -74 8 -17 22 -31 30 -31 9 0 18 -21 26 -67 7 -37 16 -73
20 -79 5 -8 -1 -10 -20 -7 -20 4 -26 2 -22 -8 10 -26 -63 -90 -124 -109 -14
-4 -29 -13 -33 -19 -6 -7 -7 -6 -4 4 2 8 24 25 49 38 46 24 88 81 88 120 0 26
-14 31 -70 25 -42 -4 -46 -2 -67 31 -14 24 -18 36 -10 39 9 3 8 9 -3 20 -12
13 -25 15 -65 8 -39 -6 -46 -10 -30 -16 53 -21 112 -119 64 -106 -8 2 -25 6
-39 9 -14 3 -29 11 -35 17 -14 17 -52 25 -87 18 -26 -5 -28 -9 -23 -37 6 -31
6 -31 -15 7 -21 39 -20 57 6 57 8 0 14 6 14 14 0 8 6 16 13 19 6 2 -3 6 -21 9
-18 2 -35 1 -38 -4 -3 -4 0 -8 5 -8 21 0 10 -20 -14 -26 -27 -7 -35 -34 -10
-34 8 0 15 -8 15 -18 0 -14 -8 -19 -30 -19 -32 0 -47 22 -29 43 8 10 8 14 0
14 -6 0 -11 -4 -11 -10 0 -5 -7 -7 -15 -4 -8 4 -15 1 -15 -5 0 -19 -28 0 -34
24 -3 12 -15 25 -26 28 -16 4 -18 10 -12 28 5 13 15 25 21 27 10 3 10 0 2 -17
-9 -17 -9 -20 3 -15 9 3 18 15 22 26 7 22 68 88 81 88 4 0 2 -5 -5 -12 -7 -7
-12 -16 -12 -21 0 -5 12 6 26 23 16 18 33 29 41 26 8 -3 24 -1 35 5 15 8 27 8
44 0 31 -14 33 8 4 34 -16 15 -24 16 -47 6 -35 -14 -103 -10 -103 6 0 7 -10
12 -22 10 -19 -2 -24 4 -26 28 -3 28 0 30 30 31 21 1 37 9 46 23 8 11 18 21
23 21 16 0 9 -42 -8 -56 -12 -9 -14 -13 -5 -14 16 0 42 24 42 39 0 6 7 11 15
11 8 0 15 4 15 9 0 5 -7 14 -15 21 -8 7 -15 20 -15 28 0 14 1 14 13 1 6 -9 24
-23 40 -32 15 -10 27 -24 27 -32 0 -8 4 -15 8 -15 13 0 32 23 32 39 0 18 -59
81 -77 81 -7 0 -17 9 -23 20 -6 11 -21 20 -33 20 -13 0 -28 5 -35 12 -9 9 -16
8 -30 -5 -10 -9 -21 -15 -24 -12 -3 3 -16 1 -29 -4 l-24 -10 25 0 c17 -1 21
-4 13 -12 -7 -7 -24 -8 -43 -4 l-33 7 28 24 c16 13 33 24 40 24 6 0 22 12 34
26 21 24 21 25 3 19 -25 -7 -32 2 -25 38 4 18 10 26 19 23 7 -3 18 2 25 10 10
12 9 13 -6 8 -13 -5 -16 -4 -11 4 4 7 18 12 32 12 26 0 54 20 54 39 0 5 -13
18 -29 27 -25 15 -29 22 -24 46 3 17 1 28 -6 28 -6 0 -11 7 -11 16 0 10 -6 13
-18 10 -21 -7 -72 52 -72 83 0 13 -8 23 -22 26 -13 3 -29 18 -35 32 -16 34
-10 41 13 14 21 -24 34 -19 34 15 0 13 5 24 10 24 22 0 8 34 -30 72 -22 23
-40 44 -40 47 0 3 -7 15 -16 26 -12 17 -16 18 -24 5 -5 -8 -4 -22 2 -34 8 -15
8 -21 -1 -24 -6 -2 -11 -10 -11 -17 0 -8 -9 -13 -20 -12 -22 1 -32 17 -45 77
-5 20 -1 28 24 43 17 10 36 27 41 38 6 10 17 19 25 19 15 0 17 10 17 60 0 23
0 23 5 3 5 -27 16 -29 33 -8 7 8 19 15 27 15 11 0 14 10 12 38 -4 66 -1 76 16
62 13 -11 15 -8 15 16 0 38 13 56 32 49 12 -5 18 2 23 24 4 17 10 29 15 26 5
-3 7 6 4 19 -2 14 0 27 5 31 6 3 8 12 4 20 -3 8 0 15 6 15 6 0 8 7 5 15 -5 11
-2 14 12 9 20 -8 19 -6 -10 16 -14 10 -17 11 -12 2 6 -10 1 -11 -19 -6 l-27 7
17 -27 18 -27 -27 11 c-15 5 -37 10 -49 10 -22 0 -22 -1 3 -20 34 -26 18 -36
-25 -15 -45 21 -51 16 -31 -23 12 -24 13 -31 3 -35 -19 -7 -67 4 -67 15 0 5
-8 7 -18 4 -11 -4 -22 2 -30 15 -8 12 -9 18 -3 14 7 -4 10 3 9 19 -1 13 -7 24
-13 23 -5 -1 -11 7 -11 18 -1 11 -2 23 -3 28 -1 4 0 10 2 14 3 10 -64 31 -108
33 -34 2 -36 3 -15 10 50 14 70 22 70 29 0 11 -154 -5 -182 -19 -29 -14 -37
-30 -15 -30 8 0 7 -4 -3 -10 -13 -9 -13 -10 0 -10 8 0 24 -7 34 -15 16 -12 17
-18 8 -27 -21 -21 -13 -28 31 -26 33 2 49 -3 68 -21 21 -21 22 -23 4 -18 -11
4 -33 9 -50 13 l-30 7 25 -26 c27 -28 36 -81 12 -72 -7 3 -20 5 -28 5 -18 0
-68 76 -59 90 4 7 -1 14 -13 17 -11 2 -25 15 -32 29 -12 22 -34 35 -70 39 -8
1 -23 6 -33 10 -11 4 -23 3 -30 -4 -6 -6 -36 -11 -67 -11 -54 0 -56 -1 -83
-42 -15 -23 -27 -48 -27 -56 0 -7 -4 -10 -10 -7 -5 3 -10 -1 -10 -9 0 -9 -8
-16 -18 -16 -10 0 -22 -4 -28 -9 -5 -5 -29 -6 -53 -2 -42 6 -43 7 -20 18 13 6
32 14 42 17 24 8 21 20 -8 36 -21 11 -32 11 -59 2 -51 -19 -63 -15 -38 11 30
31 28 37 -12 37 -25 0 -39 -7 -50 -22 -21 -30 -20 -49 2 -42 9 4 4 -3 -13 -15
-16 -11 -39 -21 -51 -21 -25 0 -59 -34 -50 -49 4 -6 1 -21 -6 -33 -6 -13 -11
-33 -9 -45 1 -14 -8 -32 -25 -48 -32 -30 -48 -32 -39 -5 5 15 2 20 -10 20 -11
0 -15 5 -11 15 3 8 2 15 -2 15 -19 -1 -41 -30 -53 -69 -12 -40 -11 -45 6 -57
27 -20 34 -18 51 19 l15 32 -4 -30 c-2 -16 -6 -37 -8 -45 -2 -9 4 -16 18 -18
17 -2 25 -14 33 -43 10 -34 14 -38 35 -33 17 4 26 0 35 -16 18 -34 53 -65 58
-52 2 7 14 1 28 -15 24 -26 25 -59 2 -74 -15 -9 -4 -54 15 -61 12 -5 16 -14
13 -25 -8 -26 9 -47 33 -40 24 6 26 -1 7 -28 -7 -11 -16 -37 -19 -57 -5 -33
-3 -38 13 -38 10 0 21 4 24 8 7 12 96 9 97 -3 0 -5 -10 -12 -23 -15 -32 -8
-37 -64 -9 -94 12 -13 18 -26 14 -29 -7 -8 -5 -8 55 -11 23 -1 42 2 42 6 0 4
5 8 10 8 14 0 12 -20 -2 -24 -21 -6 -41 -16 -68 -31 -20 -12 -21 -15 -7 -15
10 0 26 4 35 9 11 6 31 4 57 -6 22 -8 49 -15 60 -14 11 0 25 -10 31 -23 9 -20
8 -22 -11 -19 -11 3 -43 -7 -70 -21 -28 -14 -44 -26 -37 -26 6 0 12 -7 12 -15
0 -11 11 -15 40 -15 22 0 43 -6 47 -13 10 -17 43 -30 43 -16 0 5 -7 12 -15 15
-22 9 -18 24 5 24 19 0 37 29 45 70 3 21 61 17 87 -6 20 -19 23 -20 72 -22 28
-2 29 -3 10 -17 -18 -14 -17 -14 14 -15 34 0 43 -14 16 -24 -27 -10 -52 -7
-58 9 -7 18 -86 21 -86 3 0 -20 32 -48 57 -48 12 0 23 -4 23 -10 0 -5 -14 -10
-31 -10 -26 0 -29 -2 -20 -14 10 -12 8 -17 -10 -26 -15 -8 -24 -9 -28 -2 -4 7
-12 8 -21 2 -11 -7 -11 -10 -2 -10 7 0 24 -12 37 -27 17 -21 21 -32 14 -46
-12 -22 11 -54 75 -104 24 -19 50 -48 57 -64 6 -17 26 -40 44 -52 67 -46 109
-90 110 -115 0 -24 11 -35 48 -46 21 -7 52 -69 44 -89 -7 -18 -57 -11 -57 9 0
8 -10 14 -23 14 -13 0 -37 11 -53 25 -16 14 -33 25 -39 25 -5 0 -3 -6 6 -13
11 -8 15 -22 11 -45 -6 -43 -41 -59 -77 -36 -18 12 -25 13 -25 4 0 -7 -9 -2
-20 11 -16 20 -19 21 -20 7 0 -14 -6 -16 -30 -12 -23 5 -35 1 -60 -22 -16 -16
-30 -34 -30 -41 0 -21 -31 -44 -51 -38 -13 4 -19 2 -19 -9 0 -9 -3 -15 -7 -14
-10 4 -53 -39 -53 -52 0 -5 -4 -10 -10 -10 -5 0 -10 9 -10 20 0 11 -7 20 -15
20 -8 0 -14 3 -13 8 1 4 -2 17 -6 30 -6 18 -12 21 -29 16 -20 -6 -20 -5 -8 10
8 9 18 38 22 64 4 26 10 55 14 65 4 9 3 17 -2 17 -5 0 -14 -12 -20 -28 l-11
-27 -1 29 c-1 26 -4 28 -33 24 -43 -7 -69 16 -42 37 13 10 15 14 5 15 -7 0
-22 -10 -33 -22 -18 -21 -20 -21 -29 -5 -11 19 -31 24 -24 5 3 -8 -4 -13 -20
-13 -21 0 -25 5 -25 28 0 20 -5 27 -19 27 -11 0 -23 5 -26 10 -9 15 -22 12
-22 -6 0 -9 11 -20 24 -25 30 -11 29 -29 -2 -29 -15 0 -25 6 -25 14 0 8 -13
17 -29 21 -28 6 -28 7 -18 47 8 31 7 43 -1 46 -19 6 -15 43 4 40 10 -2 19 3
21 10 3 8 -6 12 -25 12 -40 0 -52 18 -57 82 -1 29 -8 68 -14 87 -6 19 -8 37
-6 42 3 4 1 10 -5 14 -6 3 -10 -4 -10 -18 0 -14 -6 -30 -14 -36 -12 -10 -15
-6 -21 19 -5 25 -11 30 -36 30 -16 0 -29 2 -29 4 0 2 -3 11 -6 20 -5 13 -1 15
22 10 38 -7 87 39 77 74 -3 12 -10 22 -15 22 -6 0 -7 7 -4 16 3 8 -1 31 -9 51
-8 19 -15 46 -15 59 0 34 -17 30 -41 -11 -12 -19 -29 -35 -39 -35 -10 0 -23
-7 -30 -15 -10 -13 -10 -19 4 -33 9 -10 16 -27 16 -37 0 -14 -3 -15 -15 -5 -8
7 -12 16 -9 21 3 5 0 9 -5 9 -6 0 -11 -5 -11 -11 0 -6 -9 -8 -20 -4 -26 8 -25
0 2 -38 14 -20 22 -47 23 -77 1 -44 0 -46 -23 -42 -16 3 -28 -1 -34 -12 -5 -9
-18 -16 -30 -16 -15 0 -19 -5 -15 -20 3 -11 1 -23 -5 -26 -13 -8 11 -24 37
-24 12 0 25 -11 33 -29 11 -24 10 -35 -4 -71 -14 -35 -15 -45 -4 -66 10 -18
11 -30 2 -49 -13 -29 2 -49 55 -72 38 -15 42 -33 13 -51 -23 -14 -27 -42 -6
-42 8 0 26 -4 41 -10 22 -8 24 -12 13 -29 -15 -24 -48 -35 -48 -15 0 8 -6 14
-14 14 -11 0 -12 -8 -5 -37 4 -21 5 -49 2 -61 -5 -22 -4 -23 15 -11 12 7 25
10 29 5 9 -9 -27 -38 -42 -33 -5 2 -16 -10 -23 -27 -12 -28 -11 -32 10 -48 13
-9 24 -29 25 -45 1 -15 5 -45 9 -65 4 -25 2 -38 -5 -38 -6 0 -11 16 -11 35 0
22 -6 38 -15 41 -8 3 -17 16 -21 27 -4 12 -15 34 -25 48 -10 15 -21 44 -23 65
-3 21 -12 44 -21 50 -9 6 -15 26 -15 47 0 20 -5 39 -11 43 -6 4 -9 33 -8 74 2
38 0 72 -4 76 -4 4 -7 17 -7 29 0 11 -5 26 -11 32 -6 6 -12 53 -15 104 -5 115
-7 120 -44 141 -30 17 -39 45 -20 64 17 17 0 103 -22 115 -11 6 -28 29 -38 52
-44 101 -31 168 24 132 14 -9 28 -26 32 -37 6 -18 7 -19 25 -2 27 24 26 80 -2
89 -14 5 -25 1 -33 -11 -19 -25 -60 -11 -86 31 -26 42 -29 106 -6 138 56 77
70 105 71 137 0 28 4 35 19 33 17 -1 18 4 12 66 -10 97 7 164 55 216 41 45 69
59 131 70 52 8 54 28 9 104 -26 45 -36 70 -30 78 7 7 6 13 0 17 -5 4 -9 14 -9
24 1 9 -2 33 -5 52 -5 23 0 59 13 104 11 39 19 70 17 71 -1 1 -19 12 -39 24
-20 12 -40 31 -43 42 -4 11 -21 26 -38 33 -18 8 -25 15 -15 15 13 1 15 8 11
41 -7 50 10 59 62 30 20 -12 40 -19 43 -15 3 3 0 5 -6 5 -7 0 -12 7 -12 15 0
20 50 9 67 -14 12 -17 23 -12 27 13 1 8 10 24 19 34 17 19 17 20 -8 26 -14 4
-34 2 -45 -4 -27 -14 -30 -13 -30 15 0 27 41 55 82 55 13 0 30 5 38 11 11 8
-5 9 -57 6 -40 -2 -73 -3 -73 -1 0 1 25 8 55 14 30 6 57 15 60 20 3 4 -18 13
-46 20 -36 9 -48 15 -40 23 8 8 24 8 56 -1 43 -11 75 -8 75 8 0 4 -11 5 -25 2
-28 -5 -35 14 -7 20 13 3 8 9 -18 22 -19 11 -37 22 -40 26 -12 17 -49 30 -55
19 -5 -7 -16 -2 -33 13 -14 13 -22 17 -18 11 16 -28 -21 -10 -59 27 -22 22
-43 40 -47 40 -16 0 -7 -33 15 -51 20 -17 20 -18 2 -12 -11 3 -38 16 -60 29
-22 13 -49 23 -60 24 -20 1 -55 1 -107 0 -15 0 -30 -4 -33 -10 -4 -7 -19 -3
-41 10 -24 15 -38 19 -50 12 -9 -5 -36 -7 -59 -4 -23 2 -45 0 -49 -6 -11 -18
-44 -1 -51 25 -4 18 1 36 19 62 15 21 26 42 26 48 0 6 18 13 39 17 22 3 41 13
45 22 5 12 13 14 32 10 20 -5 30 -2 41 13 8 12 35 33 61 48 44 26 45 28 22 33
-25 6 -25 6 8 23 26 15 36 15 55 5 33 -18 55 -22 127 -22 45 -1 69 -6 77 -16
11 -13 12 -13 13 1 0 9 -7 19 -15 23 -16 6 -20 41 -6 51 11 6 61 -15 61 -26 0
-5 17 -17 38 -28 20 -10 48 -31 61 -45 18 -19 27 -23 32 -14 6 10 11 9 21 -3
19 -23 48 -32 48 -14 0 17 11 19 25 6 6 -4 24 -11 41 -14 25 -5 34 -2 43 16 7
12 30 34 52 50 34 23 43 26 62 15 14 -7 17 -13 9 -16 -18 -6 -16 -72 2 -72 21
0 31 21 15 31 -10 6 -7 9 12 9 15 0 40 7 55 15 26 13 29 13 34 -1 5 -12 15 -7
45 25 22 23 48 41 58 41 10 0 32 7 50 16 35 19 135 25 141 9 2 -5 34 20 72 56
79 76 120 90 189 65 34 -12 40 -12 43 0 4 19 22 18 22 -1 0 -24 33 -35 74 -24
31 9 35 13 25 25 -9 11 -7 14 11 14 26 0 49 26 50 54 0 15 6 17 30 14 17 -3
33 -1 36 4 7 12 13 10 43 -12z m-1948 -590 c25 -25 35 -42 27 -44 -40 -12 -48
-16 -48 -24 0 -5 10 -14 23 -20 17 -8 18 -11 5 -11 -10 -1 -18 -9 -18 -18 0
-30 37 -81 61 -85 22 -3 22 -4 5 -20 -28 -28 -44 -21 -66 30 -34 76 -44 96
-58 111 -20 21 1 121 25 121 3 0 23 -18 44 -40z m376 -37 c-20 -2 -35 -8 -32
-14 4 -5 -3 -9 -14 -9 -11 0 -23 -5 -27 -11 -4 -8 -9 -7 -15 2 -14 23 20 39
75 37 44 -1 46 -2 13 -5z m93 -33 c18 -6 4 -8 -45 -8 -49 0 -63 2 -45 8 14 4
34 8 45 8 11 0 31 -4 45 -8z m-325 -175 c48 -28 62 -52 42 -72 -18 -19 -67 2
-67 28 0 10 -9 23 -20 29 -22 12 -27 40 -8 40 6 0 30 -11 53 -25z m170 -81
c-9 -14 -15 -27 -13 -29 7 -7 73 -7 97 1 21 6 23 4 18 -10 -4 -10 -7 -26 -7
-37 0 -27 -40 -66 -50 -49 -9 15 -30 4 -30 -16 0 -16 -2 -16 -24 -8 -9 3 -16
12 -16 19 0 7 -14 18 -30 24 -34 11 -48 37 -31 54 9 9 14 8 21 -3 8 -12 10
-12 10 -1 0 18 48 81 62 81 6 0 3 -12 -7 -26z m-79 -12 c-9 -9 -37 8 -31 18 5
8 11 7 21 -1 8 -6 12 -14 10 -17z m1196 -274 c-9 -9 -15 -9 -24 0 -9 9 -7 12
12 12 19 0 21 -3 12 -12z m-244 -150 c7 -10 20 -18 28 -18 8 0 14 -4 14 -10 0
-5 -6 -10 -14 -10 -8 0 -21 -7 -30 -15 -13 -13 -15 -11 -13 22 2 31 -1 37 -15
35 -12 -2 -16 2 -12 13 7 17 22 11 42 -17z m745 -69 c4 -16 3 -18 -9 -8 -16
13 -19 29 -5 29 5 0 11 -9 14 -21z m-1073 -111 c-24 -19 -61 -21 -67 -3 -2 6
9 11 23 12 15 0 34 8 43 17 11 12 17 13 20 5 2 -7 -7 -21 -19 -31z m1060 32
c0 -5 -4 -10 -10 -10 -5 0 -10 5 -10 10 0 6 5 10 10 10 6 0 10 -4 10 -10z
m-1143 -42 c-3 -8 -6 -5 -6 6 -1 11 2 17 5 13 3 -3 4 -12 1 -19z m983 -187 c0
-5 -9 -19 -20 -32 -17 -21 -19 -21 -13 -4 10 33 33 57 33 36z m-470 -88 c0 -7
-3 -13 -6 -13 -12 0 -33 35 -33 55 -1 18 1 18 19 -5 11 -14 20 -31 20 -37z
m230 38 c0 -21 -13 -41 -26 -41 -11 0 -11 5 -2 25 11 24 28 34 28 16z m270
-58 c0 -9 -6 -13 -14 -10 -7 3 -18 1 -23 -4 -13 -13 -35 14 -27 34 4 12 11 13
35 5 16 -5 29 -17 29 -25z m-82 -36 c2 -9 -3 -23 -10 -30 -11 -12 -16 -12 -26
0 -8 8 -9 13 -2 13 6 0 8 5 5 10 -8 14 4 32 18 27 7 -2 13 -11 15 -20z m-388
3 c0 -5 -4 -10 -10 -10 -5 0 -10 5 -10 10 0 6 5 10 10 10 6 0 10 -4 10 -10z
m70 -16 c0 -2 -11 -4 -25 -4 -14 0 -25 4 -25 9 0 4 11 6 25 3 14 -2 25 -6 25
-8z m45 6 c-3 -5 -11 -10 -16 -10 -6 0 -7 5 -4 10 3 6 11 10 16 10 6 0 7 -4 4
-10z m-445 -16 c0 -8 -5 -12 -10 -9 -6 4 -8 11 -5 16 9 14 15 11 15 -7z m240
-18 c0 -3 -4 -8 -10 -11 -5 -3 -10 -1 -10 4 0 6 5 11 10 11 6 0 10 -2 10 -4z
m434 -45 c-6 -6 -24 19 -24 34 1 6 7 1 15 -9 8 -11 12 -22 9 -25z m204 27 c-2
-6 -10 -14 -16 -16 -7 -2 -10 2 -6 12 7 18 28 22 22 4z m-19 -42 c10 -12 9
-20 -4 -40 -19 -29 -18 -28 -39 -20 -21 8 -10 24 17 24 19 1 20 2 6 13 -9 7
-14 18 -12 25 6 16 18 15 32 -2z m-74 -56 c4 -6 -6 -10 -22 -10 -22 0 -25 2
-13 10 19 12 27 12 35 0z m55 -30 c0 -5 -7 -10 -15 -10 -8 0 -15 5 -15 10 0 6
7 10 15 10 8 0 15 -4 15 -10z m150 -10 c0 -5 -9 -10 -21 -10 -11 0 -17 5 -14
10 3 6 13 10 21 10 8 0 14 -4 14 -10z m-210 -10 c0 -5 -5 -10 -11 -10 -5 0 -7
5 -4 10 3 6 8 10 11 10 2 0 4 -4 4 -10z m53 -136 c19 -39 22 -81 7 -104 -8
-12 -10 -9 -10 13 0 24 -4 27 -29 25 -18 -1 -28 -7 -27 -18 1 -10 -9 -16 -30
-18 -29 -3 -30 -2 -26 32 3 22 11 37 21 41 10 3 27 19 39 35 13 17 26 30 30
30 4 0 15 -16 25 -36z m94 3 c-5 -15 -29 -16 -34 -2 -2 6 6 11 18 12 12 1 19
-3 16 -10z m67 -22 c-10 -8 -29 -18 -41 -21 -12 -3 -24 -16 -26 -27 -3 -18 -5
-16 -6 6 -1 18 5 29 17 33 9 3 28 12 42 19 31 17 40 10 14 -10z m-381 -32 c-7
-2 -19 -2 -25 0 -7 3 -2 5 12 5 14 0 19 -2 13 -5z m506 -138 c-3 -24 -12 -35
-29 -35 -23 0 -82 -31 -93 -47 -8 -13 -37 -18 -37 -7 0 10 64 64 76 64 7 0 14
8 16 18 3 12 15 17 36 17 18 0 31 -4 31 -10z m-169 -50 c-7 -9 -15 -13 -17
-11 -7 7 7 26 19 26 6 0 6 -6 -2 -15z m96 -60 c-11 -8 -25 -15 -30 -15 -6 0
-2 7 8 15 11 8 25 15 30 15 6 0 2 -7 -8 -15z m-1456 -135 c0 -12 -28 -25 -36
-17 -9 9 6 27 22 27 8 0 14 -5 14 -10z m-1776 -25 c5 0 11 -10 12 -22 2 -13
-1 -23 -6 -23 -6 0 -10 -7 -10 -15 0 -8 -8 -15 -17 -15 -17 0 -53 28 -53 41 0
15 43 48 54 41 6 -4 15 -7 20 -7z m-626 -63 c6 -9 12 -26 12 -38 0 -12 4 -24
9 -26 5 -1 3 -12 -5 -22 -12 -18 -15 -18 -31 -4 -10 9 -29 19 -43 23 -54 16
-62 38 -30 73 23 25 65 22 88 -6z m-983 7 c4 -5 4 -21 1 -35 -7 -27 -32 -31
-61 -10 -19 14 -19 15 -1 35 20 23 51 28 61 10z m4720 1 c-3 -5 -14 -10 -23
-10 -15 0 -15 2 -2 10 20 13 33 13 25 0z m-4282 -116 c-26 -19 -53 -17 -53 4
0 41 12 61 39 64 22 3 26 -1 29 -25 2 -19 -3 -34 -15 -43z m3003 45 c7 -12
-22 -46 -32 -37 -8 9 5 48 16 48 5 0 12 -5 16 -11z m2681 -36 c-24 -25 -29
-26 -49 -14 -18 11 -22 11 -30 -3 -13 -23 -48 -21 -48 3 0 26 15 34 66 35 24
1 49 7 56 14 8 8 15 9 22 2 7 -7 1 -19 -17 -37z m-6470 -67 c-8 -20 -36 -21
-43 -1 -4 8 0 22 7 31 11 13 14 13 27 0 8 -8 12 -22 9 -30z m2751 -21 c22 -20
-2 -55 -37 -55 -21 0 -31 7 -40 27 -11 23 -10 29 5 40 19 14 51 9 72 -12z
m2384 -8 c6 -30 0 -47 -15 -41 -16 6 -37 -49 -30 -77 5 -19 3 -20 -33 -15 -39
6 -71 33 -57 47 5 4 19 9 32 11 18 2 32 16 49 51 27 51 47 60 54 24z m-1310
-3 c-13 -9 -26 -13 -30 -9 -8 8 17 25 38 25 9 0 6 -6 -8 -16z m-1633 -50 c26
-34 13 -54 -35 -54 -67 0 -60 71 8 79 4 1 16 -11 27 -25z m871 -10 c0 -8 -10
-14 -25 -14 -23 0 -34 18 -19 32 10 10 44 -4 44 -18z m-1220 1 c0 -16 -35 -21
-44 -6 -8 12 4 21 26 21 10 0 18 -7 18 -15z m212 3 c9 -7 19 -25 22 -41 6 -27
6 -27 -13 -10 -11 10 -27 24 -36 31 -8 7 -13 17 -10 23 8 12 18 11 37 -3z
m-444 -21 c2 -10 -3 -17 -12 -17 -10 0 -16 9 -16 21 0 24 23 21 28 -4z m317
-41 l24 -24 -24 -6 c-22 -6 -55 1 -55 11 0 8 21 43 26 43 3 0 16 -11 29 -24z
m-1735 -15 c5 -11 20 -21 32 -23 32 -4 30 -33 -2 -33 -18 0 -26 6 -28 23 -3
17 -8 21 -22 17 -20 -6 -35 9 -25 25 10 16 34 11 45 -9z m2112 -5 c20 -29 -23
-47 -56 -23 -29 21 -14 49 21 41 16 -4 31 -12 35 -18z m1961 -5 c18 -18 18
-19 -4 -45 -14 -16 -33 -26 -51 -26 -34 0 -38 -28 -8 -55 11 -10 20 -31 20
-46 0 -15 4 -29 9 -31 5 -2 6 -27 4 -55 -7 -63 -24 -69 -54 -18 -12 19 -26 35
-31 35 -18 0 -4 151 16 182 10 15 15 32 11 37 -3 6 -1 20 5 32 9 16 17 19 38
14 15 -3 35 -14 45 -24z m-433 9 c0 -5 -4 -10 -10 -10 -5 0 -10 5 -10 10 0 6
5 10 10 10 6 0 10 -4 10 -10z m-3870 -14 c0 -3 -4 -8 -10 -11 -5 -3 -10 -1
-10 4 0 6 5 11 10 11 6 0 10 -2 10 -4z m4693 -20 c3 -8 -5 -18 -19 -25 -32
-14 -37 -14 -27 2 4 6 8 15 9 20 1 4 2 9 3 12 2 11 29 4 34 -9z m2387 -12 c0
-18 -28 -33 -51 -27 -25 7 -24 18 2 37 24 16 49 11 49 -10z m-6932 -7 c9 -10
7 -19 -4 -35 -19 -28 -41 -28 -49 -2 -12 38 30 66 53 37z m842 -22 c27 -14 39
-43 24 -57 -3 -3 -22 -1 -42 5 -64 19 -80 41 -39 57 12 5 23 9 25 9 2 1 16 -6
32 -14z m810 -56 c0 -6 -4 -7 -10 -4 -5 3 -10 11 -10 16 0 6 5 7 10 4 6 -3 10
-11 10 -16z m1528 -33 c3 -12 -5 -16 -32 -16 -37 0 -47 15 -25 37 15 15 53 1
57 -21z m1232 24 c0 -5 -5 -10 -11 -10 -5 0 -7 5 -4 10 3 6 8 10 11 10 2 0 4
-4 4 -10z m-3225 -29 c10 -17 -12 -21 -25 -6 -10 12 -10 15 3 15 9 0 18 -4 22
-9z m3165 -22 c0 -5 -4 -9 -10 -9 -5 0 -10 7 -10 16 0 8 5 12 10 9 6 -3 10
-10 10 -16z m-2890 -20 c0 -6 -4 -7 -10 -4 -5 3 -10 11 -10 16 0 6 5 7 10 4 6
-3 10 -11 10 -16z m-1190 -28 c0 -21 -30 -33 -51 -21 -10 7 -10 11 0 24 19 22
51 20 51 -3z m2880 -1 c0 -13 -7 -20 -18 -20 -26 0 -34 11 -21 27 17 20 39 16
39 -7z m1520 16 c0 -3 -4 -8 -10 -11 -5 -3 -10 -1 -10 4 0 6 5 11 10 11 6 0
10 -2 10 -4z m-2620 -36 c0 -21 -25 -44 -40 -35 -13 8 -13 38 1 52 15 15 39 5
39 -17z m500 16 c0 -24 -18 -28 -30 -6 -9 17 -8 20 10 20 11 0 20 -6 20 -14z
m-391 -12 c40 -8 40 -30 0 -39 -34 -8 -67 14 -55 34 8 13 13 13 55 5z m2459
-22 c2 -7 -2 -10 -12 -6 -9 3 -16 11 -16 16 0 13 23 5 28 -10z m-218 -32 c-11
-21 -52 -36 -70 -25 -15 9 -2 25 34 40 37 16 50 11 36 -15z m1101 -40 c10 0
19 -6 19 -14 0 -10 -11 -13 -42 -11 -24 2 -45 4 -47 4 -2 1 2 8 9 16 7 9 20
13 27 10 8 -3 23 -5 34 -5z m-1333 -28 c2 -12 -1 -22 -7 -22 -6 0 -11 4 -11 9
0 5 -3 17 -7 27 -4 12 -2 15 8 12 8 -2 15 -14 17 -26z m454 3 c0 -5 -5 -11
-11 -13 -6 -2 -11 4 -11 13 0 9 5 15 11 13 6 -2 11 -8 11 -13z m-1972 -15 c0
-5 -5 -10 -11 -10 -5 0 -7 5 -4 10 3 6 8 10 11 10 2 0 4 -4 4 -10z m1480 6 c0
-3 -4 -8 -10 -11 -5 -3 -10 -1 -10 4 0 6 5 11 10 11 6 0 10 -2 10 -4z m75 -26
c-3 -5 -11 -10 -16 -10 -6 0 -7 5 -4 10 3 6 11 10 16 10 6 0 7 -4 4 -10z
m-3187 -25 c-3 -3 -9 2 -12 12 -6 14 -5 15 5 6 7 -7 10 -15 7 -18z m1186 10
c-4 -8 -8 -15 -10 -15 -2 0 -4 7 -4 15 0 8 4 15 10 15 5 0 7 -7 4 -15z m-1937
-47 c-3 -8 -6 -5 -6 6 -1 11 2 17 5 13 3 -3 4 -12 1 -19z m3702 -19 c17 9 26
9 42 -3 33 -23 49 -50 38 -67 -8 -12 -11 -11 -23 4 -10 12 -23 17 -42 13 -16
-2 -33 -5 -37 -5 -5 -1 -5 -11 -2 -22 5 -16 4 -19 -6 -14 -9 6 -11 2 -7 -12 3
-11 -1 -28 -8 -38 -8 -10 -14 -16 -14 -12 0 16 -2 23 -12 34 -5 7 -7 17 -4 22
4 5 2 12 -4 16 -5 3 -10 11 -10 16 0 6 5 7 10 4 6 -3 10 3 10 14 0 12 7 21 16
21 8 0 12 5 9 10 -3 6 -3 15 1 21 5 8 9 8 14 -1 6 -9 13 -9 29 -1z m421 -4 c0
-8 -4 -15 -9 -15 -5 0 -11 7 -15 15 -3 9 0 15 9 15 8 0 15 -7 15 -15z m-4585
-55 c3 -6 -1 -7 -9 -4 -18 7 -21 14 -7 14 6 0 13 -4 16 -10z m4728 -23 c4 3 7
1 7 -6 0 -8 5 -7 16 3 20 21 35 11 25 -16 -10 -28 -57 -33 -83 -8 -13 12 -18
25 -14 36 6 15 8 16 25 0 9 -9 21 -13 24 -9z m-4666 -9 c-3 -8 -6 -5 -6 6 -1
11 2 17 5 13 3 -3 4 -12 1 -19z m1619 6 c-3 -9 -6 -18 -6 -21 0 -3 -7 0 -15 7
-12 10 -15 10 -15 -2 0 -8 5 -19 11 -25 6 -6 8 -21 4 -34 -7 -22 -8 -21 -20 9
-21 48 -8 74 39 81 4 0 5 -6 2 -15z m386 -6 c-7 -7 -12 -8 -12 -2 0 14 12 26
19 19 2 -3 -1 -11 -7 -17z m-1588 -7 c3 -4 -6 -6 -19 -3 -14 2 -25 6 -25 8 0
8 39 4 44 -5z m3732 -7 c-4 -10 4 -21 24 -32 35 -20 37 -28 10 -37 -23 -7 -36
-1 -49 23 -8 17 2 62 15 62 3 0 3 -7 0 -16z m-2836 -38 c-1 -29 -1 -30 -15
-12 -8 11 -18 17 -21 13 -4 -4 -1 -13 6 -22 14 -17 10 -28 -5 -17 -12 9 -35
49 -35 61 0 11 38 19 58 13 6 -2 12 -18 12 -36z m3450 36 c0 -5 -11 -22 -25
-38 l-26 -29 7 30 c7 28 20 45 37 45 4 0 7 -4 7 -8z m-4930 -17 c0 -8 -7 -11
-20 -8 -11 3 -20 8 -20 12 0 4 9 7 20 8 11 1 20 -4 20 -12z m439 -17 c-1 -31
-1 -31 -8 -8 -5 14 -6 28 -4 33 9 15 13 6 12 -25z m421 28 c0 -14 -29 -56 -33
-48 -10 14 4 52 19 52 8 0 14 -2 14 -4z m520 -41 c-17 -21 -40 -19 -40 3 0 22
43 43 48 24 2 -7 -2 -19 -8 -27z m762 20 c-5 -28 -17 -33 -26 -10 -4 11 12 30
30 35 1 0 -1 -11 -4 -25z m293 15 c-3 -5 -11 -10 -16 -10 -6 0 -7 5 -4 10 3 6
11 10 16 10 6 0 7 -4 4 -10z m69 2 c2 -4 -4 -8 -14 -8 -10 0 -16 4 -14 8 3 4
9 8 14 8 5 0 11 -4 14 -8z m1444 -20 c3 -21 2 -22 -20 -10 -13 7 -25 14 -27
15 -1 1 0 7 4 13 11 18 40 6 43 -18z m833 18 c28 -16 23 -32 -6 -18 -14 6 -25
15 -25 20 0 11 7 10 31 -2z m-2595 -37 c-11 -11 -17 4 -9 23 7 18 8 18 11 1 2
-10 1 -21 -2 -24z m44 27 c0 -5 -5 -10 -11 -10 -5 0 -7 5 -4 10 3 6 8 10 11
10 2 0 4 -4 4 -10z m-654 -25 c1 -8 -2 -15 -7 -15 -5 0 -9 10 -9 22 0 23 12
17 16 -7z m1007 5 c-6 -22 -23 -38 -23 -21 0 6 -7 8 -15 5 -8 -4 -15 -1 -15 5
0 6 9 11 19 11 11 0 23 5 26 10 10 16 14 12 8 -10z m722 10 c-3 -5 -11 -10
-16 -10 -6 0 -7 5 -4 10 3 6 11 10 16 10 6 0 7 -4 4 -10z m-140 -14 c12 -12
11 -15 -8 -20 -33 -9 -57 -7 -57 4 0 6 11 8 27 4 22 -6 25 -4 20 10 -8 20 0
21 18 2z m725 0 c0 -17 -14 -29 -23 -20 -8 8 3 34 14 34 5 0 9 -6 9 -14z
m-1400 -26 c0 -5 -4 -12 -10 -15 -5 -3 -10 1 -10 10 0 9 -4 13 -10 10 -5 -3
-10 1 -10 10 0 13 4 14 20 5 11 -6 20 -15 20 -20z m1550 14 c0 -8 -5 -12 -10
-9 -6 4 -8 11 -5 16 9 14 15 11 15 -7z m568 0 c12 -4 22 -13 22 -21 0 -8 -5
-11 -11 -8 -5 4 -19 -1 -29 -10 -17 -15 -22 -16 -36 -4 -16 13 -17 11 -11 -18
6 -30 5 -32 -16 -24 -38 14 -30 49 18 78 23 14 32 15 63 7z m247 -3 c3 -5 1
-12 -5 -16 -5 -3 -10 1 -10 9 0 18 6 21 15 7z m-3335 -23 c0 24 20 11 20 -14
0 -20 -4 -25 -16 -20 -9 3 -19 6 -22 6 -4 0 -8 11 -8 26 -2 23 -1 24 12 7 8
-11 13 -13 14 -5z m270 12 c0 -5 -4 -10 -10 -10 -5 0 -10 5 -10 10 0 6 5 10
10 10 6 0 10 -4 10 -10z m2972 -2 c-9 -9 -15 -9 -24 0 -9 9 -7 12 12 12 19 0
21 -3 12 -12z m48 5 c0 -5 -4 -15 -10 -23 -11 -18 -25 -7 -17 15 6 15 27 21
27 8z m-2260 -13 c0 -5 -2 -10 -4 -10 -3 0 -8 5 -11 10 -3 6 -1 10 4 10 6 0
11 -4 11 -10z m-140 -10 c0 -5 -9 -10 -21 -10 -11 0 -17 5 -14 10 3 6 13 10
21 10 8 0 14 -4 14 -10z m1010 0 c0 -5 -4 -10 -10 -10 -5 0 -10 5 -10 10 0 6
5 10 10 10 6 0 10 -4 10 -10z m1510 0 c0 -5 -5 -10 -11 -10 -5 0 -7 5 -4 10 3
6 8 10 11 10 2 0 4 -4 4 -10z m-980 -28 c0 -7 -8 -12 -17 -10 -24 4 -27 24 -3
24 11 0 20 -6 20 -14z m950 2 c0 -2 -7 -4 -15 -4 -8 0 -15 4 -15 10 0 5 7 7
15 4 8 -4 15 -8 15 -10z m-2700 -9 c0 -8 -4 -15 -10 -15 -5 0 -10 7 -10 15 0
8 5 15 10 15 6 0 10 -7 10 -15z m155 -5 c3 -5 1 -10 -4 -10 -6 0 -11 5 -11 10
0 6 2 10 4 10 3 0 8 -4 11 -10z m2308 -12 c6 -22 -7 -31 -33 -23 -19 6 -26 25
-14 38 12 12 43 2 47 -15z m1341 7 c-6 -16 -24 -21 -24 -7 0 11 11 22 21 22 5
0 6 -7 3 -15z m-1721 -10 c-3 -9 -8 -14 -10 -11 -3 3 -2 9 2 15 9 16 15 13 8
-4z m-83 -15 c0 -5 -2 -10 -4 -10 -3 0 -8 5 -11 10 -3 6 -1 10 4 10 6 0 11 -4
11 -10z m1284 -16 c5 -12 2 -15 -10 -10 -8 3 -18 6 -20 6 -3 0 -2 5 1 10 9 15
22 12 29 -6z m1609 -24 c9 -12 12 -31 8 -48 -6 -27 -6 -27 -9 6 -3 31 -5 32
-48 32 -64 0 -57 27 8 29 16 1 32 -7 41 -19z m-1309 -12 c14 -23 -9 -48 -45
-48 -22 0 -29 -5 -29 -20 0 -23 -28 -27 -36 -5 -4 8 -12 15 -20 15 -8 0 -14 7
-14 15 0 17 16 20 25 5 9 -14 25 -2 25 19 0 9 6 23 12 29 17 17 69 10 82 -10z
m-4334 2 c0 -5 -2 -10 -4 -10 -3 0 -8 5 -11 10 -3 6 -1 10 4 10 6 0 11 -4 11
-10z m5677 -12 c-3 -8 -6 -5 -6 6 -1 11 2 17 5 13 3 -3 4 -12 1 -19z m-1185
-20 c-7 -7 -12 -8 -12 -2 0 14 12 26 19 19 2 -3 -1 -11 -7 -17z m-2334 -16 c2
-7 -3 -12 -12 -12 -9 0 -16 7 -16 16 0 17 22 14 28 -4z m2872 -12 c-6 -11 -13
-20 -16 -20 -2 0 0 9 6 20 6 11 13 20 16 20 2 0 0 -9 -6 -20z m-2250 0 c0 -5
-4 -10 -10 -10 -5 0 -10 5 -10 10 0 6 5 10 10 10 6 0 10 -4 10 -10z m840 -6
c0 -8 -5 -12 -10 -9 -6 4 -8 11 -5 16 9 14 15 11 15 -7z m1872 -6 c-7 -7 -12
-8 -12 -2 0 14 12 26 19 19 2 -3 -1 -11 -7 -17z m-92 -4 c0 -8 -5 -12 -10 -9
-6 4 -8 11 -5 16 9 14 15 11 15 -7z"/>
<path d="M5516 3945 c4 -8 8 -15 10 -15 2 0 4 7 4 15 0 8 -4 15 -10 15 -5 0
-7 -7 -4 -15z"/>
<path d="M5455 3940 c-3 -5 -1 -10 4 -10 6 0 11 5 11 10 0 6 -2 10 -4 10 -3 0
-8 -4 -11 -10z"/>
<path d="M5590 3885 c-14 -8 -35 -14 -47 -15 -13 0 -23 -4 -23 -9 0 -5 30 -9
68 -8 37 1 76 -2 88 -6 12 -4 28 -1 40 7 18 14 18 15 -11 26 -50 19 -89 21
-115 5z"/>
<path d="M5553 3830 c-22 -9 -26 -31 -10 -57 4 -6 1 -13 -5 -16 -7 -2 -10 -8
-6 -11 8 -9 68 46 68 63 0 6 5 11 10 11 6 0 10 5 10 10 0 12 -37 12 -67 0z"/>
<path d="M5725 3740 c-4 -6 -15 -8 -26 -5 -24 8 -36 -19 -19 -40 10 -13 16
-11 41 13 16 15 29 30 29 34 0 12 -18 10 -25 -2z"/>
<path d="M5614 3659 c-16 -5 -40 -19 -53 -33 l-22 -24 32 -11 c40 -14 42 -14
37 1 -6 16 39 58 62 58 11 0 20 5 20 10 0 12 -33 12 -76 -1z"/>
<path d="M4310 3640 c0 -5 5 -10 10 -10 6 0 10 -10 10 -22 0 -16 3 -19 11 -11
14 14 2 53 -17 53 -8 0 -14 -4 -14 -10z"/>
<path d="M5640 3626 c0 -3 14 -11 30 -20 33 -16 40 -11 13 10 -17 13 -43 19
-43 10z"/>
<path d="M5505 3610 c3 -5 8 -10 11 -10 2 0 4 5 4 10 0 6 -5 10 -11 10 -5 0
-7 -4 -4 -10z"/>
<path d="M5635 3580 c3 -6 -1 -7 -9 -4 -9 3 -16 1 -16 -5 0 -6 -10 -11 -22
-11 -12 0 -42 -12 -67 -27 l-46 -27 33 -8 c40 -11 38 -30 -4 -39 -16 -4 -25
-7 -20 -8 5 0 3 -8 -4 -16 -14 -17 -3 -19 32 -6 43 16 78 21 78 13 0 -5 -17
-14 -38 -20 -37 -11 -55 -42 -25 -42 7 0 13 -4 13 -10 0 -5 5 -10 11 -10 5 0
7 5 4 10 -4 6 21 10 68 10 l75 0 -5 40 c-4 26 -2 40 6 40 6 0 11 17 11 40 0
22 -4 40 -10 40 -5 0 -10 9 -10 19 0 19 -18 31 -46 31 -9 0 -12 -4 -9 -10z"/>
<path d="M5710 3580 c0 -13 18 -22 24 -11 3 5 -1 11 -9 15 -8 3 -15 1 -15 -4z"/>
<path d="M5510 3570 c-9 -6 -10 -10 -3 -10 6 0 15 5 18 10 8 12 4 12 -15 0z"/>
<path d="M5450 3538 c-29 -32 -14 -37 18 -5 14 15 21 27 15 27 -7 0 -21 -10
-33 -22z"/>
<path d="M3745 3500 c-3 -5 -1 -10 4 -10 6 0 11 5 11 10 0 6 -2 10 -4 10 -3 0
-8 -4 -11 -10z"/>
<path d="M4270 3261 c0 -5 5 -13 10 -16 6 -3 10 -2 10 4 0 5 -4 13 -10 16 -5
3 -10 2 -10 -4z"/>
<path d="M4690 3173 c-8 -4 -20 -13 -27 -22 -10 -13 -15 -14 -32 -3 -26 15
-71 16 -71 0 0 -6 -18 -27 -40 -46 -40 -33 -77 -89 -66 -99 3 -3 -7 -27 -21
-55 -14 -27 -24 -50 -22 -51 2 -1 13 -7 24 -13 33 -18 70 -12 73 12 2 14 12
24 28 27 13 2 24 1 24 -4 0 -4 11 2 25 15 14 13 47 29 73 36 26 7 70 20 97 30
47 16 50 20 53 55 2 21 -1 35 -6 31 -5 -3 -8 6 -6 20 2 20 -3 28 -26 35 -16 6
-31 17 -34 25 -6 14 -20 17 -46 7z"/>
<path d="M5066 3137 c-10 -11 -19 -30 -20 -43 0 -13 -4 -24 -8 -24 -5 0 -8 -4
-8 -9 0 -12 103 -31 166 -31 29 0 55 -4 58 -9 3 -4 -5 -6 -19 -3 -24 4 -85
-17 -85 -30 0 -4 21 -6 48 -6 26 0 79 -5 119 -12 72 -13 143 -7 143 10 0 6 -6
10 -14 10 -15 0 -86 38 -86 46 0 2 12 1 28 -2 24 -6 20 -1 -29 48 -31 31 -65
61 -76 67 -11 5 -60 9 -109 8 -72 -1 -92 -5 -108 -20z"/>
<path d="M4036 2963 c23 -39 74 -69 85 -51 21 33 -5 65 -60 74 l-42 7 17 -30z"/>
<path d="M4520 2899 c0 -5 5 -7 10 -4 6 3 10 8 10 11 0 2 -4 4 -10 4 -5 0 -10
-5 -10 -11z"/>
<path d="M4793 2885 c7 -14 18 -25 25 -25 19 0 14 28 -7 40 -28 15 -30 13 -18
-15z"/>
<path d="M4684 2872 c3 -5 -6 -14 -19 -20 -32 -15 -32 -28 -1 -36 30 -7 74 8
82 29 3 8 10 12 15 9 5 -3 9 0 9 5 0 6 -8 11 -17 12 -10 0 -31 3 -46 5 -16 3
-26 1 -23 -4z"/>
<path d="M5360 2848 c0 -9 5 -20 10 -23 13 -8 13 5 0 25 -8 13 -10 13 -10 -2z"/>
<path d="M4024 2306 c-10 -8 -15 -18 -11 -22 4 -4 17 2 30 14 24 25 12 30 -19
8z"/>
<path d="M5517 2120 c3 -11 12 -20 21 -20 13 0 12 3 -3 20 -10 11 -19 20 -21
20 -1 0 0 -9 3 -20z"/>
<path d="M4227 1773 c-4 -3 -7 -15 -7 -26 0 -16 3 -17 15 -7 8 7 15 19 15 26
0 15 -12 19 -23 7z"/>
<path d="M4131 1684 c0 -11 3 -14 6 -6 3 7 2 16 -1 19 -3 4 -6 -2 -5 -13z"/>
<path d="M5600 1680 c0 -5 5 -10 10 -10 6 0 10 5 10 10 0 6 -4 10 -10 10 -5 0
-10 -4 -10 -10z"/>
<path d="M5680 1676 c0 -5 60 -36 69 -36 12 1 -42 40 -55 40 -8 0 -14 -2 -14
-4z"/>
<path d="M4738 1663 c7 -3 16 -2 19 1 4 3 -2 6 -13 5 -11 0 -14 -3 -6 -6z"/>
<path d="M4652 1538 c6 -18 28 -21 28 -4 0 9 -7 16 -16 16 -9 0 -14 -5 -12
-12z"/>
<path d="M5780 1541 c0 -6 5 -13 10 -16 6 -3 10 1 10 9 0 9 -4 16 -10 16 -5 0
-10 -4 -10 -9z"/>
<path d="M4860 1494 c14 -9 35 -31 47 -49 19 -28 73 -55 73 -36 0 18 -35 53
-66 66 -19 8 -34 19 -34 24 0 6 -10 11 -22 11 -23 -1 -23 -1 2 -16z"/>
<path d="M5680 1454 c0 -23 25 -40 35 -24 4 6 15 10 26 10 10 0 19 5 19 10 0
14 -37 12 -43 -2 -3 -9 -10 -7 -21 7 -15 20 -15 20 -16 -1z"/>
<path d="M5580 1430 c0 -5 5 -10 10 -10 6 0 10 5 10 10 0 6 -4 10 -10 10 -5 0
-10 -4 -10 -10z"/>
<path d="M5740 1406 c0 -2 7 -9 15 -16 13 -11 14 -10 9 4 -5 14 -24 23 -24 12z"/>
<path d="M5818 1343 c7 -3 16 -2 19 1 4 3 -2 6 -13 5 -11 0 -14 -3 -6 -6z"/>
<path d="M5690 1290 c-12 -8 -11 -10 7 -10 12 0 25 5 28 10 8 13 -15 13 -35 0z"/>
<path d="M5848 1283 c6 -2 18 -2 25 0 6 3 1 5 -13 5 -14 0 -19 -2 -12 -5z"/>
<path d="M4900 1255 c0 -8 7 -15 15 -15 9 0 12 6 9 15 -4 8 -10 15 -15 15 -5
0 -9 -7 -9 -15z"/>
<path d="M5630 1240 c0 -5 4 -10 9 -10 6 0 13 5 16 10 3 6 -1 10 -9 10 -9 0
-16 -4 -16 -10z"/>
<path d="M5730 1246 c0 -2 7 -7 16 -10 8 -3 12 -2 9 4 -6 10 -25 14 -25 6z"/>
<path d="M4820 1231 c-18 -5 -21 -9 -11 -15 8 -5 19 -2 29 8 9 9 14 16 12 15
-3 -1 -16 -4 -30 -8z"/>
<path d="M4872 1215 c-25 -18 -29 -35 -8 -35 17 0 39 26 34 40 -2 6 -12 4 -26
-5z"/>
<path d="M5516 1204 c-4 -11 -1 -14 11 -12 9 2 18 9 21 16 6 18 -25 15 -32 -4z"/>
<path d="M4655 1201 c-3 -5 -1 -12 5 -16 13 -8 50 3 50 16 0 12 -47 12 -55 0z"/>
<path d="M4906 1173 c-4 -15 -20 -54 -37 -85 -33 -64 -38 -88 -14 -68 8 7 15
18 15 25 0 16 53 31 58 16 7 -20 33 -12 64 19 17 17 28 33 25 36 -3 3 -15 -4
-26 -15 -15 -15 -31 -20 -56 -18 -31 2 -35 5 -30 22 4 11 7 27 7 35 0 8 4 20
9 25 4 6 4 17 0 24 -6 9 -10 4 -15 -16z"/>
<path d="M4989 1188 c-7 -25 -7 -48 1 -48 6 0 10 11 10 25 0 20 -7 35 -11 23z"/>
<path d="M4751 1154 c0 -11 3 -14 6 -6 3 7 2 16 -1 19 -3 4 -6 -2 -5 -13z"/>
<path d="M4937 1126 c-4 -10 -1 -13 9 -9 7 3 14 9 14 14 0 14 -17 10 -23 -5z"/>
<path d="M4840 1115 c-8 -9 -8 -15 -2 -15 12 0 26 19 19 26 -2 2 -10 -2 -17
-11z"/>
<path d="M5140 1121 c0 -12 28 -22 35 -12 3 5 -2 12 -11 15 -21 8 -24 8 -24
-3z"/>
<path d="M4721 1094 c0 -11 3 -14 6 -6 3 7 2 16 -1 19 -3 4 -6 -2 -5 -13z"/>
<path d="M4787 1103 c-4 -3 -7 -11 -7 -17 0 -6 5 -5 12 2 6 6 9 14 7 17 -3 3
-9 2 -12 -2z"/>
<path d="M5036 1094 c-4 -10 -1 -14 6 -12 15 5 23 28 10 28 -5 0 -13 -7 -16
-16z"/>
<path d="M4653 1069 c-18 -12 -33 -22 -33 -24 0 -9 82 3 93 14 10 11 8 12 -10
6 -18 -5 -22 -3 -17 9 8 20 6 20 -33 -5z"/>
<path d="M5075 1070 c-3 -5 -1 -10 4 -10 6 0 11 5 11 10 0 6 -2 10 -4 10 -3 0
-8 -4 -11 -10z"/>
<path d="M4755 1060 c-3 -5 -1 -10 4 -10 6 0 11 5 11 10 0 6 -2 10 -4 10 -3 0
-8 -4 -11 -10z"/>
<path d="M4781 1014 c0 -11 3 -14 6 -6 3 7 2 16 -1 19 -3 4 -6 -2 -5 -13z"/>
<path d="M5010 965 c0 -8 7 -15 15 -15 8 0 15 4 15 9 0 5 -7 11 -15 15 -9 3
-15 0 -15 -9z"/>
<path d="M4800 905 c0 -8 2 -15 4 -15 2 0 6 7 10 15 3 8 1 15 -4 15 -6 0 -10
-7 -10 -15z"/>
<path d="M4130 805 c0 -8 7 -15 15 -15 8 0 15 7 15 15 0 8 -7 15 -15 15 -8 0
-15 -7 -15 -15z"/>
<path d="M3878 3016 c-19 -14 -24 -36 -9 -36 5 0 16 11 25 25 18 27 11 32 -16
11z"/>
<path d="M5975 10 c-3 -5 -1 -10 4 -10 6 0 11 5 11 10 0 6 -2 10 -4 10 -3 0
-8 -4 -11 -10z"/>
</g>
</svg>
