<?xml version="1.0" standalone="no"?>
<!DOCTYPE svg PUBLIC "-//W3C//DTD SVG 20010904//EN"
 "http://www.w3.org/TR/2001/REC-SVG-20010904/DTD/svg10.dtd">
<svg version="1.0" xmlns="http://www.w3.org/2000/svg"
 width="1567.000000pt" height="1175.000000pt" viewBox="0 0 1567.000000 1175.000000"
 preserveAspectRatio="xMidYMid meet">

<g transform="translate(0.000000,1175.000000) scale(0.100000,-0.100000)"
fill="#000000" stroke="none">
<path d="M0 9430 l0 -2320 25 0 c14 0 25 4 25 8 0 8 122 8 136 0 5 -3 27 -9
49 -13 33 -6 36 -9 20 -15 -15 -6 -8 -9 30 -14 99 -13 150 -30 147 -49 -2 -10
7 -22 23 -29 14 -6 25 -15 25 -20 0 -4 7 -8 15 -8 8 0 15 -5 15 -12 0 -19 34
-87 44 -88 5 0 25 -17 44 -37 19 -21 39 -39 44 -39 4 -1 16 -2 26 -3 10 0 27
-9 38 -19 11 -10 32 -22 47 -26 15 -3 27 -11 27 -17 0 -16 26 -38 63 -54 18
-8 39 -20 45 -28 17 -21 29 -257 13 -257 -7 0 -19 -7 -27 -15 -9 -8 -28 -15
-44 -15 -16 0 -30 -4 -32 -9 -8 -24 -235 -6 -265 21 -10 9 -32 16 -50 16 -18
-1 -43 8 -58 21 -25 19 -40 21 -140 21 -108 0 -175 -12 -175 -31 0 -5 -13 -9
-28 -9 -15 0 -40 -6 -55 -12 l-27 -13 0 -252 c0 -251 5 -287 32 -228 11 24 23
29 59 26 10 -1 20 13 29 39 7 22 17 40 21 40 14 0 40 72 34 91 -4 13 5 25 32
43 31 22 49 26 107 26 38 0 93 -8 123 -17 l54 -17 52 57 c47 52 56 57 94 57
23 0 45 -4 48 -10 10 -16 38 -12 32 4 -7 18 28 10 63 -15 14 -9 43 -20 65 -24
22 -4 46 -11 53 -17 17 -15 15 -67 -3 -74 -31 -12 -13 -24 35 -24 l50 0 0 -46
c0 -38 5 -51 30 -74 16 -15 30 -35 30 -43 0 -21 41 -29 67 -12 12 8 31 15 43
15 11 0 20 6 20 13 0 6 9 26 20 42 l20 30 -6 -31 c-4 -23 -2 -33 10 -37 18 -7
66 11 66 25 0 11 72 -19 82 -35 5 -9 14 -9 40 1 29 10 34 9 55 -10 18 -17 26
-19 35 -10 16 16 28 15 28 -3 0 -16 26 -20 91 -16 29 2 41 -3 57 -23 22 -29
53 -34 72 -11 7 8 21 15 32 15 11 0 41 11 67 24 79 40 114 46 272 51 184 5
299 27 379 71 70 38 67 38 123 20 36 -11 58 -25 67 -41 14 -26 15 -26 97 -45
40 -9 58 -20 77 -45 29 -38 32 -64 12 -103 -7 -15 -13 -38 -11 -52 1 -20 10
-26 47 -36 25 -6 51 -15 57 -19 7 -3 22 0 35 9 19 12 36 13 87 6 35 -5 66 -7
68 -4 13 13 -6 224 -20 224 -4 0 -9 26 -12 58 -8 82 -15 114 -53 235 -35 109
-89 225 -111 240 -7 4 -13 17 -13 28 0 11 -7 30 -15 42 -17 27 -23 176 -7 186
5 3 15 35 21 71 20 110 23 125 32 135 4 6 8 20 9 30 4 116 19 191 40 210 11
10 20 24 20 32 0 7 7 16 15 19 8 4 15 15 15 25 0 10 7 19 15 19 8 0 15 3 15 8
0 11 61 74 94 97 64 45 91 83 132 185 10 25 21 47 24 50 3 3 10 16 16 30 6 14
28 47 49 75 21 27 56 81 77 120 22 38 59 101 82 139 36 58 42 74 36 97 -5 16
-6 59 -4 96 5 75 35 148 89 211 18 20 40 52 49 70 9 17 41 57 71 88 35 35 55
64 55 79 0 24 -28 85 -44 96 -20 15 -35 110 -25 159 16 75 9 132 -19 146 -32
16 -50 34 -34 34 7 0 12 7 12 16 0 13 5 15 28 8 24 -8 93 -9 176 -4 16 0 34 7
40 15 17 21 125 75 151 75 34 0 69 -15 97 -42 56 -54 78 -69 78 -52 0 8 14 20
30 25 17 6 30 18 30 26 0 8 4 11 10 8 6 -4 10 8 10 30 0 20 7 43 15 51 9 9 13
25 9 38 -4 16 0 25 11 30 9 3 14 10 11 15 -3 5 18 31 47 59 33 31 60 67 71 96
28 73 109 101 260 91 83 -6 95 -5 133 17 23 12 57 35 75 50 18 15 66 55 106
88 40 34 87 66 105 72 17 6 51 24 75 39 24 16 50 29 59 29 9 0 53 20 99 45 45
25 89 45 97 45 9 0 38 11 65 25 28 14 61 25 73 25 71 0 252 53 354 103 129 63
288 88 563 87 97 0 202 0 232 1 30 1 92 -3 138 -10 l82 -12 58 39 c115 77 165
85 447 73 55 -3 136 0 180 7 133 20 299 17 370 -8 46 -16 92 -22 197 -25 151
-5 218 -16 257 -44 14 -10 38 -21 52 -24 33 -8 173 -85 264 -145 38 -26 84
-54 103 -63 35 -18 171 -49 215 -49 31 0 114 -35 142 -59 12 -10 61 -25 120
-36 119 -22 241 -64 310 -107 52 -33 124 -104 125 -125 0 -6 25 -33 55 -58 30
-26 55 -56 55 -65 0 -25 58 -99 146 -185 71 -70 94 -88 226 -169 107 -66 122
-77 153 -117 45 -58 142 -157 214 -219 72 -62 93 -92 168 -240 30 -58 62 -114
72 -125 10 -11 40 -56 66 -100 27 -44 69 -104 94 -134 25 -29 70 -85 99 -125
29 -39 64 -84 77 -101 14 -16 25 -34 25 -39 0 -11 60 -79 60 -69 1 4 10 -9 21
-31 11 -21 29 -41 40 -43 10 -3 19 -9 19 -14 0 -6 16 -24 35 -42 19 -17 35
-38 35 -44 0 -7 7 -13 15 -13 9 0 19 -10 24 -22 5 -13 19 -33 30 -45 12 -12
21 -27 21 -33 0 -5 9 -10 19 -10 15 0 21 -10 26 -40 4 -22 11 -40 16 -40 5 0
9 -12 9 -27 0 -22 2 -25 10 -13 9 13 14 11 35 -13 19 -21 39 -31 78 -37 61
-10 171 -48 175 -61 2 -5 32 -9 67 -9 l63 0 16 40 c9 22 21 40 27 40 8 0 10
17 7 50 -3 28 -1 53 3 56 5 3 9 16 9 30 0 21 5 24 35 24 33 0 35 2 35 33 0 17
-6 52 -14 77 -7 25 -11 50 -9 56 2 7 -8 21 -22 32 -14 11 -25 23 -25 26 0 4
-18 31 -40 61 -22 30 -40 59 -40 66 0 6 -11 20 -25 31 -19 15 -25 29 -25 59 0
21 5 39 10 39 6 0 10 16 10 35 0 27 9 43 46 80 25 25 50 45 55 45 4 0 9 17 11
38 3 35 5 37 41 40 20 2 37 7 37 13 0 5 36 9 80 9 47 0 80 -4 80 -10 0 -5 9
-10 20 -10 11 0 48 -27 82 -60 100 -96 106 -100 144 -100 27 0 44 9 78 43 23
23 54 51 68 62 14 11 31 31 38 45 25 48 89 92 130 88 52 -4 80 3 80 20 0 18
-16 19 -236 25 -181 5 -243 10 -267 22 -16 8 -38 15 -48 15 -9 0 -35 18 -57
40 -21 22 -44 40 -50 40 -6 0 -20 21 -32 46 -21 49 -27 114 -10 114 6 0 10 33
10 80 0 53 4 80 11 80 8 0 10 18 6 60 -9 82 2 180 19 180 8 0 14 -7 14 -15 0
-11 11 -15 40 -15 l40 0 0 70 0 70 40 0 c22 0 40 -4 40 -9 0 -5 36 -12 80 -16
76 -7 80 -8 80 -31 0 -23 1 -24 92 -20 89 4 92 5 122 38 38 40 79 60 110 52
13 -3 27 -1 30 5 4 7 -1 11 -14 11 -12 0 -18 5 -15 10 3 6 31 10 61 10 30 0
98 5 150 12 72 9 97 9 106 0 7 -7 8 -12 2 -12 -5 0 -8 -18 -6 -40 l4 -40 90 0
c84 0 91 2 110 25 16 21 28 25 69 25 27 0 49 4 49 9 0 5 17 13 38 18 27 6 38
14 40 31 3 18 10 22 43 22 28 0 39 4 39 15 0 8 -7 15 -17 15 -14 0 -14 2 2 20
11 12 31 20 50 20 38 0 95 18 95 30 0 5 -12 11 -27 13 -20 3 -15 4 15 6 23 0
42 6 42 11 0 6 18 17 40 26 22 9 40 19 40 23 0 12 69 41 84 35 8 -3 27 10 46
35 39 48 92 71 164 71 53 0 77 11 89 42 4 10 7 10 15 0 7 -11 12 -6 21 19 13
37 14 60 4 58 -21 -3 -18 4 13 35 45 45 102 78 124 71 20 -6 71 13 83 32 15
24 88 55 114 49 13 -4 21 -11 18 -16 -4 -6 16 -10 49 -10 31 0 56 -4 56 -8 0
-12 70 -32 109 -32 18 0 51 -5 75 -11 43 -11 100 -5 234 22 48 10 62 17 62 30
0 14 12 19 58 24 31 3 64 7 72 8 13 2 15 35 18 220 l2 217 -22 1 c-13 1 -36 0
-51 -1 -20 -1 -34 5 -44 20 -8 12 -21 19 -29 16 -9 -4 -18 4 -24 19 -10 26
-24 32 -35 15 -10 -16 -28 -12 -21 5 3 9 -1 18 -9 21 -9 4 -15 19 -15 35 0 23
5 29 21 29 11 0 18 4 14 10 -3 5 -12 7 -20 3 -9 -3 -15 1 -15 11 0 9 5 16 10
16 6 0 10 7 10 15 0 8 -8 14 -17 13 -41 -3 -63 3 -63 17 0 8 -5 15 -11 15 -6
0 -24 14 -39 30 l-28 30 50 0 c65 0 61 24 -5 28 -45 3 -47 5 -47 33 0 27 2 29
40 29 l40 0 0 45 c0 39 3 45 20 45 38 0 90 28 100 55 5 14 17 28 25 31 8 4 15
17 15 30 0 14 6 24 14 24 7 0 33 18 56 40 23 22 51 40 61 40 18 0 19 15 19
360 l0 360 -7835 0 -7835 0 0 -2320z m13819 2061 c11 -19 69 -33 121 -30 58 5
196 4 210 -1 8 -3 21 -17 29 -33 7 -15 29 -44 48 -65 31 -33 34 -41 29 -82
-15 -140 -20 -170 -28 -170 -5 0 -16 -7 -24 -15 -8 -8 -21 -12 -29 -9 -9 4
-15 0 -15 -8 0 -15 -67 -44 -77 -34 -4 3 -14 -1 -24 -10 -10 -9 -27 -14 -39
-11 -11 3 -20 1 -20 -4 0 -12 -127 -11 -135 1 -3 6 -13 10 -20 10 -25 0 -126
50 -132 66 -3 7 -15 14 -27 14 -12 0 -34 17 -53 40 -31 36 -33 44 -33 115 0
48 5 81 13 89 6 7 41 45 77 85 50 55 71 71 92 71 17 0 31 -7 37 -19z m1059
-145 c28 -8 72 -28 97 -45 25 -17 48 -31 51 -31 2 0 18 -15 34 -32 33 -37 80
-154 80 -199 0 -16 5 -29 12 -29 6 0 8 -3 5 -7 -4 -3 0 -11 9 -17 10 -7 19
-41 26 -90 9 -70 8 -80 -6 -88 -9 -5 -46 -38 -82 -74 l-65 -64 -134 0 c-78 0
-136 4 -140 10 -3 6 3 10 15 10 12 0 18 5 15 10 -3 6 -25 10 -48 10 -31 0 -48
6 -60 21 -14 15 -25 19 -46 14 -23 -5 -33 -1 -49 19 -11 15 -28 26 -37 26 -10
0 -24 8 -31 18 -7 9 -16 17 -21 18 -17 1 -63 27 -63 36 0 4 -9 8 -20 8 -11 0
-20 -4 -20 -10 0 -20 -21 -10 -30 15 -5 13 -18 30 -30 37 -11 7 -20 17 -20 21
0 5 -10 23 -22 40 -26 37 -28 51 -11 95 16 42 31 56 73 71 21 7 46 27 63 51
16 22 34 40 42 40 7 0 17 9 20 20 3 11 11 20 16 20 6 0 20 11 33 24 51 56 227
82 344 52z m-1325 -220 c-1 -17 -11 -39 -23 -50 l-20 -20 -22 23 c-15 15 -19
25 -12 28 7 2 10 12 7 23 -5 19 15 29 52 27 16 -2 20 -8 18 -31z m0 -76 c-3
-11 -12 -20 -19 -20 -17 0 -18 7 -1 25 17 20 26 18 20 -5z m-12113 -190 c0 -6
33 -10 79 -10 44 0 83 5 86 10 8 13 100 13 123 0 33 -19 107 -43 150 -47 23
-3 42 -9 42 -14 0 -15 123 -10 144 6 11 8 36 15 56 15 20 0 45 -7 56 -15 10
-8 34 -15 52 -15 39 0 88 -40 79 -64 -5 -12 0 -16 18 -16 14 0 25 -4 25 -10 0
-16 57 -40 95 -40 30 0 35 -3 35 -24 0 -19 11 -31 50 -52 31 -17 46 -30 39
-35 -7 -4 14 -16 49 -29 34 -13 67 -29 73 -36 7 -9 32 -14 63 -14 52 0 52 0
74 -45 44 -91 16 -155 -69 -155 -20 0 -60 -5 -88 -12 -38 -8 -57 -9 -73 0 -13
6 -32 13 -43 15 -11 2 -19 9 -18 15 4 17 -38 62 -57 62 -16 0 -40 18 -40 31 0
4 10 10 23 12 12 2 3 5 -20 6 -24 0 -43 -3 -43 -9 0 -17 -28 1 -33 22 -6 20
-11 21 -99 15 -51 -3 -115 -2 -143 1 -27 4 -58 6 -67 4 -22 -4 -24 -30 -3 -38
18 -7 21 -84 4 -84 -8 0 -10 -17 -6 -55 8 -82 -7 -121 -72 -185 -57 -56 -80
-67 -190 -89 -42 -9 -61 -8 -83 1 -15 7 -28 16 -28 20 0 4 -18 11 -40 14 -22
4 -40 10 -40 15 0 4 -19 9 -42 11 l-43 3 3 53 c3 38 0 52 -10 52 -15 1 -58 64
-58 85 0 8 -4 17 -10 20 -5 3 -10 17 -10 31 0 13 -5 24 -11 24 -13 0 -45 72
-54 123 -4 20 -11 37 -15 37 -5 0 -11 18 -15 40 -4 22 -18 56 -31 75 -31 47
-34 122 -4 148 11 9 20 23 20 31 0 23 43 64 70 68 17 2 24 8 22 21 -2 10 3 17
13 17 8 0 15 -4 15 -10z m660 -634 c0 -3 -4 -8 -10 -11 -5 -3 -10 -1 -10 4 0
6 5 11 10 11 6 0 10 -2 10 -4z m140 -736 c0 -5 7 -10 16 -10 8 0 12 -4 9 -10
-3 -5 4 -11 17 -12 13 0 30 -1 38 -2 11 -1 16 -16 18 -55 3 -51 2 -54 -39 -92
-24 -22 -53 -39 -65 -39 -13 0 -35 -12 -49 -26 -24 -24 -32 -26 -82 -21 -61 6
-83 1 -83 -19 0 -8 -4 -14 -10 -14 -6 0 -10 28 -10 64 0 36 5 68 10 71 18 11
10 25 -15 25 -26 0 -33 14 -14 25 5 4 14 18 19 31 5 13 16 24 24 24 7 0 16 7
20 15 3 8 12 15 21 15 8 0 15 4 15 9 0 13 60 29 113 30 26 1 47 -3 47 -9z
m1359 -33 c27 -2 42 -27 17 -27 -9 0 -16 -4 -16 -10 0 -5 -18 -10 -40 -10 -22
0 -40 -4 -40 -9 0 -5 -16 -12 -36 -15 -19 -4 -38 -14 -41 -22 -3 -7 -16 -14
-28 -14 -15 0 -26 -8 -30 -20 -3 -11 -10 -20 -15 -20 -5 0 -10 -8 -13 -17 -4
-16 -5 -16 -12 1 -6 13 -4 21 3 24 8 2 12 29 12 73 0 38 2 69 4 69 2 0 23 -7
46 -15 36 -13 44 -13 54 -1 16 20 37 26 76 20 19 -2 46 -5 59 -7z m-1619 -177
c0 -5 -2 -10 -4 -10 -3 0 -8 5 -11 10 -3 6 -1 10 4 10 6 0 11 -4 11 -10z m-94
-1621 c3 -6 17 -8 30 -5 16 4 49 -4 94 -23 39 -16 70 -25 70 -20 0 5 5 9 11 9
5 0 7 -5 3 -12 -4 -7 -3 -8 4 -4 12 7 52 -12 65 -31 4 -7 14 -13 21 -13 19 0
40 -27 25 -32 -8 -3 -3 -21 15 -56 21 -41 26 -65 26 -124 0 -87 -7 -118 -27
-118 -7 0 -22 -14 -31 -30 -9 -17 -23 -28 -30 -25 -7 3 -11 1 -8 -4 6 -10 -47
-35 -73 -34 -9 0 -24 -6 -33 -15 -10 -8 -24 -12 -33 -9 -8 4 -25 -4 -38 -17
-17 -17 -40 -25 -83 -30 -32 -4 -69 -14 -81 -22 -12 -8 -35 -14 -50 -14 -15 0
-36 -7 -46 -15 -11 -7 -37 -17 -58 -20 -22 -4 -45 -12 -52 -19 -21 -21 -58
-26 -233 -27 -112 0 -170 3 -172 10 -2 6 -9 11 -16 11 -28 0 -116 32 -111 40
3 4 -5 17 -19 27 -38 30 -59 82 -64 161 -4 62 -2 72 12 72 9 0 16 7 16 15 0
18 64 85 80 85 6 0 13 7 17 16 11 31 78 83 121 96 23 7 42 16 42 20 0 4 14 8
30 8 17 0 38 4 48 9 9 5 31 15 47 22 17 8 32 16 35 19 3 3 30 12 60 19 30 8
60 17 65 21 18 13 107 40 116 35 9 -6 100 15 114 27 14 12 83 10 91 -3z m-826
-639 c0 -5 -2 -10 -4 -10 -3 0 -8 5 -11 10 -3 6 -1 10 4 10 6 0 11 -4 11 -10z
m-180 -700 c0 -5 -4 -10 -10 -10 -5 0 -10 5 -10 10 0 6 5 10 10 10 6 0 10 -4
10 -10z"/>
<path d="M2012 9375 c-7 -8 -9 -15 -4 -15 5 0 15 7 22 15 16 19 -1 19 -18 0z"/>
<path d="M2226 7291 c-4 -7 -5 -15 -2 -18 9 -9 19 4 14 18 -4 11 -6 11 -12 0z"/>
<path d="M8553 9373 c-52 -5 -133 -71 -133 -109 0 -28 16 -31 49 -8 18 13 28
14 46 6 l24 -11 -30 -60 c-17 -33 -38 -62 -47 -65 -9 -3 -26 -19 -37 -35 -11
-17 -22 -26 -25 -20 -4 5 -15 1 -25 -11 -25 -27 -38 -25 -31 5 9 37 -17 32
-31 -6 -9 -24 -16 -29 -31 -25 -15 5 -21 1 -25 -16 -10 -37 -32 -5 -28 42 1
22 -2 40 -7 40 -13 0 -26 -73 -17 -99 5 -15 1 -19 -20 -17 -21 1 -25 6 -25 34
0 38 -15 35 -25 -5 -4 -19 -2 -29 9 -35 9 -5 16 -19 16 -31 0 -32 26 -101 39
-105 19 -6 12 -22 -9 -22 -20 0 -25 -17 -20 -82 1 -18 -4 -28 -17 -31 -14 -4
-13 -5 5 -6 26 -1 28 -13 5 -47 -15 -24 -15 -25 5 -31 23 -6 29 -27 12 -38
-15 -9 -12 -25 5 -25 8 0 15 -7 15 -16 0 -9 14 -21 30 -27 35 -13 36 -19 13
-43 -16 -16 -16 -16 6 -9 20 6 22 4 16 -15 -5 -17 -2 -23 14 -27 12 -3 21 -12
21 -19 0 -8 5 -14 10 -14 6 0 10 -11 10 -25 0 -17 8 -29 25 -37 19 -9 22 -14
13 -25 -12 -15 -13 -15 25 -31 27 -12 38 -42 15 -42 -7 0 -1 -11 13 -23 14
-13 24 -28 21 -35 -2 -7 1 -12 7 -12 7 0 16 -11 21 -24 10 -27 81 -58 88 -37
5 14 49 15 57 1 3 -5 15 -10 26 -10 15 0 19 7 19 31 0 20 4 29 13 26 7 -2 11
-18 9 -42 -3 -28 0 -36 10 -33 7 3 14 16 15 29 0 13 1 28 2 33 1 5 8 3 16 -4
9 -7 14 -19 11 -26 -8 -22 45 -51 102 -56 49 -5 53 -4 49 14 -4 15 -1 18 16
12 12 -3 34 -18 50 -32 15 -14 27 -21 27 -15 0 6 -7 16 -15 23 -13 11 -12 15
9 31 29 23 52 24 63 4 8 -13 12 -13 27 -2 16 11 25 11 55 1 50 -18 75 -17 95
4 9 11 34 25 56 32 26 9 42 21 49 39 18 48 56 84 80 76 11 -3 21 -11 21 -16 0
-22 26 -6 38 24 30 73 51 103 86 120 20 10 36 24 36 30 1 7 2 34 4 61 4 44 1
52 -28 81 -17 18 -49 44 -71 58 -28 18 -50 45 -70 84 -17 35 -57 86 -100 128
-71 70 -183 145 -215 145 -10 0 -34 11 -55 25 -20 14 -60 30 -88 36 -28 5 -58
16 -68 25 -12 11 -34 15 -71 14 -29 -2 -60 0 -68 3 -8 4 -33 8 -55 9 -39 3
-40 4 -40 43 0 22 -4 48 -9 57 -5 10 -1 31 10 53 23 49 10 71 -39 67 -46 -4
-53 10 -22 46 24 29 33 54 18 50 -5 -1 -27 -3 -50 -5z m-286 -495 c-3 -20 -4
-21 -11 -5 -5 9 -5 29 0 45 7 25 8 26 11 5 3 -13 3 -33 0 -45z"/>
<path d="M5710 9191 c0 -7 63 -41 77 -41 3 0 0 6 -6 14 -14 17 -71 39 -71 27z"/>
<path d="M5652 9133 c2 -11 12 -18 26 -17 17 1 22 -4 22 -22 0 -30 35 -33 50
-4 8 15 8 20 -3 20 -7 0 -30 9 -52 20 -48 24 -47 24 -43 3z"/>
<path d="M5787 9094 c-13 -13 -7 -24 14 -24 11 0 19 5 17 12 -5 14 -22 21 -31
12z"/>
<path d="M5575 9039 c-4 -6 2 -20 13 -32 12 -12 28 -39 37 -60 15 -37 15 -37
-11 -47 -21 -8 -25 -15 -20 -35 8 -31 -1 -36 -47 -25 -32 7 -39 5 -48 -11 -5
-10 -18 -19 -27 -19 -10 0 -22 -4 -27 -9 -6 -6 -46 -29 -90 -51 -157 -83 -272
-179 -305 -255 -10 -22 -28 -49 -40 -60 -13 -11 -34 -44 -47 -74 -13 -30 -41
-73 -62 -97 -72 -82 -90 -144 -41 -144 36 0 62 -19 55 -40 -4 -13 3 -32 20
-54 14 -19 25 -40 24 -48 -8 -62 38 -108 111 -108 29 0 40 -5 45 -19 5 -17 9
-18 35 -8 26 10 32 8 52 -12 24 -26 24 -26 42 32 3 9 12 17 21 17 17 0 20 -31
4 -47 -8 -8 -7 -13 2 -18 7 -5 19 0 29 12 21 27 89 47 106 32 9 -7 16 -5 24
10 8 15 21 21 48 21 20 0 56 9 80 20 23 10 59 22 79 26 30 6 34 9 21 18 -14
10 -11 15 18 34 19 12 38 22 44 22 13 0 13 -17 0 -25 -27 -17 -2 -24 73 -19
138 8 142 8 145 32 2 12 10 22 17 22 16 0 38 34 28 43 -3 4 -1 12 4 19 5 7 16
34 23 61 7 26 17 47 22 47 5 0 8 8 6 18 -3 17 21 52 73 109 12 13 16 24 10 28
-13 8 9 45 26 45 16 0 17 17 2 22 -16 5 -1 48 17 48 16 0 18 12 4 26 -5 5 -6
22 -1 39 7 26 4 32 -20 47 -23 14 -27 23 -27 65 -1 26 -8 65 -16 85 -12 27
-13 44 -6 63 19 50 -49 135 -106 135 -10 0 -13 -6 -9 -19 8 -25 -14 -40 -52
-34 -23 4 -55 28 -113 84 -44 44 -92 84 -106 89 -34 13 -131 13 -139 -1z m343
-911 c-7 -19 -38 -22 -38 -4 0 10 9 16 21 16 12 0 19 -5 17 -12z"/>
<path d="M9735 8911 c2 -26 11 -61 21 -77 9 -16 32 -52 51 -81 18 -28 33 -56
33 -61 0 -17 107 -125 118 -118 5 3 12 20 14 37 5 32 -39 125 -105 222 -23 34
-118 127 -130 127 -2 0 -3 -22 -2 -49z"/>
<path d="M4623 8478 c-24 -25 -30 -62 -13 -73 12 -7 43 59 38 82 -2 11 -8 9
-25 -9z"/>
<path d="M9991 8448 c-1 -16 4 -28 9 -28 12 0 12 8 0 35 -8 18 -9 17 -9 -7z"/>
<path d="M4475 8189 c-81 -121 -97 -157 -111 -251 -7 -49 -17 -100 -21 -111
-4 -12 -8 -78 -8 -147 0 -76 -7 -158 -18 -210 -9 -47 -24 -132 -33 -190 -8
-58 -26 -138 -40 -178 -33 -101 -33 -183 2 -229 29 -38 28 -64 -3 -78 -20 -8
-22 -17 -25 -122 -2 -65 -8 -117 -14 -121 -5 -4 -20 -38 -32 -75 -19 -58 -21
-75 -12 -110 23 -88 39 -113 56 -86 5 8 9 8 14 -1 9 -14 1 -50 -11 -50 -4 0
-8 -8 -8 -17 0 -10 -3 -48 -7 -85 -4 -36 -4 -82 0 -102 6 -31 11 -36 34 -36
15 0 36 7 46 15 26 19 42 19 26 0 -9 -10 -9 -15 -1 -15 13 0 14 -24 2 -48 -41
-79 -46 -106 -44 -237 1 -71 2 -188 3 -260 0 -171 23 -385 51 -471 13 -42 38
-91 64 -124 63 -82 87 -136 93 -210 6 -73 20 -114 54 -150 37 -40 46 -69 53
-165 4 -49 11 -92 16 -96 5 -3 12 -22 16 -42 8 -49 -9 -48 -65 3 -35 32 -48
53 -64 107 -27 91 -63 159 -93 179 -38 25 -101 86 -114 111 -14 28 -41 21 -63
-17 -10 -18 -23 -27 -35 -26 -10 2 -20 0 -23 -3 -9 -11 -81 -41 -98 -41 -26 0
-62 -29 -62 -50 0 -10 -8 -21 -17 -25 -34 -11 -91 -98 -98 -148 -7 -47 -6 -49
34 -87 44 -42 67 -48 102 -27 18 10 23 9 26 -1 3 -8 17 -26 33 -42 15 -15 30
-34 33 -43 6 -16 -28 -51 -59 -61 -11 -3 -35 -19 -54 -36 -19 -16 -39 -30 -43
-30 -5 0 -7 -12 -5 -27 l3 -28 92 0 c50 0 95 -3 99 -8 4 -4 7 -37 6 -73 -1
-36 2 -63 7 -60 5 3 16 -5 24 -18 14 -20 24 -24 67 -23 62 1 89 -21 97 -82 5
-34 9 -41 28 -41 26 0 50 -39 41 -68 -4 -11 -18 -28 -32 -37 -25 -16 -27 -16
-49 5 -18 17 -31 21 -52 17 -15 -4 -44 -9 -63 -13 -47 -9 -79 -33 -115 -88
-16 -25 -40 -50 -53 -55 -22 -11 -66 -6 -87 9 -24 17 -64 20 -79 4 -19 -19
-20 -26 -2 -67 14 -34 68 -87 89 -87 7 0 32 -14 57 -30 59 -40 237 -96 379
-119 l114 -20 92 38 c86 35 97 44 189 138 131 135 159 146 219 93 43 -37 54
-66 61 -155 11 -143 24 -221 44 -271 30 -74 42 -182 42 -372 1 -228 13 -341
55 -517 19 -82 43 -181 51 -220 20 -86 39 -141 64 -176 23 -31 65 -147 75
-202 10 -60 111 -262 140 -281 14 -9 40 -19 58 -22 43 -8 107 -52 118 -82 5
-13 9 -36 9 -52 0 -16 13 -54 29 -83 16 -29 31 -71 35 -93 9 -61 23 -113 34
-127 5 -7 12 -24 16 -39 3 -15 12 -33 19 -40 27 -29 59 -81 78 -125 26 -62 51
-84 129 -118 72 -32 145 -78 175 -110 42 -47 132 -111 175 -127 149 -53 177
-59 307 -61 103 -2 134 -5 156 -20 25 -16 83 -17 869 -16 l843 0 57 37 c31 20
77 55 103 77 65 55 109 55 164 1 24 -23 46 -36 57 -34 17 3 19 14 19 83 1 79
19 152 52 203 17 27 70 52 111 52 27 0 62 26 62 46 0 5 34 44 76 86 54 55 89
82 122 94 26 9 70 27 97 41 45 21 56 23 95 14 75 -18 107 -14 122 13 45 83 88
172 88 183 0 7 17 43 37 80 28 51 39 85 43 134 6 59 11 70 41 97 19 17 39 32
45 32 18 0 51 42 74 95 12 28 36 79 54 115 18 36 39 84 45 105 7 22 16 49 21
60 5 11 21 52 35 90 15 39 35 88 46 110 10 22 26 74 35 115 9 41 29 106 45
145 16 38 36 103 44 144 40 192 65 346 65 403 0 35 5 94 10 131 9 60 7 78 -10
135 -11 37 -25 98 -31 137 -12 90 -16 102 -36 109 -11 4 -26 -5 -44 -26 -21
-25 -28 -29 -29 -15 0 9 -5 17 -10 17 -13 0 -12 77 3 177 l11 73 44 21 c37 18
55 21 113 16 134 -11 318 21 375 65 l27 22 -34 28 c-19 16 -45 28 -62 28 -18
0 -45 13 -70 33 -48 39 -69 51 -190 106 -96 45 -110 63 -108 136 1 34 8 47 52
88 43 41 55 48 77 42 15 -3 32 -13 39 -21 6 -9 20 -14 30 -12 15 3 18 14 19
58 2 73 9 89 56 130 34 31 39 41 40 81 0 25 -5 55 -11 67 -15 28 -7 112 14
152 14 28 20 31 48 25 18 -4 49 -18 70 -32 22 -13 54 -27 72 -30 27 -4 33 -2
38 17 6 23 -12 81 -41 135 -19 36 -42 61 -42 46 0 -6 -13 0 -29 15 -28 25 -37
48 -47 129 -9 61 -51 145 -72 142 -36 -6 -42 -18 -42 -87 0 -37 -3 -75 -6 -84
-7 -18 -44 -22 -44 -5 0 6 -7 8 -16 5 -18 -7 -48 7 -83 40 -14 13 -36 24 -48
24 -28 0 -61 -42 -68 -89 -4 -20 -11 -57 -16 -83 -8 -36 -7 -65 5 -125 14 -68
26 -159 43 -325 4 -39 2 -48 -11 -48 -9 0 -16 -7 -16 -15 0 -20 -39 -19 -69 1
-16 12 -37 15 -72 12 -28 -3 -56 0 -65 6 -23 17 -36 89 -23 123 6 16 12 93 13
173 1 95 5 152 13 165 16 25 43 188 43 253 0 57 43 205 89 311 18 41 37 97 41
125 4 28 17 95 29 150 13 63 21 134 21 200 0 55 4 128 10 161 5 33 12 108 15
167 2 58 9 118 15 133 18 48 12 126 -15 180 -13 28 -24 57 -25 65 0 28 21 91
29 85 5 -2 16 4 25 14 12 13 17 40 18 100 2 78 1 82 -29 114 -24 24 -34 48
-43 97 -7 36 -21 89 -31 119 -12 33 -16 58 -10 65 5 6 11 42 13 79 2 38 9 71
15 75 10 6 22 103 23 187 0 16 -13 57 -30 91 -16 34 -34 83 -39 110 -5 27 -15
63 -22 79 -6 17 -15 66 -20 110 -14 132 -25 177 -58 243 -17 34 -31 73 -31 85
0 12 -16 39 -37 60 -41 43 -63 80 -63 108 0 10 -13 25 -30 34 -28 15 -30 14
-35 -7 -8 -32 31 -285 54 -355 11 -32 25 -85 31 -118 11 -58 48 -182 76 -258
8 -20 17 -81 20 -136 6 -92 5 -103 -25 -192 -23 -67 -41 -101 -62 -120 -36
-32 -74 -125 -83 -204 -4 -33 -13 -69 -21 -81 -7 -12 -18 -43 -23 -70 -14 -74
-70 -284 -86 -324 -8 -19 -17 -47 -20 -62 -3 -15 -12 -33 -19 -40 -29 -29 -87
-130 -87 -152 0 -13 -13 -37 -30 -54 -47 -50 -49 -75 -16 -191 17 -59 15 -71
-9 -51 -25 21 -45 4 -45 -39 0 -44 -29 -119 -54 -140 -19 -16 -76 -98 -76
-109 0 -4 -21 -25 -46 -46 -39 -33 -49 -37 -65 -28 -10 7 -25 12 -33 12 -22 0
-29 18 -32 75 -2 30 3 59 12 72 7 12 11 29 8 37 -4 10 2 15 17 18 19 2 23 9
23 43 1 38 3 40 34 43 37 4 40 12 12 37 -26 24 -26 65 0 72 19 5 18 6 -5 41
-30 44 -32 73 -7 95 17 16 20 15 42 -8 28 -29 56 -34 44 -7 -4 9 -7 27 -7 39
1 13 -3 21 -7 18 -4 -3 -22 11 -39 31 -22 25 -29 39 -22 48 16 19 -16 71 -90
143 -77 76 -107 97 -90 64 10 -18 9 -20 -6 -14 -16 6 -16 4 1 -15 14 -17 16
-22 5 -22 -8 0 -21 -5 -29 -10 -13 -9 -13 -11 0 -20 13 -8 12 -10 -4 -10 -15
0 -16 -3 -6 -15 10 -13 9 -15 -11 -15 -18 0 -20 -3 -10 -9 11 -7 10 -11 -5
-20 -17 -9 -17 -10 -1 -11 9 0 17 -4 17 -10 0 -5 -8 -10 -17 -10 -13 0 -14 -3
-5 -12 8 -8 7 -15 -9 -29 -19 -17 -19 -17 20 -46 46 -34 125 -106 137 -125 9
-14 -20 7 -89 65 -47 39 -103 58 -93 31 4 -10 -3 -14 -22 -14 -21 0 -24 -2
-12 -10 10 -6 11 -10 3 -10 -7 0 -13 -4 -13 -10 0 -5 10 -10 22 -10 l21 0 -22
-19 c-28 -25 -26 -28 85 -144 44 -45 83 -89 88 -97 4 -8 -22 17 -58 55 -66 70
-86 81 -42 22 13 -18 31 -45 41 -62 l17 -30 -20 25 c-11 14 -42 54 -69 89 -26
36 -53 66 -59 68 -7 2 -24 -7 -39 -22 -18 -15 -23 -25 -14 -26 8 0 4 -5 -8
-11 l-22 -11 30 -44 c17 -24 58 -74 92 -111 44 -48 48 -55 15 -23 -26 24 -68
70 -95 102 -26 32 -54 59 -60 59 -16 0 -17 -12 -1 -28 9 -9 7 -12 -11 -12 -12
0 -20 -4 -17 -9 4 -5 1 -11 -6 -13 -7 -3 5 -20 28 -42 l39 -37 -39 26 c-21 14
-42 25 -45 25 -3 0 -12 -12 -18 -27 -11 -23 -9 -32 23 -85 32 -53 88 -178 79
-178 -2 0 -25 39 -51 88 -26 48 -55 100 -64 116 l-18 29 -32 -44 c-17 -24 -38
-43 -46 -41 -18 4 -17 0 1 -46 l15 -37 -21 25 c-14 17 -22 21 -26 12 -2 -6
-10 -9 -15 -6 -8 5 -9 -5 -5 -30 3 -22 2 -34 -4 -31 -5 4 -9 15 -9 25 0 10 -4
22 -10 25 -5 3 -10 1 -10 -4 0 -6 -9 -11 -19 -11 -11 0 -23 -5 -27 -11 -3 -6
-17 -9 -30 -6 -13 2 -21 0 -18 -4 10 -18 -7 -29 -26 -19 -15 8 -18 7 -14 -4 4
-11 -3 -12 -41 -5 -26 5 -51 7 -55 4 -11 -7 -40 23 -40 41 0 17 -16 19 -23 2
-3 -7 -6 0 -6 16 -1 21 -5 27 -17 22 -9 -3 -18 -6 -20 -6 -2 0 -4 -7 -4 -17 0
-22 -10 -11 -15 17 -3 17 -1 20 12 16 13 -5 14 -4 3 9 -7 8 -16 13 -20 10 -4
-3 -18 10 -30 28 -16 23 -20 26 -15 10 4 -13 2 -23 -3 -23 -10 0 -30 45 -31
70 -2 38 -14 80 -27 91 -17 14 -19 -2 -2 -19 9 -9 9 -12 -1 -12 -7 0 -9 -4 -6
-10 3 -5 1 -10 -4 -10 -6 0 -11 9 -11 19 0 11 -3 21 -7 23 -5 2 -21 18 -36 37
-20 24 -27 41 -23 57 5 17 -1 28 -24 44 -33 23 -40 43 -13 33 11 -4 2 12 -21
40 -21 26 -40 47 -43 47 -7 0 8 -22 30 -47 33 -37 11 -38 -23 -1 -18 19 -27
24 -22 13 7 -14 6 -24 -3 -32 -11 -10 -21 3 -55 71 -22 47 -47 90 -55 96 -8 7
-15 18 -15 25 0 8 -12 23 -27 35 -16 11 -39 30 -53 42 l-25 20 28 -16 c26 -16
35 -11 20 10 -5 6 6 -5 22 -24 17 -19 51 -58 76 -86 49 -54 76 -96 61 -96 -5
0 -14 12 -21 26 -6 15 -14 24 -17 21 -3 -3 4 -24 17 -46 l22 -40 14 25 c11 23
10 29 -7 51 -28 36 -25 51 5 23 25 -24 35 -16 13 10 -11 12 -10 12 5 1 9 -8
23 -25 30 -39 14 -29 34 -40 34 -18 0 8 -5 14 -11 13 -6 -1 -10 4 -8 11 2 14
-54 78 -165 189 -71 70 -84 101 -23 52 22 -18 37 -35 35 -40 -3 -4 11 -17 30
-29 20 -12 34 -25 31 -27 -9 -9 51 -66 64 -61 12 4 -34 67 -92 126 -13 12 -19
22 -14 22 5 0 -1 12 -15 27 -26 29 -8 22 30 -11 l25 -21 -22 32 c-12 17 -36
43 -53 57 -35 30 -31 32 30 10 24 -8 45 -13 48 -11 2 2 -15 21 -37 41 -22 20
-35 36 -28 36 6 0 3 9 -8 21 -12 14 2 8 41 -16 40 -25 54 -31 41 -17 -10 12
-40 36 -67 52 -26 17 -50 37 -53 45 -3 8 -11 15 -19 15 -16 0 -57 41 -57 57 0
6 -3 13 -7 15 -5 2 -21 19 -38 39 -16 19 -1 6 35 -31 36 -36 76 -71 90 -77 14
-6 36 -15 50 -21 14 -6 41 -21 60 -34 28 -18 32 -19 20 -4 -8 10 -38 32 -67
48 -29 16 -53 31 -53 33 0 2 10 1 23 -1 12 -2 16 -2 9 2 -6 3 -10 9 -7 13 2 4
-14 25 -36 46 -22 21 -38 44 -35 51 3 7 -7 20 -20 29 -14 9 -23 19 -20 23 3 3
16 -3 29 -14 34 -31 108 -76 114 -70 3 2 -16 25 -42 50 -26 25 -42 46 -37 46
6 0 14 -5 17 -10 3 -6 20 -17 36 -26 30 -15 30 -15 19 5 -6 12 -14 21 -18 21
-4 1 -27 19 -52 41 -25 23 -34 34 -20 26 14 -8 36 -14 50 -12 14 1 28 -3 32
-9 6 -8 8 -7 8 1 0 17 -20 27 -55 28 -42 2 -82 24 -64 36 10 6 7 10 -11 18
-29 11 -110 84 -110 98 0 6 19 -7 42 -29 23 -21 47 -38 55 -38 7 0 13 -4 13
-9 0 -4 18 -21 41 -36 45 -29 96 -44 83 -24 -5 9 -2 10 10 6 10 -4 21 -7 24
-7 4 0 1 -4 -5 -8 -9 -6 -2 -18 24 -43 20 -19 31 -26 24 -16 -7 9 -10 17 -5
17 5 0 -2 7 -14 16 -12 8 -20 19 -17 24 3 5 -6 17 -20 26 -14 9 -23 19 -20 22
2 3 0 11 -6 19 -23 27 8 12 37 -18 16 -17 38 -35 49 -40 11 -6 -4 13 -34 41
-31 30 -57 47 -60 41 -5 -7 -17 -5 -36 5 -15 8 -32 13 -37 12 -9 -3 30 -46 67
-73 13 -9 15 -14 6 -15 -7 0 -38 25 -67 56 -41 42 -60 55 -75 51 -13 -4 -22 0
-26 11 -4 9 -18 33 -32 52 l-25 35 35 -32 c37 -34 61 -45 38 -16 -13 15 -12
15 18 0 44 -23 60 -22 38 3 -18 20 -18 21 1 14 37 -14 73 -45 68 -58 -7 -18
14 -32 27 -19 23 23 -86 105 -123 95 -13 -3 -9 16 5 21 9 3 9 7 -1 19 -10 13
-9 15 13 10 14 -2 28 -8 31 -13 3 -5 10 -9 16 -9 6 0 2 10 -9 23 -24 25 -39
67 -25 67 5 0 22 -16 36 -35 15 -19 32 -35 38 -35 6 0 1 11 -12 25 -13 14 -20
25 -16 25 5 0 3 7 -4 15 -8 9 -8 15 -2 15 6 0 9 11 6 26 -4 22 -2 25 17 19 15
-5 19 -4 14 5 -6 9 -3 9 14 1 30 -16 27 4 -3 24 -13 9 -27 23 -30 31 -4 11 4
9 34 -6 55 -28 66 -25 28 8 l-31 29 27 7 c27 7 28 8 11 26 -17 19 -17 20 0 20
14 0 15 3 5 15 -9 11 -9 15 -1 15 6 0 14 -7 17 -15 8 -21 26 -19 20 3 -2 9 -7
28 -11 42 -6 25 -6 25 11 5 16 -19 16 -19 11 17 -4 27 -2 38 10 42 8 4 13 12
10 20 -3 7 -1 18 3 22 10 10 11 35 8 115 -1 25 1 50 5 55 9 15 -52 157 -76
176 -12 10 -30 15 -39 12 -10 -3 -18 -1 -18 5 0 5 8 12 18 14 11 3 7 7 -15 12
-18 4 -33 13 -33 21 0 7 -9 19 -20 27 -10 7 -47 39 -80 70 -33 31 -64 57 -68
57 -4 0 -23 14 -42 30 -19 16 -44 30 -55 30 -17 0 -17 2 -5 10 12 8 10 10 -10
11 -14 1 -28 1 -32 0 -5 0 -8 6 -8 14 0 9 -8 14 -22 12 -14 -1 -22 3 -20 11 2
10 -58 19 -92 13 -5 -1 -6 5 -3 13 4 10 -4 16 -29 20 -19 4 -34 12 -34 19 0 9
-2 9 -8 0 -5 -8 -26 -11 -57 -9 -28 3 -59 5 -69 5 -20 1 -20 1 0 16 13 10 15
14 5 15 -8 0 -23 -8 -34 -17 -19 -17 -20 -17 -14 0 7 19 -9 24 -16 5 -4 -9 -8
-10 -14 -3 -9 11 -197 14 -208 3 -3 -3 -21 -4 -38 -2 -25 3 -27 2 -12 -5 11
-5 30 -7 42 -6 12 1 20 -2 17 -7 -7 -12 -87 1 -95 15 -4 6 -18 2 -36 -11 -21
-15 -33 -18 -46 -11 -11 7 -24 6 -38 -2 -12 -6 -32 -9 -45 -6 -13 2 -24 1 -24
-3 0 -3 -29 -12 -65 -19 -36 -7 -65 -17 -65 -21 0 -4 -7 -11 -16 -14 -8 -3
-12 -2 -9 4 10 16 -8 11 -35 -10 -14 -11 -30 -20 -36 -20 -7 0 -14 -7 -18 -15
-3 -8 -13 -15 -23 -15 -26 -1 -56 -27 -48 -40 5 -9 1 -10 -12 -6 -14 5 -30 -2
-53 -24 -18 -16 -38 -30 -44 -30 -7 0 -43 -30 -81 -67 -59 -59 -89 -96 -130
-162 -5 -9 -15 -19 -22 -24 -7 -4 -9 -15 -6 -24 4 -11 3 -14 -5 -9 -8 5 -10 2
-6 -8 4 -10 1 -16 -10 -16 -10 0 -21 -18 -31 -52 -19 -63 -12 -244 11 -292 8
-16 14 -35 14 -43 0 -7 9 -22 21 -34 11 -11 19 -28 16 -38 -2 -9 3 -23 10 -30
10 -9 13 -24 9 -45 -3 -18 -2 -26 2 -18 5 7 16 10 26 6 13 -5 17 -15 14 -36
-5 -28 -3 -30 23 -24 26 5 28 3 20 -17 -12 -34 -3 -48 27 -41 l27 5 -29 -26
c-38 -35 -28 -41 14 -10 19 14 37 25 40 25 12 0 4 -37 -14 -65 -17 -25 -17
-26 1 -17 10 5 31 12 46 16 l28 7 -22 -30 c-12 -16 -19 -34 -15 -39 3 -6 -4
-18 -16 -26 -12 -9 -18 -16 -14 -16 5 0 17 6 25 14 9 7 27 17 41 20 24 7 24 6
-5 -18 -16 -14 -38 -26 -47 -26 -10 0 -25 -14 -33 -31 l-16 -30 25 17 c18 11
26 13 26 4 0 -7 7 -10 17 -6 13 5 11 0 -6 -18 -45 -48 -10 -26 50 31 32 31 62
53 66 50 3 -4 -10 -22 -31 -40 -50 -46 -46 -57 6 -13 52 45 73 47 30 3 -18
-18 -32 -38 -32 -43 0 -6 -16 -25 -35 -43 -19 -17 -35 -37 -35 -44 0 -8 -21
-35 -47 -62 -43 -43 -44 -46 -13 -25 19 13 41 32 48 42 7 10 23 23 35 30 20
10 21 10 8 -6 -8 -9 -11 -19 -8 -22 10 -10 47 7 47 21 0 8 13 24 29 36 16 12
32 30 34 40 6 22 -3 24 -23 7 -8 -7 -2 2 14 20 33 36 38 39 30 17 -4 -9 0 -15
7 -15 9 -1 8 -4 -3 -11 -10 -5 -18 -16 -18 -23 0 -7 -20 -35 -45 -62 -24 -27
-45 -52 -45 -56 0 -4 -7 -14 -16 -23 -24 -24 -10 -29 23 -9 l28 18 -24 -27
c-15 -16 -19 -27 -12 -27 11 0 11 -3 1 -15 -7 -9 -10 -18 -6 -22 3 -3 6 -2 6
4 0 6 7 13 14 16 11 4 13 1 8 -12 -8 -21 -77 -83 -84 -76 -3 3 -5 -2 -5 -10 0
-25 13 -18 93 52 l76 66 -46 -67 c-25 -37 -46 -74 -46 -81 0 -42 -25 -67 -78
-80 -18 -5 -44 -27 -37 -33 3 -3 14 3 25 13 22 20 28 8 8 -14 -10 -11 -10 -13
0 -7 25 14 11 -11 -18 -32 -16 -12 -34 -32 -41 -43 -6 -12 17 5 51 37 34 33
63 57 65 54 2 -3 14 4 27 15 53 47 60 47 21 -1 -48 -57 -73 -81 -73 -67 0 5 3
13 8 19 4 5 -15 -12 -41 -38 -27 -26 -52 -48 -56 -48 -11 0 -45 -39 -39 -45 2
-3 32 20 66 51 34 31 62 53 62 49 0 -3 10 0 23 6 20 11 21 11 9 -4 -8 -9 -22
-19 -33 -22 -11 -4 -17 -11 -14 -16 4 -5 1 -9 -5 -9 -6 0 -32 -17 -56 -37 -25
-21 -51 -36 -57 -35 -7 2 -9 0 -5 -3 4 -4 2 -17 -4 -29 -7 -11 -11 -25 -10
-29 1 -5 -2 -6 -7 -3 -5 4 -12 -7 -16 -23 -6 -28 -35 -71 -49 -71 -3 0 3 15
14 33 25 40 25 50 1 35 -11 -7 -18 -15 -15 -20 3 -4 -13 -27 -36 -51 -38 -42
-52 -65 -30 -52 6 4 7 -1 3 -11 -4 -12 -8 -14 -11 -6 -3 10 -7 10 -20 0 -12
-11 -12 -7 2 21 10 18 13 30 7 27 -6 -4 -11 -2 -11 4 0 6 -4 9 -8 6 -13 -8 -5
53 8 69 10 12 10 15 -1 15 -11 0 -11 3 1 11 12 8 12 10 1 7 -13 -4 -21 -22
-24 -59 -1 -9 -7 -15 -14 -12 -13 5 -17 -8 -14 -35 2 -15 -27 -82 -35 -82 -3
0 -2 6 1 13 4 6 -3 1 -15 -13 l-21 -25 6 25 c4 14 11 29 16 34 5 6 9 17 9 25
0 9 -13 -5 -29 -30 -28 -43 -61 -70 -61 -49 0 18 -29 11 -40 -9 -14 -28 -13
-54 3 -45 7 5 6 0 -3 -11 -13 -17 -13 -18 1 -13 13 5 17 0 17 -20 0 -15 -4
-29 -9 -32 -4 -3 -4 -12 1 -20 8 -13 10 -12 10 3 0 12 10 20 31 24 19 3 34 14
36 25 5 18 10 21 38 21 46 0 47 -2 23 -32 -17 -21 -25 -25 -31 -15 -8 15 -8
15 -60 -31 -33 -29 -12 -35 29 -9 13 9 27 14 30 11 3 -3 -14 -17 -39 -31 -54
-32 -74 -54 -79 -85 -1 -14 -10 -26 -18 -28 -12 -4 -12 -3 -1 5 9 6 10 12 3
16 -6 4 -9 13 -5 21 7 21 -14 19 -25 -2 -6 -10 -16 -14 -26 -10 -10 4 -14 12
-10 18 4 7 1 10 -7 7 -8 -2 -18 -14 -24 -26 -13 -29 -29 -34 -62 -17 -15 8
-24 15 -19 15 4 0 -2 9 -15 19 -17 14 -28 16 -36 9 -16 -13 -17 4 -2 19 9 9 8
16 -4 27 -9 9 -20 16 -25 16 -8 0 -18 23 -25 60 -2 13 -28 31 -37 25 -14 -9
-12 8 3 24 10 11 8 13 -10 8 -19 -4 -21 -2 -13 13 13 23 13 33 1 25 -5 -3 -11
3 -13 12 -5 25 -102 -75 -168 -172 -28 -41 -53 -75 -55 -75 -14 0 3 28 78 131
74 102 153 224 113 175 -16 -19 -16 -19 -16 1 0 12 -5 34 -12 50 -6 15 -11 31
-10 36 1 4 -2 7 -8 7 -5 0 -7 7 -4 15 4 8 1 15 -6 15 -7 0 -10 7 -6 16 3 9 3
21 -1 27 -4 7 -9 20 -10 30 -2 10 -9 30 -17 45 -9 18 -11 33 -5 44 12 22 -10
38 -39 27 -43 -16 -171 -236 -227 -392 -36 -101 -44 -93 -10 9 30 88 106 237
166 325 21 32 39 59 39 61 0 2 -9 4 -20 5 -12 1 -36 -16 -61 -45 -23 -26 -32
-33 -21 -17 22 34 114 125 150 151 18 13 21 19 11 30 -9 11 -8 14 2 14 8 0 5
6 -7 15 -11 8 -14 15 -6 15 6 0 12 5 12 11 0 6 -53 -17 -117 -50 -140 -72
-128 -58 16 20 90 48 100 57 99 80 -2 20 -6 25 -18 21 -12 -4 -12 -2 3 15 19
22 22 43 6 43 -5 0 -7 5 -4 10 4 7 -48 10 -150 10 l-157 0 -52 -35 c-39 -25
-58 -46 -70 -77 -10 -24 -22 -51 -27 -60 -5 -10 -9 -24 -9 -32 0 -7 -6 -19
-13 -25 -8 -6 -20 -42 -27 -81 -11 -57 -11 -78 0 -112 16 -55 30 -166 23 -185
-12 -31 -94 88 -106 154 -8 39 -36 69 -61 65 -20 -4 -72 42 -110 97 -22 33
-24 41 -15 91 20 113 -11 268 -51 257 -28 -8 -35 -9 -52 -8 -19 1 -71 71 -83
111 -4 14 -23 42 -41 63 -36 39 -37 42 -34 97 0 20 -3 47 -9 62 -7 18 -6 31 3
44 46 69 63 175 72 439 8 262 15 337 49 493 8 40 15 88 15 105 0 42 21 112 63
217 19 47 37 100 40 118 10 53 -22 39 -68 -29z m2935 -99 c0 -5 -5 -10 -11
-10 -5 0 -7 5 -4 10 3 6 8 10 11 10 2 0 4 -4 4 -10z m120 -14 c0 -2 -9 -6 -20
-9 -11 -3 -18 -1 -14 4 5 9 34 13 34 5z m-370 -16 c0 -5 -2 -10 -4 -10 -3 0
-8 5 -11 10 -3 6 -1 10 4 10 6 0 11 -4 11 -10z m410 5 c0 -2 -9 -9 -20 -15
-12 -6 -20 -7 -20 -1 0 5 8 12 18 14 9 3 18 5 20 6 1 0 2 -1 2 -4z m-252 -17
c-2 -6 -10 -13 -16 -14 -7 -1 -8 0 -2 3 5 2 8 9 4 14 -3 5 0 9 6 9 7 0 10 -5
8 -12z m-583 -16 c-3 -3 -11 0 -18 7 -9 10 -8 11 6 5 10 -3 15 -9 12 -12z
m245 8 c0 -5 -2 -10 -4 -10 -3 0 -8 5 -11 10 -3 6 -1 10 4 10 6 0 11 -4 11
-10z m414 -5 c3 -8 1 -15 -3 -15 -5 0 -11 7 -15 15 -3 8 -1 15 3 15 5 0 11 -7
15 -15z m56 -6 c0 -5 -7 -9 -15 -9 -15 0 -20 12 -9 23 8 8 24 -1 24 -14z m130
6 c-7 -8 -20 -15 -29 -15 -11 0 -8 5 9 14 33 19 35 19 20 1z m-730 1 c0 -3 -4
-8 -10 -11 -5 -3 -10 -1 -10 4 0 6 5 11 10 11 6 0 10 -2 10 -4z m384 -11 c-7
-17 -20 -20 -28 -6 -7 10 3 21 20 21 8 0 11 -6 8 -15z m110 -3 c3 -5 -1 -9 -9
-9 -8 0 -15 4 -15 9 0 4 4 8 9 8 6 0 12 -4 15 -8z m-589 -12 c-3 -5 -1 -10 4
-10 6 0 11 -5 11 -11 0 -8 -5 -8 -15 1 -17 14 -20 30 -4 30 5 0 7 -4 4 -10z
m731 3 c-15 -4 -16 -7 -5 -15 12 -8 12 -9 0 -6 -25 7 -24 28 1 27 19 -1 20 -2
4 -6z m194 -3 c0 -5 -5 -10 -11 -10 -5 0 -7 5 -4 10 3 6 8 10 11 10 2 0 4 -4
4 -10z m-872 -20 c-7 -10 -14 -18 -15 -16 -6 6 9 36 18 36 5 0 4 -9 -3 -20z
m602 8 c0 -11 -12 -10 -30 2 -12 7 -10 9 8 7 12 0 22 -5 22 -9z m-745 -8 c3
-6 -1 -7 -9 -4 -18 7 -21 14 -7 14 6 0 13 -4 16 -10z m240 1 c3 -5 1 -12 -5
-16 -5 -3 -10 1 -10 9 0 18 6 21 15 7z m550 -1 c3 -6 -1 -7 -9 -4 -18 7 -21
14 -7 14 6 0 13 -4 16 -10z m114 7 c-2 -1 -13 -9 -24 -17 -19 -14 -19 -14 -6
3 7 9 18 17 24 17 6 0 8 -1 6 -3z m-729 -11 c0 -2 -7 -7 -16 -10 -8 -3 -12 -2
-9 4 6 10 25 14 25 6z m920 0 c0 -11 -19 -15 -25 -6 -3 5 1 10 9 10 9 0 16 -2
16 -4z m-1084 -34 c-6 -6 -56 10 -56 18 0 5 13 3 30 -3 16 -6 28 -13 26 -15z
m34 18 c0 -5 -4 -10 -9 -10 -6 0 -13 5 -16 10 -3 6 1 10 9 10 9 0 16 -4 16
-10z m561 -4 c5 3 9 0 9 -6 0 -7 -7 -9 -16 -6 -9 3 -18 6 -20 6 -3 0 -2 5 2
12 6 9 9 9 12 0 2 -7 8 -10 13 -6z m124 4 c3 -6 -1 -7 -9 -4 -18 7 -21 14 -7
14 6 0 13 -4 16 -10z m185 0 c0 -5 -5 -10 -11 -10 -5 0 -7 5 -4 10 3 6 8 10
11 10 2 0 4 -4 4 -10z m-818 -22 c-7 -7 -12 -8 -12 -2 0 14 12 26 19 19 2 -3
-1 -11 -7 -17z m89 -8 c11 0 17 5 14 10 -3 6 -2 10 3 10 16 0 22 -13 11 -26
-13 -16 -73 2 -62 19 5 8 8 8 11 -1 2 -7 13 -12 23 -12z m352 5 c-3 -9 -8 -14
-10 -11 -3 3 -2 9 2 15 9 16 15 13 8 -4z m37 -5 c0 -5 -5 -10 -11 -10 -5 0 -7
5 -4 10 3 6 8 10 11 10 2 0 4 -4 4 -10z m270 6 c0 -2 -7 -6 -15 -10 -8 -3 -15
-1 -15 4 0 6 7 10 15 10 8 0 15 -2 15 -4z m171 -19 c-10 -9 -11 -8 -5 6 3 10
9 15 12 12 3 -3 0 -11 -7 -18z m-1031 3 c0 -5 -5 -10 -11 -10 -5 0 -7 5 -4 10
3 6 8 10 11 10 2 0 4 -4 4 -10z m370 6 c0 -2 -7 -6 -15 -10 -8 -3 -15 -1 -15
4 0 6 7 10 15 10 8 0 15 -2 15 -4z m150 -6 c0 -5 -4 -10 -10 -10 -5 0 -10 5
-10 10 0 6 5 10 10 10 6 0 10 -4 10 -10z m577 4 c-3 -3 -12 -4 -19 -1 -8 3 -5
6 6 6 11 1 17 -2 13 -5z m-942 -14 c-3 -5 -11 -10 -16 -10 -6 0 -7 5 -4 10 3
6 11 10 16 10 6 0 7 -4 4 -10z m100 -20 c-3 -4 -15 -10 -27 -13 -21 -5 -21 -5
-6 7 10 7 15 16 11 20 -4 4 0 4 10 0 9 -3 15 -10 12 -14z m-260 0 c-3 -5 -10
-10 -16 -10 -5 0 -9 5 -9 10 0 6 7 10 16 10 8 0 12 -4 9 -10z m70 0 c3 -5 1
-10 -4 -10 -6 0 -11 5 -11 10 0 6 2 10 4 10 3 0 8 -4 11 -10z m45 0 c0 -5 -2
-10 -4 -10 -3 0 -8 5 -11 10 -3 6 -1 10 4 10 6 0 11 -4 11 -10z m60 0 c0 -5
-5 -10 -11 -10 -5 0 -7 5 -4 10 3 6 8 10 11 10 2 0 4 -4 4 -10z m950 6 c0 -3
-4 -8 -10 -11 -5 -3 -10 -1 -10 4 0 6 5 11 10 11 6 0 10 -2 10 -4z m70 -16 c0
-5 -4 -10 -9 -10 -6 0 -13 5 -16 10 -3 6 1 10 9 10 9 0 16 -4 16 -10z m-1287
-11 c-13 -4 -33 -5 -45 0 -18 7 -14 9 22 9 36 0 40 -2 23 -9z m54 5 c-3 -3
-12 -4 -19 -1 -8 3 -5 6 6 6 11 1 17 -2 13 -5z m87 -2 c2 -4 1 -14 -3 -21 -6
-10 -13 -10 -28 -2 -11 5 -24 7 -29 3 -5 -4 -2 1 5 11 14 18 46 23 55 9z m50
-17 c-4 -8 -10 -12 -15 -9 -11 6 -2 24 11 24 5 0 7 -7 4 -15z m46 11 c0 -3 -4
-8 -10 -11 -5 -3 -10 -1 -10 4 0 6 5 11 10 11 6 0 10 -2 10 -4z m160 -6 c0 -5
-5 -10 -11 -10 -5 0 -7 5 -4 10 3 6 8 10 11 10 2 0 4 -4 4 -10z m268 -18 c2
-7 -3 -12 -10 -12 -8 0 -15 7 -15 15 0 18 19 15 25 -3z m-748 -7 c0 -8 -4 -15
-10 -15 -5 0 -10 7 -10 15 0 8 5 15 10 15 6 0 10 -7 10 -15z m63 -13 c-5 -11
-3 -13 8 -7 11 6 12 5 2 -5 -11 -12 -15 -11 -28 6 -20 26 -19 33 4 27 13 -3
18 -10 14 -21z m74 22 c-3 -3 -12 -4 -19 -1 -8 3 -5 6 6 6 11 1 17 -2 13 -5z
m-172 -14 c3 -5 2 -10 -4 -10 -5 0 -13 5 -16 10 -3 6 -2 10 4 10 5 0 13 -4 16
-10z m230 1 c3 -5 1 -12 -5 -16 -5 -3 -10 1 -10 9 0 18 6 21 15 7z m-65 -11
c0 -5 -8 -10 -17 -10 -15 0 -16 2 -3 10 19 12 20 12 20 0z m-90 -27 c0 -14 -2
-15 -9 -4 -6 9 -11 10 -15 2 -9 -13 -26 -15 -26 -2 0 8 16 16 43 20 4 0 7 -7
7 -16z m-130 -13 c0 -13 -5 -18 -15 -14 -11 5 -12 9 -2 20 16 18 17 17 17 -6z
m70 -10 c0 -5 -12 -10 -27 -9 -25 0 -26 1 -8 9 27 12 35 12 35 0z m1680 -80
c0 -5 -4 -10 -9 -10 -6 0 -13 5 -16 10 -3 6 1 10 9 10 9 0 16 -4 16 -10z m15
-30 c3 -5 1 -10 -4 -10 -6 0 -11 5 -11 10 0 6 2 10 4 10 3 0 8 -4 11 -10z
m-1935 -111 c0 -5 -4 -9 -10 -9 -5 0 -10 7 -10 16 0 8 5 12 10 9 6 -3 10 -10
10 -16z m1895 -377 c-3 -3 -11 0 -18 7 -9 10 -8 11 6 5 10 -3 15 -9 12 -12z
m-95 -95 c13 -5 13 -6 0 -6 -8 -1 -28 11 -45 25 l-30 26 30 -20 c17 -10 37
-22 45 -25z m5 -27 c3 -6 -1 -7 -9 -4 -18 7 -21 14 -7 14 6 0 13 -4 16 -10z
m-10 -28 c-3 -3 -11 0 -18 7 -9 10 -8 11 6 5 10 -3 15 -9 12 -12z m-1615 -26
c0 -2 -8 -10 -17 -17 -16 -13 -17 -12 -4 4 13 16 21 21 21 13z m1461 -73 c13
-16 12 -17 -3 -4 -10 7 -18 15 -18 17 0 8 8 3 21 -13z m50 -15 l23 -33 -27 24
c-15 14 -27 28 -27 33 0 15 8 8 31 -24z m-1443 -73 c-6 -13 -15 -22 -20 -19
-5 3 -2 15 8 25 23 25 26 24 12 -6z m1402 -51 c0 -2 -9 0 -20 6 -11 6 -20 13
-20 16 0 2 9 0 20 -6 11 -6 20 -13 20 -16z m23 -62 c29 -27 36 -48 13 -39 -10
4 -13 1 -9 -9 8 -22 0 -17 -33 18 -16 17 -23 28 -16 24 17 -10 15 9 -2 24 -8
6 -12 19 -9 28 6 14 8 14 17 -3 6 -10 23 -29 39 -43z m-1423 28 c-6 -11 -18
-20 -27 -20 -14 0 -14 2 2 20 10 11 22 20 27 20 5 0 4 -9 -2 -20z m1626 -18
c-4 -3 -14 2 -24 12 -16 18 -16 18 6 6 13 -6 21 -14 18 -18z m-141 -22 c10
-11 14 -20 9 -20 -12 1 -44 25 -44 34 0 12 17 6 35 -14z m15 -66 c0 -2 -9 0
-20 6 -11 6 -20 13 -20 16 0 2 9 0 20 -6 11 -6 20 -13 20 -16z m-72 -14 c11
-19 11 -19 -8 -8 -11 7 -22 18 -24 25 -8 19 18 5 32 -17z m-1328 -130 c-6 -11
-16 -20 -22 -20 -6 0 -3 9 7 20 10 11 20 20 22 20 2 0 -1 -9 -7 -20z m1455
-31 c-3 -4 3 -12 12 -18 10 -6 13 -11 7 -11 -6 0 -17 7 -24 15 -7 8 -9 15 -5
15 4 0 1 8 -6 18 -13 15 -12 16 3 3 10 -7 15 -17 13 -22z m-84 4 c13 -16 12
-17 -3 -4 -10 7 -18 15 -18 17 0 8 8 3 21 -13z m-76 -148 c9 -22 12 -35 6 -30
-5 6 -17 28 -26 50 -9 22 -12 36 -6 30 5 -5 17 -28 26 -50z m237 -56 c27 -17
29 -19 8 -13 -33 9 -99 66 -116 99 -10 19 -1 14 31 -19 24 -25 59 -55 77 -67z
m-51 94 c13 -16 12 -17 -3 -4 -10 7 -18 15 -18 17 0 8 8 3 21 -13z m-1491 4
c0 -2 -10 -12 -22 -23 l-23 -19 19 23 c18 21 26 27 26 19z m6 -75 c-17 -16
-18 -16 -5 5 7 12 15 20 18 17 3 -2 -3 -12 -13 -22z m1405 -56 c20 -18 29 -22
38 -13 8 8 11 7 11 -5 0 -29 -14 -27 -54 8 -22 19 -35 34 -30 34 5 0 21 -11
35 -24z m-1441 -39 c0 -2 -12 -14 -27 -28 l-28 -24 24 28 c23 25 31 32 31 24z
m1311 -24 c13 -16 12 -17 -3 -4 -10 7 -18 15 -18 17 0 8 8 3 21 -13z m-1295
-68 c-21 -25 -42 -45 -48 -45 -6 0 -20 -8 -32 -17 -20 -18 -20 -18 0 9 10 15
24 28 30 28 6 0 26 17 45 39 47 53 51 42 5 -14z m93 15 c-28 -38 -56 -50 -33
-14 14 20 40 42 52 44 1 0 -7 -13 -19 -30z m1382 3 c13 -15 12 -15 -8 -4 -24
12 -29 21 -14 21 5 0 15 -7 22 -17z m-2921 4 c0 -2 -10 -12 -22 -23 l-23 -19
19 23 c18 21 26 27 26 19z m1987 -34 c-3 -10 -5 -4 -5 12 0 17 2 24 5 18 2 -7
2 -21 0 -30z m291 -18 c-3 -3 -9 2 -12 12 -6 14 -5 15 5 6 7 -7 10 -15 7 -18z
m267 -15 l20 -25 -22 19 c-13 11 -23 24 -23 29 0 6 1 8 3 6 1 -2 11 -15 22
-29z m-1104 -9 c-12 -16 -21 -36 -21 -45 0 -8 -9 -20 -21 -26 -11 -7 -32 -35
-46 -63 -16 -34 -22 -42 -18 -23 11 52 49 122 85 161 32 34 46 31 21 -4z
m1013 13 c3 -8 2 -12 -4 -9 -6 3 -10 10 -10 16 0 14 7 11 14 -7z m281 -4 c3
-6 -1 -7 -9 -4 -18 7 -21 14 -7 14 6 0 13 -4 16 -10z m-1456 -29 c-21 -28 -79
-77 -79 -66 0 5 92 94 98 95 1 0 -7 -13 -19 -29z m40 -16 c-17 -25 -36 -45
-42 -44 -8 0 -8 2 1 6 6 2 9 9 6 15 -5 7 49 65 63 68 1 0 -11 -20 -28 -45z
m165 30 c-4 -8 -11 -15 -16 -15 -6 0 -5 6 2 15 7 8 14 15 16 15 2 0 1 -7 -2
-15z m239 -10 c-3 -9 -8 -14 -10 -11 -3 3 -2 9 2 15 9 16 15 13 8 -4z m911
-11 c3 -8 2 -12 -4 -9 -6 3 -10 10 -10 16 0 14 7 11 14 -7z m-337 -16 c-3 -8
-6 -5 -6 6 -1 11 2 17 5 13 3 -3 4 -12 1 -19z m423 -44 c16 -25 26 -43 20 -39
-5 3 -24 27 -41 52 -18 25 -27 43 -21 39 6 -3 25 -27 42 -52z m110 31 c13 -14
21 -25 18 -25 -2 0 -15 11 -28 25 -13 14 -21 25 -18 25 2 0 15 -11 28 -25z
m-1244 -41 c-13 -27 -39 -86 -57 -131 -18 -46 -34 -81 -37 -79 -2 2 10 39 27
81 34 85 35 89 21 80 -6 -4 6 18 27 49 21 30 39 53 41 51 2 -1 -8 -25 -22 -51z
m1448 40 c5 -14 4 -15 -9 -4 -17 14 -19 20 -6 20 5 0 12 -7 15 -16z m-237 -5
c-1 -4 7 -14 18 -22 11 -9 18 -18 15 -20 -3 -3 -19 7 -37 23 -25 23 -28 28
-13 27 10 -1 18 -4 17 -8z m96 -17 c19 -20 23 -29 13 -29 -8 0 -13 4 -10 9 3
4 -1 11 -10 14 -8 3 -17 12 -20 20 -8 20 -3 18 27 -14z m-2838 -38 c-41 -67
-55 -83 -30 -34 19 37 54 90 60 90 2 0 -12 -25 -30 -56z m1376 38 c-5 -9 -19
-26 -32 -37 -26 -23 -17 -2 14 33 25 27 31 28 18 4z m1248 -32 c11 -22 17 -40
13 -40 -4 0 -18 21 -30 46 -27 55 -13 50 17 -6z m-392 18 c-3 -8 -6 -5 -6 6
-1 11 2 17 5 13 3 -3 4 -12 1 -19z m-969 -28 c-7 -10 -14 -17 -17 -15 -4 4 18
35 25 35 2 0 -1 -9 -8 -20z m1692 -37 c0 -7 -39 17 -46 28 -3 6 5 3 20 -6 14
-10 26 -19 26 -22z m-1550 23 c0 -2 -8 -10 -17 -17 -16 -13 -17 -12 -4 4 13
16 21 21 21 13z m1475 -6 c3 -5 1 -10 -4 -10 -6 0 -11 5 -11 10 0 6 2 10 4 10
3 0 8 -4 11 -10z m-1757 -20 c-13 -20 -28 -27 -28 -12 0 10 22 32 32 32 5 0 3
-9 -4 -20z m1683 3 c13 -16 12 -17 -3 -4 -10 7 -18 15 -18 17 0 8 8 3 21 -13z
m-1481 -6 c0 -2 -10 -12 -22 -23 l-23 -19 19 23 c18 21 26 27 26 19z m-190
-46 c-6 -12 -15 -21 -21 -21 -6 0 -8 -4 -5 -9 3 -5 -3 -20 -13 -32 l-20 -24 2
25 c1 14 15 40 31 58 32 35 44 36 26 3z m1734 -47 c3 -8 2 -12 -4 -9 -6 3 -10
10 -10 16 0 14 7 11 14 -7z m-1691 -9 c-3 -9 -8 -14 -10 -11 -3 3 -2 9 2 15 9
16 15 13 8 -4z m1892 5 c3 -5 1 -10 -4 -10 -6 0 -11 5 -11 10 0 6 2 10 4 10 3
0 8 -4 11 -10z m31 -32 c4 4 2 -1 -5 -11 -11 -14 -16 -15 -22 -5 -13 20 -10
32 4 19 8 -6 18 -7 23 -3z m-2012 -33 c-7 -16 -24 -21 -24 -6 0 8 7 13 27 20
1 1 0 -6 -3 -14z m-144 -22 c-1 -25 -24 -53 -44 -53 -16 0 -16 1 -1 16 9 9 14
22 11 30 -4 11 6 21 27 23 4 1 7 -7 7 -16z m67 -46 c-6 -15 -15 -27 -19 -27
-12 0 -10 8 8 36 21 31 28 26 11 -9z m-63 -68 c-24 -27 -29 -16 -8 16 10 16
20 23 22 16 2 -7 -4 -21 -14 -32z m3301 -19 c10 -11 16 -20 13 -20 -3 0 -13 9
-23 20 -10 11 -16 20 -13 20 3 0 13 -9 23 -20z m-3375 -33 c0 -8 -11 -19 -25
-25 -14 -7 -25 -20 -25 -31 0 -11 -4 -23 -10 -26 -5 -3 -10 1 -10 9 0 20 -16
21 -23 2 -3 -8 -13 -13 -21 -12 -22 3 -32 16 -13 16 10 0 17 4 17 9 0 5 9 13
20 16 11 3 26 12 33 18 11 11 48 35 55 36 1 1 2 -5 2 -12z m-927 -97 c15 -16
27 -33 27 -37 0 -5 16 -28 35 -52 24 -31 35 -54 35 -78 0 -41 -24 -54 -50 -27
-31 32 -90 159 -90 192 0 40 9 40 43 2z m3304 8 c-3 -8 -6 -5 -6 6 -1 11 2 17
5 13 3 -3 4 -12 1 -19z m-2603 -14 c24 -9 19 -24 -8 -24 -14 0 -28 -5 -32 -11
-4 -8 -9 -7 -15 2 -5 9 -1 18 14 26 27 15 22 14 41 7z m-988 -169 c15 -36 6
-75 -16 -75 -17 0 -50 39 -50 59 0 60 43 71 66 16z m3799 -58 c13 -32 22 -100
27 -214 1 -45 -2 -57 -25 -81 l-26 -27 31 -48 31 -48 -12 -82 c-6 -45 -25
-118 -41 -162 -16 -44 -30 -85 -30 -91 0 -18 -49 -124 -57 -124 -5 0 -8 -15
-9 -32 0 -18 -10 -56 -21 -84 -11 -28 -23 -68 -27 -90 -4 -21 -21 -61 -36 -90
-16 -28 -27 -54 -24 -56 8 -9 -37 -78 -47 -72 -5 3 -6 -3 -2 -12 5 -13 3 -15
-7 -9 -9 5 -11 4 -6 -3 4 -7 -8 -27 -28 -48 -24 -24 -33 -30 -30 -17 3 11 -2
25 -11 33 -13 11 -15 10 -9 -6 4 -10 4 -16 -1 -12 -4 4 -16 -3 -25 -15 -13
-16 -15 -24 -7 -30 7 -5 2 -6 -10 -2 -17 5 -23 2 -23 -9 0 -9 -4 -16 -10 -16
-5 0 -10 -5 -10 -11 0 -5 6 -7 13 -3 8 6 8 3 -1 -9 -8 -9 -11 -21 -7 -27 4 -6
-4 -10 -19 -10 -35 0 -56 -10 -56 -26 0 -8 -7 -17 -15 -20 -8 -4 -13 -10 -10
-15 10 -16 -7 -57 -26 -62 -10 -3 -18 -2 -17 2 2 20 -3 41 -12 41 -5 0 -7 -6
-4 -14 4 -10 -1 -14 -19 -12 -16 2 -24 -1 -21 -9 3 -6 -7 -17 -21 -23 -21 -10
-27 -9 -31 3 -9 22 -23 9 -17 -15 5 -17 0 -20 -27 -20 -27 0 -30 3 -25 20 6
20 6 20 -40 0 -26 -11 -60 -20 -75 -20 -16 0 -32 -5 -35 -10 -4 -6 -13 -7 -23
-1 -20 11 -51 -7 -45 -26 3 -7 -3 -13 -12 -13 -11 0 -15 -5 -11 -15 5 -14 -19
-22 -49 -15 -5 1 -21 2 -35 3 -14 0 -19 2 -12 4 22 8 13 23 -14 23 -14 0 -23
4 -19 10 3 6 2 10 -4 10 -5 0 -12 -6 -14 -12 -3 -7 -6 -3 -6 10 -1 26 -15 27
-91 11 -27 -6 -48 -15 -44 -20 3 -5 0 -9 -5 -9 -6 0 -11 5 -11 10 0 6 -7 10
-16 10 -8 0 -12 -5 -8 -11 4 -8 -1 -9 -16 -4 -14 5 -25 2 -31 -6 -6 -11 -12
-11 -33 0 -17 9 -42 12 -76 8 -33 -4 -64 -1 -91 8 -23 8 -52 15 -66 15 -13 0
-35 7 -49 16 -13 9 -27 14 -30 11 -8 -8 -44 25 -38 35 3 4 -2 5 -10 2 -9 -4
-16 -1 -16 6 0 7 -7 10 -16 6 -10 -4 -13 -2 -8 6 5 8 2 9 -9 5 -9 -3 -19 -2
-22 3 -10 17 -25 11 -18 -6 4 -12 -2 -10 -21 7 -14 13 -24 29 -22 36 3 8 -1
10 -11 6 -11 -4 -14 -3 -9 6 4 7 2 10 -5 9 -12 -3 -29 19 -154 193 -33 46 -78
104 -100 130 -22 26 -57 68 -78 95 -20 27 -53 69 -72 94 -68 87 -102 148 -120
217 -16 63 -17 76 -4 133 10 44 19 65 31 68 10 2 18 7 18 11 0 9 98 111 106
111 4 0 12 8 19 17 7 9 22 18 35 20 13 2 29 11 37 21 12 16 13 16 6 -2 -5 -15
-3 -18 9 -13 11 4 18 -1 21 -15 3 -11 10 -17 17 -13 6 4 8 15 5 26 -4 11 -2
19 4 19 6 0 11 -7 11 -15 0 -9 7 -15 16 -13 22 4 44 -30 27 -40 -9 -5 -1 -13
22 -24 33 -15 51 -10 54 15 2 18 16 10 19 -12 2 -13 -6 -36 -17 -52 -11 -15
-17 -30 -12 -34 15 -8 40 5 46 26 4 10 11 19 16 19 14 0 11 -7 -22 -45 -18
-20 -29 -39 -25 -42 8 -8 66 47 66 63 0 6 7 14 15 17 11 5 12 1 4 -20 -7 -18
-6 -30 1 -37 8 -8 9 -5 5 9 -6 17 -3 16 17 -6 18 -19 29 -24 44 -18 30 12 37
10 30 -7 -4 -11 -2 -15 8 -11 12 5 12 2 1 -20 -14 -27 -12 -43 6 -43 6 0 8 4
5 9 -3 5 0 14 8 20 11 9 15 7 21 -11 6 -18 8 -20 12 -6 2 9 10 19 18 22 9 3
12 0 8 -10 -9 -24 27 -4 37 20 l9 21 0 -21 c1 -12 -6 -25 -15 -28 -8 -3 -13
-10 -10 -15 4 -5 0 -11 -8 -13 -12 -3 -12 -5 0 -16 11 -10 18 -5 39 28 25 40
42 54 31 25 -3 -8 -2 -15 3 -15 5 0 12 -12 15 -26 5 -18 13 -25 29 -24 38 4
45 1 42 -17 -1 -10 0 -13 2 -7 5 14 37 24 80 24 17 0 33 5 35 11 2 6 18 13 36
15 26 3 32 0 32 -16 0 -11 -7 -20 -15 -20 -8 0 -15 7 -15 15 0 8 -4 15 -10 15
-11 0 -13 -11 -4 -34 3 -9 11 -13 17 -9 5 3 16 -3 24 -13 14 -18 14 -18 11 5
-2 18 2 25 17 27 11 2 24 9 30 16 13 17 52 20 62 5 4 -7 8 -61 9 -121 1 -89 4
-110 18 -118 17 -10 22 -48 6 -48 -5 0 -10 -5 -10 -11 0 -5 4 -8 9 -5 5 3 11
-12 13 -35 2 -22 0 -43 -4 -45 -4 -3 -8 3 -9 13 0 11 -3 13 -6 5 -3 -7 -1 -18
5 -25 5 -7 12 -29 16 -49 4 -21 11 -38 16 -38 13 0 13 37 0 45 -10 6 -9 40 2
51 4 3 4 21 1 40 -3 19 0 62 6 95 9 44 9 65 2 72 -8 8 -11 4 -11 -13 0 -14 -4
-32 -10 -40 -8 -13 -10 -13 -14 0 -10 29 -13 111 -4 117 6 3 7 14 4 26 -3 14
-2 17 6 9 6 -6 17 -8 26 -5 10 4 13 2 8 -5 -4 -6 0 -23 9 -36 12 -18 17 -51
18 -111 2 -73 4 -83 15 -68 8 11 11 31 8 48 -3 17 -7 54 -9 83 -2 30 -8 57
-13 60 -5 4 -10 20 -11 37 -1 28 -1 29 14 10 13 -19 14 -17 9 20 -3 22 -3 31
0 20 4 -11 11 -26 17 -34 10 -11 13 -9 18 10 7 22 7 22 9 -6 1 -29 1 -29 11
-6 6 16 6 28 -2 38 -7 7 -9 16 -7 19 3 3 15 -8 27 -25 16 -21 18 -31 9 -35 -9
-3 -8 -8 4 -16 10 -6 21 -29 24 -52 5 -31 9 -37 16 -24 13 23 6 59 -14 74 -9
7 -15 18 -12 26 3 7 0 25 -5 39 -7 17 -7 27 -1 27 6 0 10 -6 10 -14 0 -8 4
-17 9 -20 5 -3 8 0 7 7 0 6 2 12 5 12 3 0 12 5 20 12 8 6 31 10 52 9 20 -1 37
3 38 9 1 5 4 -1 9 -15 l7 -25 11 25 c7 17 11 20 11 8 1 -20 31 -14 31 6 0 7
17 12 40 13 29 2 40 -2 40 -13 0 -7 5 -14 11 -14 6 0 9 6 6 13 -3 6 -8 21 -11
32 -5 16 -4 15 5 -2 7 -13 20 -25 30 -28 11 -4 19 -11 19 -16 0 -6 7 -17 15
-26 12 -11 13 -19 5 -28 -8 -10 -5 -19 13 -37 13 -13 26 -29 28 -36 3 -7 9 -8
18 -3 12 8 12 12 -2 26 -10 9 -17 21 -17 26 0 6 -4 7 -10 4 -11 -7 -13 6 -4
29 3 9 11 13 17 9 6 -4 8 0 4 11 -4 9 -3 15 2 11 15 -8 41 24 35 43 -4 11 2 8
15 -8 12 -14 21 -19 21 -12 0 8 8 4 20 -10 55 -65 69 -86 63 -92 -4 -4 -1 -4
7 -1 11 4 23 -9 40 -40 13 -25 28 -45 32 -45 14 0 8 27 -12 53 -11 14 -20 30
-20 36 0 7 -7 14 -16 18 -8 3 -13 12 -10 19 3 7 0 16 -6 20 -7 4 -8 3 -4 -4 4
-7 3 -12 -3 -12 -10 0 -71 78 -71 91 0 5 11 -2 25 -15 14 -13 25 -29 25 -37 0
-26 31 31 33 61 l2 30 19 -25 c18 -25 19 -25 44 -9 23 15 25 15 19 0 -4 -9 -2
-16 3 -16 14 0 12 24 -2 38 -10 10 -16 8 -29 -9 -15 -21 -16 -20 -16 27 0 36
2 42 7 24 l7 -25 11 26 c10 25 7 51 -12 119 -7 24 -7 24 9 5 16 -20 16 -20 14
0 -4 43 2 73 15 78 10 4 12 0 9 -14 -3 -10 -1 -19 3 -19 5 0 23 -14 41 -30 17
-16 34 -26 38 -21 3 5 1 12 -5 16 -5 3 -10 15 -10 27 0 12 -8 22 -20 25 -18 5
-20 12 -18 69 2 35 6 64 10 64 4 0 5 7 2 15 -4 9 0 15 9 15 10 0 13 8 9 25 -4
22 -1 25 26 25 17 0 34 5 37 10 11 17 61 11 80 -10 10 -11 23 -20 30 -20 6 0
28 -15 48 -34 20 -18 37 -30 37 -25 0 23 -26 60 -52 71 -27 12 -39 38 -18 38
6 0 10 -4 10 -10 0 -5 4 -10 10 -10 6 0 8 14 5 33 -5 28 31 177 50 207 11 19
26 10 40 -23z m55 -165 c0 -41 -3 -53 -10 -42 -13 20 -13 113 0 105 6 -3 10
-32 10 -63z m-467 -107 c-3 -9 -8 -14 -10 -11 -3 3 -2 9 2 15 9 16 15 13 8 -4z
m21 -41 c3 -8 2 -12 -4 -9 -6 3 -10 10 -10 16 0 14 7 11 14 -7z m43 -56 c-3
-8 -6 -5 -6 6 -1 11 2 17 5 13 3 -3 4 -12 1 -19z m-32 -38 c3 -5 1 -10 -4 -10
-6 0 -11 5 -11 10 0 6 2 10 4 10 3 0 8 -4 11 -10z m-44 -117 c13 -16 12 -17
-3 -4 -10 7 -18 15 -18 17 0 8 8 3 21 -13z m1097 -46 c14 -16 -26 -90 -51 -95
-14 -3 -17 4 -17 33 0 20 5 45 10 56 12 22 42 25 58 6z m-1078 -12 c0 -8 -2
-15 -4 -15 -2 0 -6 7 -10 15 -3 8 -1 15 4 15 6 0 10 -7 10 -15z m2420 -21 c19
-35 17 -69 -5 -94 -22 -24 -48 -26 -69 -4 -24 24 -19 64 11 96 33 35 46 35 63
2z m-3896 4 c-3 -4 -9 -8 -15 -8 -5 0 -9 4 -9 8 0 5 7 9 15 9 8 0 12 -4 9 -9z
m39 -13 c-10 -13 -22 -25 -27 -25 -5 0 1 11 14 25 30 32 36 32 13 0z m82 -45
c-3 -5 -12 -10 -18 -10 -7 0 -6 4 3 10 19 12 23 12 15 0z m1282 -5 c0 -8 -4
-12 -9 -9 -5 3 -6 10 -3 15 9 13 12 11 12 -6z m-36 -17 c11 -21 11 -22 -4 -9
-10 7 -17 17 -17 22 0 15 9 10 21 -13z m39 -34 c0 -8 -4 -12 -10 -9 -5 3 -10
13 -10 21 0 8 5 12 10 9 6 -3 10 -13 10 -21z m-670 -14 c0 -5 -5 -10 -11 -10
-5 0 -7 5 -4 10 3 6 8 10 11 10 2 0 4 -4 4 -10z m1648 -80 c4 -27 -17 -44 -35
-28 -16 13 -17 30 -1 46 17 17 32 10 36 -18z m-8 -280 c17 -11 43 -29 60 -40
16 -11 35 -20 43 -20 8 0 22 -9 32 -20 10 -11 24 -20 30 -20 7 0 15 -6 18 -13
6 -16 -3 -70 -13 -77 -17 -13 -40 -57 -40 -77 0 -26 3 -27 31 -13 15 9 19 7
19 -7 0 -15 1 -15 13 -1 11 15 45 22 86 19 7 -1 11 -7 7 -16 -3 -8 0 -15 7
-15 14 0 97 -85 97 -99 0 -5 7 -14 15 -21 8 -7 15 -19 15 -27 0 -14 29 -59 62
-98 12 -15 20 -53 27 -140 8 -95 16 -132 36 -170 13 -28 32 -71 42 -97 9 -26
33 -66 54 -89 31 -35 40 -56 54 -125 18 -84 18 -107 -3 -354 -8 -90 -61 -255
-109 -337 -14 -24 -22 -43 -19 -43 13 0 -29 -107 -54 -139 -17 -21 -38 -68
-49 -111 -12 -41 -37 -120 -56 -174 -21 -61 -35 -118 -35 -148 0 -33 -9 -66
-29 -105 -16 -32 -39 -84 -51 -115 -23 -61 -45 -91 -72 -101 -9 -3 -28 -30
-43 -59 -29 -57 -46 -76 -85 -95 -89 -41 -161 -73 -167 -73 -3 0 -20 -10 -37
-23 -17 -13 -69 -42 -116 -65 -65 -33 -96 -42 -135 -42 -35 0 -60 -7 -84 -23
-67 -43 -77 -47 -132 -47 -30 0 -105 -9 -165 -19 -60 -11 -135 -22 -167 -26
-49 -6 -63 -12 -89 -41 -37 -41 -62 -43 -122 -9 -25 14 -51 25 -59 25 -7 0
-43 -18 -80 -40 -50 -30 -76 -40 -109 -40 -37 0 -51 -6 -84 -36 -55 -52 -116
-77 -183 -76 -31 1 -82 -3 -115 -8 -54 -9 -63 -7 -124 21 -59 28 -69 30 -106
20 -56 -14 -75 -16 -118 -7 -35 8 -116 -13 -142 -36 -27 -23 -138 14 -151 49
-8 25 -135 105 -225 142 -98 41 -149 77 -173 124 -11 21 -44 56 -73 78 -30 22
-54 43 -54 48 0 4 -28 23 -62 41 -64 34 -170 132 -243 225 -22 28 -56 69 -76
92 -20 24 -42 64 -50 90 -7 27 -25 68 -40 93 -29 48 -55 174 -66 321 -6 77 -5
78 20 90 21 9 42 8 114 -9 117 -28 198 -26 240 8 47 38 96 143 101 215 5 64
18 87 61 105 15 6 34 26 43 45 15 34 15 35 -16 62 -31 28 -140 86 -185 99 -33
9 -149 129 -157 162 -12 48 -38 82 -86 114 -43 27 -48 34 -48 67 0 20 7 45 15
55 23 30 19 98 -8 137 -66 97 -106 212 -93 265 4 14 16 39 28 54 18 25 19 33
9 77 -19 85 0 332 28 357 10 8 50 16 106 19 50 3 101 9 115 12 56 14 140 -74
140 -145 0 -52 8 -60 61 -60 56 0 109 -31 109 -63 0 -16 6 -19 44 -16 24 2 42
1 40 -2 -2 -4 3 -9 11 -12 9 -4 12 -1 8 9 -3 8 1 14 11 14 12 0 13 -5 7 -22
-5 -13 -16 -22 -26 -21 -12 1 -14 -4 -9 -15 3 -10 7 -23 7 -29 0 -7 3 -13 6
-14 41 -6 58 -5 69 4 7 5 15 7 19 4 3 -4 -2 -9 -11 -13 -9 -3 -16 -11 -16 -16
0 -14 103 -4 108 11 7 20 20 12 15 -10 -4 -15 0 -22 16 -26 13 -3 20 -11 17
-19 -4 -10 3 -14 22 -14 26 0 25 -1 -13 -25 -43 -26 -43 -31 0 -15 23 9 26 8
21 -5 -7 -19 -3 -19 37 0 29 14 30 14 13 0 -17 -13 -15 -19 5 -17 3 1 4 -10 1
-24 -4 -23 -4 -24 24 -9 30 15 50 10 21 -6 -9 -6 -17 -18 -17 -28 0 -29 -25
-45 -49 -32 -29 16 -87 13 -101 -4 -20 -24 6 -62 57 -85 30 -13 43 -25 43 -39
0 -27 27 -33 110 -25 49 5 70 3 70 -5 0 -6 16 -11 38 -11 46 0 67 -15 77 -55
10 -40 7 -108 -5 -140 -6 -15 -10 -44 -10 -66 0 -21 -4 -39 -10 -39 -5 0 -10
-15 -10 -32 0 -19 -10 -45 -23 -61 l-22 -28 -37 27 c-42 30 -47 48 -19 78 23
26 38 98 20 94 -7 -2 -15 6 -17 17 -7 35 -18 37 -49 8 -37 -34 -58 -112 -44
-160 10 -34 -13 -131 -37 -155 -7 -7 -12 -16 -12 -20 0 -12 -98 -108 -110
-108 -19 0 -10 -45 14 -72 13 -16 26 -28 30 -28 11 0 141 -63 144 -70 4 -9 82
12 82 22 0 16 30 7 73 -22 25 -16 54 -30 65 -30 11 0 22 -5 24 -11 3 -8 19 -4
47 11 48 24 111 21 111 -5 0 -8 7 -15 15 -15 8 0 15 -5 15 -11 0 -6 17 -9 43
-7 l42 3 3 45 c2 24 7 47 11 50 5 3 11 27 13 54 4 30 2 43 -3 35 -6 -10 -9 -8
-9 9 0 12 5 22 10 22 6 0 10 9 10 20 0 16 7 20 30 20 28 0 30 2 30 40 0 32 -4
40 -18 40 -23 0 -65 56 -66 88 -1 14 -10 30 -21 36 -11 6 -23 15 -27 21 -4 6
-23 -7 -43 -30 -29 -31 -38 -36 -46 -24 -7 12 -9 12 -9 -1 0 -13 -1 -13 -10 0
-13 20 -13 150 0 150 6 0 10 20 10 44 0 25 5 48 11 52 6 3 17 22 25 40 9 21
23 36 39 40 27 7 36 44 11 44 -8 0 -18 5 -22 11 -4 7 3 10 17 9 40 -4 47 -1
45 18 0 11 13 24 39 37 35 17 59 19 200 18 88 -1 183 -4 210 -7 28 -2 55 0 62
5 6 6 49 9 95 7 95 -3 149 4 209 28 l41 17 -5 49 c-4 29 -2 46 3 43 13 -8 52
14 45 25 -3 4 -1 20 5 34 8 21 14 25 33 20 19 -4 25 -1 30 16 4 17 10 20 29
15 22 -7 21 -5 -7 26 l-30 33 29 -22 c16 -12 38 -22 49 -22 20 0 20 0 1 18
-44 40 -45 47 -6 46 21 -1 46 -5 57 -9 14 -5 12 -1 -7 15 -34 27 -35 36 -4 35
33 -2 87 -26 80 -36 -3 -5 -1 -9 4 -9 5 0 21 -11 36 -25 33 -30 52 -32 66 -5
6 11 17 20 25 20 9 0 12 6 8 18 -5 14 -3 15 8 5 18 -18 32 -16 25 2 -3 9 0 15
9 15 8 0 15 5 15 10 0 6 -8 10 -17 10 -24 0 -3 18 26 22 29 4 39 38 11 38 -10
0 -22 5 -26 11 -5 8 6 9 35 4 55 -9 54 11 -1 24 l-43 10 53 -4 c45 -4 52 -2
52 13 0 10 11 33 25 52 14 19 25 46 25 61 0 15 5 29 11 31 6 2 13 25 16 51 3
26 10 50 14 53 5 3 9 13 9 22 1 23 46 55 79 54 14 -1 38 4 54 10 22 8 27 17
27 44 0 19 4 34 8 34 12 0 72 88 72 105 0 15 26 34 48 35 7 0 26 -9 42 -20z
m-545 -47 c13 -18 10 -43 -6 -43 -4 0 -6 7 -3 15 4 8 1 22 -6 30 -7 8 -9 15
-5 15 4 0 13 -8 20 -17z m-30 -53 c3 -5 1 -10 -4 -10 -6 0 -11 5 -11 10 0 6 2
10 4 10 3 0 8 -4 11 -10z m-20 -40 c3 -5 2 -10 -4 -10 -5 0 -13 5 -16 10 -3 6
-2 10 4 10 5 0 13 -4 16 -10z m-35 -140 c8 -5 11 -10 5 -10 -5 0 -17 5 -25 10
-8 5 -10 10 -5 10 6 0 17 -5 25 -10z m45 -40 c3 -6 -1 -7 -9 -4 -18 7 -21 14
-7 14 6 0 13 -4 16 -10z m-265 -50 c9 -17 8 -20 -9 -20 -17 0 -20 10 -12 38 3
7 12 0 21 -18z m253 -37 c-7 -2 -19 -2 -25 0 -7 3 -2 5 12 5 14 0 19 -2 13 -5z
m-28 -91 c-3 -3 -11 0 -18 7 -9 10 -8 11 6 5 10 -3 15 -9 12 -12z m-1675 -68
c0 -2 -9 0 -20 6 -11 6 -20 13 -20 16 0 2 9 0 20 -6 11 -6 20 -13 20 -16z
m1720 10 c0 -8 -5 -12 -10 -9 -6 4 -8 11 -5 16 9 14 15 11 15 -7z m-117 -18
c4 -10 1 -13 -9 -9 -7 3 -14 9 -14 14 0 14 17 10 23 -5z m-1573 -16 c0 -5 -2
-10 -4 -10 -3 0 -8 5 -11 10 -3 6 -1 10 4 10 6 0 11 -4 11 -10z m27 -10 c-1
-11 -5 -20 -9 -20 -4 0 -8 9 -8 20 0 11 4 20 9 20 6 0 9 -9 8 -20z m1078 0
c-3 -5 -14 -10 -23 -10 -15 0 -15 2 -2 10 20 13 33 13 25 0z m530 -28 c-3 -3
-11 0 -18 7 -9 10 -8 11 6 5 10 -3 15 -9 12 -12z m-1082 1 c-7 -2 -21 -2 -30
0 -10 3 -4 5 12 5 17 0 24 -2 18 -5z m-813 -18 c-7 -8 -18 -15 -24 -14 -6 0
-5 3 3 6 11 5 11 7 0 14 -10 6 -7 9 10 9 20 0 21 -2 11 -15z m3770 -538 c0
-29 -19 -57 -39 -57 -15 0 -25 48 -13 63 5 6 12 25 16 42 l8 30 13 -25 c8 -14
14 -38 15 -53z m-3220 -647 c0 -5 -9 -10 -20 -10 -11 0 -20 5 -20 10 0 6 9 10
20 10 11 0 20 -4 20 -10z m1897 -1475 c11 -8 23 -25 27 -39 6 -25 -30 -219
-59 -319 -19 -65 -46 -88 -83 -68 -49 26 -57 190 -16 313 40 120 76 151 131
113z"/>
<path d="M8282 4810 c0 -14 2 -19 5 -12 2 6 2 18 0 25 -3 6 -5 1 -5 -13z"/>
<path d="M6471 4724 c0 -11 3 -14 6 -6 3 7 2 16 -1 19 -3 4 -6 -2 -5 -13z"/>
<path d="M8312 4660 c0 -19 2 -27 5 -17 2 9 2 25 0 35 -3 9 -5 1 -5 -18z"/>
<path d="M6560 4550 c0 -19 3 -21 12 -12 9 9 9 15 0 24 -9 9 -12 7 -12 -12z"/>
<path d="M6550 4515 c0 -5 5 -17 10 -25 5 -8 10 -10 10 -5 0 6 -5 17 -10 25
-5 8 -10 11 -10 5z"/>
<path d="M6722 4484 c-12 -8 -22 -25 -21 -37 1 -21 1 -21 12 3 7 14 18 25 26
25 8 0 16 6 19 13 5 16 -9 15 -36 -4z"/>
<path d="M8165 4479 c-4 -6 -4 -13 -1 -16 3 -4 6 -1 6 5 0 6 7 9 17 5 11 -4
14 -3 9 5 -9 15 -23 15 -31 1z"/>
<path d="M6565 4459 c-4 -6 -5 -12 -2 -15 2 -3 7 2 10 11 7 17 1 20 -8 4z"/>
<path d="M6930 4459 c0 -5 5 -7 10 -4 6 3 10 8 10 11 0 2 -4 4 -10 4 -5 0 -10
-5 -10 -11z"/>
<path d="M7283 4453 c-4 -10 -10 -21 -15 -24 -4 -3 -10 -27 -12 -55 -2 -27 -6
-56 -9 -64 -3 -8 -8 -31 -10 -50 -3 -19 -8 -43 -12 -52 -4 -10 -3 -18 3 -18
15 0 35 56 27 80 -5 15 0 26 17 40 18 14 20 21 11 31 -14 14 -7 64 14 96 10
14 11 23 3 28 -5 3 -13 -2 -17 -12z"/>
<path d="M7635 4431 c0 -22 3 -42 6 -46 9 -8 22 63 14 75 -12 20 -20 9 -20
-29z"/>
<path d="M7724 4435 c4 -16 8 -40 8 -52 0 -13 4 -23 10 -23 5 0 7 -4 3 -9 -3
-5 -1 -12 5 -16 6 -4 8 -11 5 -16 -4 -5 -1 -9 4 -9 15 0 14 16 -7 82 -19 61
-40 93 -28 43z"/>
<path d="M7125 4431 c-7 -12 12 -24 25 -16 11 7 4 25 -10 25 -5 0 -11 -4 -15
-9z"/>
<path d="M6876 4410 c-12 -37 -17 -115 -7 -105 15 15 30 91 20 106 -6 11 -9
11 -13 -1z"/>
<path d="M7076 4411 c-4 -7 -5 -15 -2 -18 9 -9 19 4 14 18 -4 11 -6 11 -12 0z"/>
<path d="M7890 4390 c0 -5 5 -10 11 -10 5 0 7 5 4 10 -3 6 -8 10 -11 10 -2 0
-4 -4 -4 -10z"/>
<path d="M8030 4383 c0 -5 5 -15 10 -23 8 -12 10 -11 10 8 0 12 -4 22 -10 22
-5 0 -10 -3 -10 -7z"/>
<path d="M7055 4370 c-3 -5 -1 -10 4 -10 6 0 11 5 11 10 0 6 -2 10 -4 10 -3 0
-8 -4 -11 -10z"/>
<path d="M7516 4322 c0 -26 8 -64 17 -86 9 -21 17 -45 17 -53 0 -8 4 -12 10
-8 5 3 15 -14 21 -37 11 -37 13 -39 17 -18 2 14 -8 48 -23 80 -39 77 -45 93
-43 110 2 30 -2 60 -9 60 -5 0 -8 -21 -7 -48z"/>
<path d="M7620 4336 c0 -16 -4 -25 -10 -21 -5 3 -10 1 -10 -6 0 -21 41 -99 52
-99 6 0 8 -11 4 -25 -4 -14 -2 -25 4 -25 5 0 13 11 16 26 5 18 1 31 -14 47
-12 13 -23 42 -27 71 -6 56 -15 74 -15 32z"/>
<path d="M7840 4325 c0 -19 5 -35 10 -35 6 0 10 16 10 35 0 19 -4 35 -10 35
-5 0 -10 -16 -10 -35z"/>
<path d="M7936 4342 c-4 -7 -1 -26 7 -44 24 -54 64 -152 70 -170 4 -10 10 -18
15 -18 15 0 6 59 -11 78 -8 9 -21 37 -28 62 -7 25 -16 47 -21 50 -4 3 -11 16
-16 29 -6 16 -11 20 -16 13z"/>
<path d="M6781 4314 c0 -11 3 -14 6 -6 3 7 2 16 -1 19 -3 4 -6 -2 -5 -13z"/>
<path d="M7168 4275 c2 -19 8 -35 13 -35 10 0 12 31 3 54 -11 28 -20 17 -16
-19z"/>
<path d="M7076 4273 c-4 -16 -10 -37 -13 -48 -5 -16 -3 -18 8 -8 8 7 16 28 17
48 3 42 -3 46 -12 8z"/>
<path d="M7741 4268 c-1 -19 4 -28 14 -28 8 0 15 5 15 10 0 6 -4 10 -9 10 -5
0 -12 8 -14 18 -3 10 -5 6 -6 -10z"/>
<path d="M6787 4273 c-4 -3 -7 -13 -7 -22 1 -13 3 -13 11 2 11 19 8 33 -4 20z"/>
<path d="M7789 4261 c-1 -12 -2 -25 -3 -29 -1 -5 12 -25 29 -46 16 -20 33 -42
37 -49 4 -6 10 -8 15 -4 4 5 3 11 -3 15 -6 4 -19 22 -28 40 -9 17 -21 32 -27
32 -7 0 -9 11 -7 25 3 14 1 28 -3 31 -5 3 -10 -4 -10 -15z"/>
<path d="M7295 4231 c-3 -10 -5 -23 -4 -27 5 -27 -3 -54 -15 -54 -9 0 -17 -16
-21 -42 -4 -24 -18 -56 -31 -71 -13 -16 -24 -36 -23 -45 0 -15 2 -14 12 2 7
11 24 32 39 47 15 15 24 30 21 33 -3 3 2 24 12 48 10 24 19 62 21 86 3 45 -1
54 -11 23z"/>
<path d="M7196 4219 c-2 -8 -6 -27 -9 -44 -2 -16 -8 -38 -12 -47 -4 -10 -3
-18 2 -18 12 0 39 107 30 116 -4 4 -9 1 -11 -7z"/>
<path d="M7515 4210 c3 -5 8 -10 11 -10 2 0 4 5 4 10 0 6 -5 10 -11 10 -5 0
-7 -4 -4 -10z"/>
<path d="M7905 4210 c3 -5 8 -10 11 -10 2 0 4 5 4 10 0 6 -5 10 -11 10 -5 0
-7 -4 -4 -10z"/>
<path d="M7030 4184 c-11 -27 -13 -51 -5 -42 8 8 25 68 19 68 -2 0 -9 -12 -14
-26z"/>
<path d="M7415 4157 c-4 -10 -5 -21 -1 -24 10 -10 18 4 13 24 -4 17 -4 17 -12
0z"/>
<path d="M7650 4130 c0 -60 13 -131 22 -118 10 15 0 119 -13 133 -5 5 -9 -1
-9 -15z"/>
<path d="M7521 4098 c-1 -16 2 -28 7 -28 7 0 34 -54 46 -92 3 -10 10 -18 16
-18 13 0 3 46 -17 76 -8 13 -11 32 -7 48 7 29 -10 36 -21 9 -7 -16 -9 -15 -15
7 l-8 25 -1 -27z"/>
<path d="M7424 4086 c-3 -14 -4 -33 -2 -43 2 -11 8 -2 15 25 6 23 7 42 2 42
-5 0 -11 -11 -15 -24z"/>
<path d="M6980 4080 c0 -5 5 -10 10 -10 6 0 10 5 10 10 0 6 -4 10 -10 10 -5 0
-10 -4 -10 -10z"/>
<path d="M6977 4036 c-4 -10 -5 -21 -2 -24 9 -9 17 6 13 25 -3 17 -4 17 -11
-1z"/>
<path d="M7430 3989 c0 -11 -4 -18 -9 -15 -5 3 -8 -5 -7 -19 1 -23 2 -24 14
-8 12 16 17 63 7 63 -3 0 -5 -9 -5 -21z"/>
<path d="M7176 3923 c-6 -14 -5 -15 5 -6 7 7 10 15 7 18 -3 3 -9 -2 -12 -12z"/>
<path d="M7435 3730 c3 -5 11 -10 16 -10 6 0 7 5 4 10 -3 6 -11 10 -16 10 -6
0 -7 -4 -4 -10z"/>
<path d="M7868 3553 c7 -3 16 -2 19 1 4 3 -2 6 -13 5 -11 0 -14 -3 -6 -6z"/>
<path d="M7530 3500 c0 -14 7 -20 24 -20 23 0 41 22 29 34 -4 3 -17 6 -30 6
-16 0 -23 -6 -23 -20z"/>
<path d="M6430 3454 c-13 -4 -18 -44 -11 -83 1 -2 10 4 20 13 11 10 25 15 32
10 9 -5 10 -2 6 9 -3 9 -1 18 6 21 7 2 -4 5 -23 6 -34 1 -34 2 -10 11 14 6 33
8 42 5 10 -2 18 0 18 5 0 9 -51 11 -80 3z"/>
<path d="M6478 3338 c9 -9 15 -9 24 0 9 9 7 12 -12 12 -19 0 -21 -3 -12 -12z"/>
<path d="M6785 3009 c-4 -12 -3 -25 3 -31 6 -6 11 1 14 21 5 35 -7 42 -17 10z"/>
<path d="M7360 2460 c0 -5 6 -10 14 -10 8 0 18 5 21 10 3 6 -3 10 -14 10 -12
0 -21 -4 -21 -10z"/>
<path d="M6950 8134 c0 -8 5 -12 10 -9 6 4 8 11 5 16 -9 14 -15 11 -15 -7z"/>
<path d="M12818 7693 c12 -2 32 -2 45 0 12 2 2 4 -23 4 -25 0 -35 -2 -22 -4z"/>
<path d="M12800 7653 c-1 -26 -35 -63 -59 -63 -17 0 -21 -6 -21 -36 0 -27 -5
-37 -20 -41 -16 -4 -20 -14 -20 -44 0 -32 -3 -39 -20 -39 -13 0 -20 7 -20 20
0 11 -4 20 -9 20 -19 0 -41 -45 -41 -82 0 -31 -4 -38 -20 -38 -13 0 -18 -5
-14 -15 5 -12 24 -15 85 -15 64 0 79 3 79 15 0 8 4 15 9 15 5 0 23 14 40 31
26 26 31 38 31 79 0 44 4 54 40 90 33 34 40 48 40 80 0 40 0 40 -40 40 -31 0
-40 -4 -40 -17z"/>
<path d="M15538 7663 c12 -2 32 -2 45 0 12 2 2 4 -23 4 -25 0 -35 -2 -22 -4z"/>
<path d="M12283 7465 c-30 -31 -29 -35 7 -35 27 0 30 3 30 30 0 36 -8 37 -37
5z"/>
<path d="M10989 7448 c-4 -14 -9 -50 -12 -80 -1 -20 -6 -40 -10 -44 -4 -4 -7
-25 -7 -46 0 -47 -21 -51 -47 -8 -21 37 -46 46 -83 30 -35 -15 -44 -38 -30
-75 8 -21 8 -30 -1 -36 -9 -5 -10 -23 -4 -66 10 -66 8 -170 -4 -258 -14 -97
-7 -341 12 -408 21 -72 21 -103 2 -157 -17 -49 -18 -53 -7 -47 4 3 13 -1 20
-9 7 -8 10 -14 7 -14 -3 0 1 -10 9 -22 17 -27 15 -130 -3 -136 -6 -2 -11 -19
-11 -37 0 -19 -4 -37 -10 -40 -5 -3 -10 0 -10 8 0 8 -14 17 -32 20 -18 3 -41
8 -50 12 -13 5 -19 -2 -26 -32 -15 -56 -32 -156 -32 -182 0 -32 44 -71 79 -71
16 0 31 -7 35 -15 8 -22 26 -18 26 5 0 31 32 90 49 90 41 0 88 -100 117 -248
2 -12 13 -46 23 -75 11 -29 19 -67 19 -86 1 -28 44 -136 61 -151 13 -11 31
-79 31 -118 0 -29 4 -42 14 -42 10 0 16 22 21 80 5 58 11 80 21 80 8 0 14 4
14 8 0 4 13 13 30 19 17 6 34 23 41 40 6 15 15 36 20 46 16 31 37 101 42 143
10 81 60 144 103 127 8 -3 14 0 14 6 0 6 6 11 13 11 22 1 49 50 49 93 0 23 -7
66 -17 95 -25 75 -17 141 25 200 25 34 35 61 37 97 6 75 -12 219 -40 320 -14
50 -33 133 -42 185 -9 52 -20 122 -26 155 -6 36 -7 109 -2 185 12 213 10 300
-10 353 -29 74 -62 84 -117 36 -41 -37 -76 -52 -95 -42 -7 5 -29 23 -49 41
-19 17 -42 32 -50 32 -7 0 -19 7 -26 15 -10 12 -78 22 -81 13z"/>
<path d="M12418 7433 c12 -2 32 -2 45 0 12 2 2 4 -23 4 -25 0 -35 -2 -22 -4z"/>
<path d="M5237 7283 c-11 -10 13 -33 34 -33 25 0 24 16 0 30 -23 12 -26 12
-34 3z"/>
<path d="M8090 7056 c0 -2 7 -9 15 -16 9 -7 15 -8 15 -2 0 5 -7 12 -15 16 -8
3 -15 4 -15 2z"/>
<path d="M385 7020 c3 -5 8 -10 11 -10 2 0 4 5 4 10 0 6 -5 10 -11 10 -5 0 -7
-4 -4 -10z"/>
<path d="M3326 6987 c-29 -43 -29 -123 -2 -247 14 -63 32 -135 41 -159 8 -24
15 -60 15 -81 0 -21 10 -66 21 -101 18 -52 22 -86 21 -176 -2 -209 -28 -379
-65 -434 -22 -33 -25 -130 -7 -214 20 -90 30 -100 98 -100 31 -1 71 -4 89 -9
27 -6 36 -3 61 21 39 37 49 58 57 118 10 79 31 124 57 125 18 0 63 -90 73
-144 13 -70 33 -90 64 -62 37 33 49 93 56 261 3 88 8 185 11 215 4 44 1 60
-14 79 -18 23 -23 24 -71 14 l-51 -10 0 38 c0 39 -55 156 -90 189 -36 35 -80
193 -87 315 -3 44 -8 84 -12 90 -5 5 -11 23 -15 39 -4 16 -18 43 -30 60 -13
17 -29 49 -36 71 -18 56 -94 125 -137 125 -23 0 -37 -7 -47 -23z"/>
<path d="M9482 6918 c-5 -7 -12 -33 -14 -58 -4 -37 2 -59 33 -125 21 -44 47
-85 58 -92 15 -10 19 -22 17 -68 -1 -37 -7 -61 -16 -69 -8 -6 -20 -20 -26 -31
-7 -11 -19 -19 -29 -17 -16 3 -65 -40 -65 -57 0 -5 -7 -14 -15 -21 -8 -7 -15
-20 -15 -30 0 -10 -7 -23 -15 -30 -13 -11 -5 -19 50 -54 36 -22 65 -44 65 -48
0 -3 -36 13 -80 37 l-79 43 80 -76 c44 -41 94 -87 112 -101 18 -14 57 -52 87
-83 29 -32 57 -58 62 -58 5 0 19 7 32 15 25 17 26 55 1 55 -7 0 -15 6 -18 14
-5 12 4 13 49 9 l54 -6 0 29 c0 16 9 51 19 79 28 73 45 193 47 332 2 121 1
123 -28 170 -17 27 -48 63 -69 81 -22 19 -39 40 -39 47 0 18 -31 35 -63 35
-13 0 -32 9 -42 20 -16 18 -117 70 -135 70 -4 0 -12 -6 -18 -12z m85 -720 c29
-13 38 -21 62 -51 12 -15 11 -17 -7 -17 -11 0 -39 18 -62 40 -43 41 -41 49 7
28z"/>
<path d="M8100 6913 c1 -20 33 -48 56 -48 l25 -1 -23 18 c-33 27 -58 40 -58
31z"/>
<path d="M8190 6896 c0 -2 7 -7 16 -10 8 -3 12 -2 9 4 -6 10 -25 14 -25 6z"/>
<path d="M6315 6870 c-3 -5 -2 -10 4 -10 5 0 13 5 16 10 3 6 2 10 -4 10 -5 0
-13 -4 -16 -10z"/>
<path d="M12071 6833 l-1 -43 45 0 c33 0 45 4 45 15 0 11 -11 15 -39 15 -36 0
-40 3 -44 28 -3 19 -4 14 -6 -15z"/>
<path d="M7980 6832 c0 -5 7 -13 16 -16 10 -4 14 -1 12 6 -5 15 -28 23 -28 10z"/>
<path d="M8120 6836 c0 -3 15 -15 33 -27 23 -17 28 -18 18 -6 -14 18 -51 42
-51 33z"/>
<path d="M12130 6706 c0 -2 7 -9 15 -16 12 -10 15 -10 15 4 0 9 -7 16 -15 16
-8 0 -15 -2 -15 -4z"/>
<path d="M6279 6673 c-13 -16 -12 -17 4 -4 9 7 17 15 17 17 0 8 -8 3 -21 -13z"/>
<path d="M8237 6659 c12 -12 25 -20 28 -17 3 3 -7 13 -22 23 l-28 17 22 -23z"/>
<path d="M6365 6620 c-27 -27 -46 -52 -43 -55 3 -3 11 1 18 10 18 22 33 18 20
-5 -18 -33 3 -22 29 15 13 19 27 35 31 35 4 0 8 11 8 25 0 14 -3 25 -7 25 -4
0 -29 -22 -56 -50z"/>
<path d="M6440 6655 c-8 -9 -8 -15 -2 -15 12 0 26 19 19 26 -2 2 -10 -2 -17
-11z"/>
<path d="M5160 6550 c-8 -5 -10 -10 -5 -10 6 0 17 5 25 10 8 5 11 10 5 10 -5
0 -17 -5 -25 -10z"/>
<path d="M850 6541 c0 -5 7 -14 15 -21 13 -10 15 -9 15 9 0 12 -6 21 -15 21
-8 0 -15 -4 -15 -9z"/>
<path d="M5256 6528 c5 -8 1 -9 -10 -5 -16 6 -186 -70 -186 -84 0 -11 288 -11
295 0 3 7 -2 11 -14 11 -13 0 -19 5 -15 14 3 9 -3 17 -15 21 -11 3 -20 9 -20
13 4 24 -4 38 -21 39 -13 1 -18 -2 -14 -9z"/>
<path d="M8060 6522 c0 -12 19 -26 26 -19 2 2 -2 10 -11 17 -9 8 -15 8 -15 2z"/>
<path d="M6404 6488 l-19 -23 23 19 c21 18 27 26 19 26 -2 0 -12 -10 -23 -22z"/>
<path d="M8158 6490 c12 -11 27 -20 34 -20 7 0 2 9 -12 20 -33 26 -50 26 -22
0z"/>
<path d="M14932 6488 c-7 -7 -12 -27 -12 -45 l0 -33 61 0 c48 0 60 -3 56 -14
-4 -10 0 -12 14 -9 18 5 18 7 4 23 -8 9 -15 29 -15 43 0 25 -3 27 -40 27 -22
0 -40 5 -40 10 0 14 -13 13 -28 -2z"/>
<path d="M5075 6480 c-3 -6 1 -7 9 -4 18 7 21 14 7 14 -6 0 -13 -4 -16 -10z"/>
<path d="M6355 6470 c-4 -6 -21 -17 -38 -24 -25 -11 -28 -15 -11 -15 11 -1 31
10 44 24 13 14 21 25 17 25 -3 0 -9 -5 -12 -10z"/>
<path d="M8130 6461 c0 -15 109 -126 116 -118 3 2 -22 33 -56 67 -33 35 -60
58 -60 51z"/>
<path d="M6387 6383 c-4 -3 -7 -11 -7 -17 0 -6 5 -5 12 2 6 6 9 14 7 17 -3 3
-9 2 -12 -2z"/>
<path d="M6467 6363 c-9 -9 -57 -110 -57 -120 0 -14 30 34 50 81 19 45 20 53
7 39z"/>
<path d="M8134 6351 c4 -6 16 -16 28 -22 15 -8 18 -8 14 0 -4 6 -16 16 -28 22
-15 8 -18 8 -14 0z"/>
<path d="M6211 6275 c-29 -43 -33 -59 -8 -32 27 29 57 77 48 77 -5 0 -23 -20
-40 -45z"/>
<path d="M8217 6309 c7 -7 15 -10 18 -7 3 3 -2 9 -12 12 -14 6 -15 5 -6 -5z"/>
<path d="M6273 6286 c-15 -13 -25 -27 -22 -30 3 -3 18 8 34 24 35 36 27 40
-12 6z"/>
<path d="M6339 6249 c-33 -33 -51 -55 -40 -49 26 13 27 4 4 -24 -10 -12 -3 -8
15 8 17 17 32 34 32 40 0 6 17 27 37 48 20 21 31 38 24 38 -7 0 -40 -27 -72
-61z"/>
<path d="M15080 6290 c0 -24 3 -24 40 -5 39 20 38 25 -5 25 -28 0 -35 -4 -35
-20z"/>
<path d="M6260 6235 c-7 -8 -9 -15 -4 -15 4 0 3 -5 -4 -12 -18 -18 -15 -33 3
-18 9 7 14 18 12 24 -2 6 3 16 12 23 9 7 11 13 5 13 -6 0 -17 -7 -24 -15z"/>
<path d="M8214 6235 c11 -8 25 -15 30 -15 6 0 2 7 -8 15 -11 8 -25 15 -30 15
-6 0 -2 -7 8 -15z"/>
<path d="M8098 6233 c7 -3 16 -2 19 1 4 3 -2 6 -13 5 -11 0 -14 -3 -6 -6z"/>
<path d="M8130 6216 c0 -2 7 -7 16 -10 8 -3 12 -2 9 4 -6 10 -25 14 -25 6z"/>
<path d="M5324 6148 c-47 -35 -49 -38 -28 -38 11 0 30 14 42 30 27 36 24 37
-14 8z"/>
<path d="M8183 6146 c15 -14 27 -28 26 -32 0 -3 3 -9 7 -12 4 -4 4 -1 0 6 -10
17 0 15 32 -5 l27 -17 -20 23 c-11 13 -38 32 -60 43 l-40 19 28 -25z"/>
<path d="M6305 6130 c-10 -11 -16 -22 -13 -25 3 -3 13 4 23 15 10 11 16 22 13
25 -3 3 -13 -4 -23 -15z"/>
<path d="M5345 6120 c-3 -5 -1 -10 4 -10 6 0 11 5 11 10 0 6 -2 10 -4 10 -3 0
-8 -4 -11 -10z"/>
<path d="M6223 6099 c-36 -33 -43 -45 -15 -28 15 10 57 59 50 59 -2 0 -18 -14
-35 -31z"/>
<path d="M15645 6120 c-7 -12 2 -30 16 -30 5 0 9 9 9 20 0 21 -15 27 -25 10z"/>
<path d="M8277 6109 c7 -7 15 -10 18 -7 3 3 -2 9 -12 12 -14 6 -15 5 -6 -5z"/>
<path d="M8295 6060 c10 -11 20 -18 23 -15 7 6 -18 35 -31 35 -5 0 -2 -9 8
-20z"/>
<path d="M6220 6035 c-7 -8 -8 -15 -2 -15 5 0 15 7 22 15 7 8 8 15 2 15 -5 0
-15 -7 -22 -15z"/>
<path d="M8264 6028 c6 -10 15 -18 19 -18 5 0 22 -14 38 -31 16 -17 29 -27 29
-22 0 5 -13 22 -30 38 -16 16 -30 34 -30 40 0 6 -8 11 -19 11 -15 0 -17 -3 -7
-18z"/>
<path d="M6125 6010 c-3 -5 -1 -10 4 -10 6 0 11 5 11 10 0 6 -2 10 -4 10 -3 0
-8 -4 -11 -10z"/>
<path d="M8230 5976 c0 -10 62 -76 72 -76 4 0 8 5 8 10 0 6 -8 10 -17 10 -14
0 -15 2 -5 9 12 7 12 12 1 30 -16 25 -34 28 -25 4 6 -15 4 -15 -14 2 -11 10
-20 15 -20 11z"/>
<path d="M9260 5970 c0 -5 5 -10 11 -10 5 0 7 5 4 10 -3 6 -8 10 -11 10 -2 0
-4 -4 -4 -10z"/>
<path d="M6065 5960 c-3 -5 -1 -10 4 -10 6 0 11 5 11 10 0 6 -2 10 -4 10 -3 0
-8 -4 -11 -10z"/>
<path d="M8318 5944 c13 -25 42 -50 42 -37 0 5 -12 20 -26 34 -24 21 -26 22
-16 3z"/>
<path d="M8406 5936 c3 -8 13 -17 22 -21 13 -5 13 -2 -3 15 -21 24 -26 25 -19
6z"/>
<path d="M11751 5926 c-9 -11 -9 -15 0 -18 9 -3 7 -12 -5 -30 -22 -34 -38
-140 -22 -150 19 -13 64 -9 80 7 8 8 19 15 25 15 6 0 11 7 11 15 0 8 9 19 19
25 11 5 23 19 26 30 3 11 13 20 21 20 9 0 14 10 14 28 -1 22 -9 31 -48 50 -53
25 -104 29 -121 8z"/>
<path d="M5991 5912 c-17 -31 -13 -40 5 -14 9 13 14 26 11 29 -3 2 -10 -4 -16
-15z"/>
<path d="M6010 5895 c-11 -13 -10 -14 4 -9 9 3 16 10 16 15 0 13 -6 11 -20 -6z"/>
<path d="M6150 5885 c-11 -13 -10 -14 4 -9 9 3 16 10 16 15 0 13 -6 11 -20 -6z"/>
<path d="M5935 5850 c-10 -11 -16 -22 -13 -25 3 -3 13 4 23 15 10 11 16 22 13
25 -3 3 -13 -4 -23 -15z"/>
<path d="M9190 5816 c0 -2 7 -7 16 -10 8 -3 12 -2 9 4 -6 10 -25 14 -25 6z"/>
<path d="M5924 5778 l-19 -21 28 18 c28 18 33 25 19 25 -5 0 -17 -10 -28 -22z"/>
<path d="M8323 5762 c1 -14 5 -18 11 -12 7 7 6 14 -1 21 -9 9 -12 7 -10 -9z"/>
<path d="M5847 5753 c-4 -3 -7 -13 -7 -22 1 -13 3 -13 11 2 11 19 8 33 -4 20z"/>
<path d="M8310 5713 c1 -5 15 -24 31 -43 l31 -35 -21 43 c-19 37 -42 57 -41
35z"/>
<path d="M5820 5660 c0 -5 5 -10 10 -10 6 0 10 5 10 10 0 6 -4 10 -10 10 -5 0
-10 -4 -10 -10z"/>
<path d="M8391 5653 c7 -10 21 -27 30 -38 9 -11 16 -35 16 -54 -1 -28 3 -35
21 -36 12 -1 22 2 22 7 0 16 -40 87 -64 112 -26 29 -46 35 -25 9z"/>
<path d="M10748 5613 c-16 -2 -28 -11 -28 -18 0 -8 -9 -19 -20 -25 -21 -11
-28 -60 -9 -60 8 0 10 -17 7 -50 -5 -47 -4 -49 25 -59 34 -12 74 -52 79 -78 2
-10 10 -19 19 -21 22 -4 31 58 19 128 -6 30 -14 84 -18 120 -8 70 -11 73 -74
63z"/>
<path d="M8536 5545 c4 -8 8 -15 10 -15 2 0 4 7 4 15 0 8 -4 15 -10 15 -5 0
-7 -7 -4 -15z"/>
<path d="M8610 5371 c0 -5 5 -13 10 -16 6 -3 10 -2 10 4 0 5 -4 13 -10 16 -5
3 -10 2 -10 -4z"/>
<path d="M4036 5335 c-3 -8 -12 -15 -21 -15 -9 0 -15 -9 -15 -25 0 -14 4 -25
9 -25 5 0 12 -12 15 -26 5 -19 12 -24 28 -22 48 7 44 127 -3 128 -4 0 -9 -7
-13 -15z"/>
<path d="M10619 5288 c-18 -68 -19 -109 -5 -172 15 -62 12 -86 -9 -86 -20 0
-45 -46 -45 -83 0 -32 3 -35 36 -40 19 -3 41 -4 48 -1 17 7 26 49 26 123 0 31
5 85 10 121 11 74 -1 134 -31 163 -18 16 -19 15 -30 -25z"/>
<path d="M3353 5217 c-13 -14 -15 -21 -5 -24 6 -3 12 -19 12 -37 0 -18 4 -36
8 -41 5 -6 14 -35 22 -65 7 -30 21 -62 31 -71 11 -9 19 -27 20 -40 0 -15 3
-19 6 -9 3 8 11 19 17 23 8 6 8 10 -1 13 -7 3 -9 12 -6 20 3 8 1 20 -4 27 -5
6 -10 43 -12 81 -5 115 -45 172 -88 123z"/>
<path d="M3481 4894 c0 -11 3 -14 6 -6 3 7 2 16 -1 19 -3 4 -6 -2 -5 -13z"/>
<path d="M3680 4639 c-14 -4 -37 -11 -52 -14 -23 -4 -28 -12 -34 -50 -3 -25
-3 -61 0 -81 5 -22 3 -41 -5 -50 -9 -11 -9 -18 -1 -26 7 -7 12 -28 12 -48 0
-38 41 -100 66 -100 8 0 14 -6 14 -12 0 -13 42 49 46 67 17 84 26 136 29 165
3 19 7 50 10 68 4 19 3 47 0 63 -5 24 -12 29 -33 28 -15 -1 -38 -5 -52 -10z"/>
<path d="M3040 3414 c0 -8 5 -12 10 -9 6 3 10 10 10 16 0 5 -4 9 -10 9 -5 0
-10 -7 -10 -16z"/>
<path d="M3180 3376 c-20 -20 -9 -26 45 -26 40 0 55 4 55 14 0 17 -85 27 -100
12z"/>
<path d="M3200 3226 c0 -8 -6 -16 -12 -19 -10 -4 -10 -7 0 -18 10 -11 12 -10
12 4 0 13 9 17 40 17 29 0 40 4 40 15 0 11 -11 15 -40 15 -28 0 -40 -4 -40
-14z"/>
<path d="M4121 2671 c-20 -13 -5 -41 22 -41 22 0 57 27 57 43 0 10 -63 8 -79
-2z"/>
<path d="M4000 2571 c0 -12 -6 -21 -14 -21 -13 0 -31 -104 -20 -122 10 -16 34
-8 34 12 0 17 7 20 43 20 54 0 74 12 52 30 -12 10 -15 10 -15 -4 0 -9 -6 -16
-14 -16 -15 0 -11 36 5 46 5 3 9 16 9 29 0 16 -7 25 -24 29 -13 3 -31 9 -40
12 -12 4 -16 0 -16 -15z m23 -81 c3 -13 0 -20 -9 -20 -8 0 -14 10 -14 26 0 28
15 25 23 -6z"/>
<path d="M2956 2293 c-3 -10 -11 -26 -18 -35 -17 -23 -7 -30 35 -26 l35 3 -15
38 c-17 40 -27 47 -37 20z"/>
<path d="M10997 368 c-17 -9 -24 -69 -11 -102 16 -41 84 2 84 53 0 41 -40 68
-73 49z"/>
<path d="M11700 206 c0 -8 4 -17 9 -20 5 -4 7 3 4 14 -6 23 -13 26 -13 6z"/>
<path d="M11729 173 c0 -10 -2 -29 -4 -43 -1 -14 2 -49 8 -77 l11 -53 58 0
c32 0 58 2 58 5 0 2 -16 21 -35 41 -19 19 -35 40 -35 45 0 5 -6 9 -14 9 -8 0
-16 16 -20 39 -6 42 -25 65 -27 34z"/>
<path d="M10967 113 c-10 -9 -9 -23 2 -23 5 0 11 7 15 15 5 15 -5 20 -17 8z"/>
<path d="M4684 85 c-3 -8 -1 -30 6 -50 9 -28 17 -35 37 -35 24 0 25 2 20 37
-9 51 -50 82 -63 48z"/>
</g>
</svg>
