<?xml version="1.0" standalone="no"?>
<!DOCTYPE svg PUBLIC "-//W3C//DTD SVG 20010904//EN"
 "http://www.w3.org/TR/2001/REC-SVG-20010904/DTD/svg10.dtd">
<svg version="1.0" xmlns="http://www.w3.org/2000/svg"
 width="750.000000pt" height="500.000000pt" viewBox="0 0 750.000000 500.000000"
 preserveAspectRatio="xMidYMid meet">

<g transform="translate(0.000000,500.000000) scale(0.100000,-0.100000)"
fill="#000000" stroke="none">
<path d="M2804 3655 c-10 -8 -26 -15 -35 -15 -23 0 -30 -36 -10 -53 9 -8 33
-22 54 -30 35 -15 37 -18 37 -61 0 -25 9 -69 20 -98 11 -29 20 -65 20 -80 0
-15 5 -30 10 -33 6 -3 10 -16 10 -28 1 -21 2 -21 23 6 28 33 36 34 73 2 24
-21 27 -27 14 -35 -8 -5 -32 -10 -52 -10 -39 0 -44 -5 -29 -29 8 -13 15 -12
46 5 20 10 48 33 62 49 14 17 33 29 42 27 10 -1 27 9 40 22 l23 25 -23 -5
c-23 -5 -23 -5 -5 10 11 9 14 16 8 16 -7 0 -12 5 -12 12 0 6 9 3 21 -8 21 -19
21 -18 45 9 25 30 31 47 14 47 -5 0 -10 6 -10 13 0 7 -9 23 -20 35 -11 12 -20
27 -20 35 0 25 -57 69 -118 91 -33 12 -77 37 -98 56 -43 38 -98 49 -130 25z"/>
<path d="M4044 3579 c-3 -5 -15 -9 -27 -9 -12 0 -33 -6 -47 -13 -14 -8 -67
-26 -118 -42 -51 -15 -92 -32 -92 -37 0 -5 -5 -6 -11 -2 -9 5 -10 -1 -5 -20 4
-18 3 -25 -4 -21 -5 3 -10 0 -10 -8 0 -8 -7 -17 -15 -21 -20 -7 -19 -50 2 -67
9 -8 34 -38 55 -66 23 -32 53 -59 74 -68 32 -13 36 -13 54 5 24 24 75 26 84 4
12 -32 7 -46 -15 -39 -15 5 -20 3 -17 -10 2 -9 -9 -23 -24 -33 -26 -16 -28
-15 -53 8 l-26 25 11 -29 c6 -16 9 -35 6 -42 -3 -8 -1 -16 5 -19 16 -10 -1
-26 -18 -17 -8 5 -45 7 -82 4 -64 -4 -67 -4 -68 19 -2 26 -45 69 -70 69 -13 0
-13 -3 -3 -15 10 -12 8 -18 -11 -35 -13 -10 -32 -19 -41 -20 -11 0 -18 -8 -18
-20 0 -14 -7 -20 -23 -20 -13 0 -27 4 -32 9 -20 20 -135 18 -135 -2 0 -7 -12
-14 -26 -15 -21 -2 -24 1 -19 19 6 18 4 20 -13 15 -21 -7 -52 28 -52 59 0 8
-6 15 -13 15 -20 0 -47 -33 -47 -58 0 -13 -6 -22 -15 -22 -8 0 -15 -8 -15 -17
0 -16 -2 -16 -18 2 -9 11 -26 20 -37 19 -51 -3 -55 -5 -55 -26 0 -25 38 -137
53 -156 5 -7 8 -14 6 -15 -75 -51 -77 -54 -76 -114 0 -32 6 -62 13 -68 6 -5
19 -30 28 -55 10 -25 29 -60 42 -77 14 -18 20 -33 15 -33 -20 0 -11 -31 20
-75 18 -25 32 -58 33 -74 1 -16 3 -29 6 -29 24 2 32 -4 27 -22 -3 -11 -1 -20
4 -20 5 0 9 -4 9 -10 0 -18 -22 -10 -27 10 -3 11 -12 20 -19 20 -8 0 -14 5
-14 10 0 6 -8 10 -18 10 -10 0 -28 9 -40 21 -12 11 -26 18 -31 15 -5 -3 -12 5
-15 18 -7 28 -36 44 -36 19 0 -14 -2 -14 -18 3 -10 10 -17 27 -14 37 2 9 -1
17 -7 17 -7 0 -9 -5 -6 -10 4 -6 1 -18 -6 -26 -9 -11 -8 -18 6 -34 10 -11 24
-20 32 -20 7 0 13 -4 13 -10 0 -5 16 -20 35 -32 19 -13 37 -30 40 -39 3 -8 15
-26 27 -39 l22 -23 -30 6 c-16 3 -38 8 -49 12 -14 4 -13 2 5 -9 14 -8 41 -21
60 -27 19 -6 49 -26 66 -43 16 -17 56 -50 88 -74 48 -36 57 -48 53 -67 -2 -14
1 -26 7 -28 6 -2 8 -8 4 -12 -5 -5 -20 -2 -35 5 -16 7 -53 14 -83 16 -30 2
-49 1 -42 -2 6 -3 12 -12 12 -19 0 -8 11 -22 25 -33 14 -11 25 -23 25 -26 0
-14 -57 -4 -88 14 -37 22 -52 19 -52 -11 0 -12 -10 -23 -25 -29 -14 -5 -25
-14 -25 -20 0 -14 17 -13 23 3 4 9 8 8 16 -3 9 -12 11 -11 11 8 0 14 7 23 18
24 45 3 57 2 57 -7 0 -6 4 -16 8 -23 10 -15 -16 -27 -34 -16 -7 4 -2 -7 10
-25 21 -29 23 -40 17 -97 l-7 -65 35 -14 c20 -9 43 -26 52 -40 9 -14 25 -25
36 -25 13 0 18 -5 15 -14 -4 -9 5 -19 23 -26 34 -14 56 -37 45 -48 -4 -4 -10
-1 -12 6 -3 6 -23 15 -45 18 -32 6 -39 10 -35 25 3 11 1 22 -4 25 -5 3 -9 0
-9 -6 0 -7 -8 -9 -19 -5 -13 4 -20 0 -24 -15 -5 -21 -27 -28 -27 -9 0 8 -5 8
-15 -1 -8 -7 -15 -20 -15 -30 0 -13 -5 -17 -21 -13 -22 6 -39 -10 -39 -37 1
-12 3 -12 14 2 12 16 13 15 12 -12 -1 -40 -28 -40 -56 0 -17 24 -29 30 -58 30
-32 1 -42 8 -74 47 -22 28 -40 63 -44 87 -3 23 -19 76 -35 118 -16 43 -34 116
-41 162 -9 67 -16 86 -30 89 -10 3 -22 18 -28 34 -15 40 -32 73 -39 73 -7 0
-31 -49 -31 -63 0 -5 7 -7 15 -3 20 7 19 -3 -2 -27 -10 -11 -12 -17 -5 -13 19
11 14 -15 -5 -31 -13 -10 -15 -16 -5 -19 6 -3 9 -11 5 -17 -5 -7 -8 -39 -8
-71 0 -62 -9 -75 -37 -54 -12 10 -18 39 -23 118 -10 164 -12 176 -22 194 -19
35 -54 44 -100 27 -51 -18 -67 -59 -36 -93 15 -17 26 -19 74 -14 l57 5 5 -32
c4 -17 0 -70 -7 -117 -10 -69 -16 -85 -29 -84 -10 1 -30 -11 -45 -27 -31 -34
-67 -38 -82 -9 -6 11 -17 20 -25 20 -8 0 -15 5 -15 10 0 6 -9 10 -20 10 -11 0
-20 -4 -20 -10 0 -5 -6 -7 -14 -4 -8 3 -24 -5 -37 -19 -17 -21 -26 -24 -44
-17 -13 5 -32 9 -42 9 -35 -1 -138 20 -183 35 -51 19 -80 42 -80 65 0 12 -11
16 -49 17 -46 2 -49 0 -58 -30 -7 -25 -13 -30 -33 -28 -14 2 -31 9 -37 14 -7
6 -20 8 -28 4 -11 -4 -19 3 -26 23 -8 22 -15 28 -30 24 -16 -4 -19 -11 -15
-29 9 -33 -23 -63 -58 -57 -19 4 -33 -1 -47 -16 -27 -29 -37 -27 -56 14 -17
37 -21 38 -66 35 -19 -1 -29 4 -35 19 -4 12 -23 29 -42 39 -37 18 -50 53 -30
82 8 13 11 13 19 1 5 -7 13 -11 19 -7 9 5 52 -25 52 -38 0 -3 17 -22 37 -41
26 -24 46 -35 68 -35 17 0 36 -5 43 -12 9 -9 12 -8 12 4 0 16 -44 58 -62 58
-5 0 -20 12 -33 26 -45 48 -23 117 26 86 27 -17 53 -15 71 6 18 19 39 88 30
96 -10 11 -43 6 -73 -10 -24 -12 -33 -13 -45 -3 -10 8 -59 14 -137 16 -73 1
-132 8 -146 15 -19 10 -25 10 -28 1 -3 -7 -10 -13 -16 -13 -6 0 -35 -10 -63
-21 -33 -14 -59 -19 -71 -14 -19 8 -95 8 -274 1 -83 -4 -116 -9 -148 -26 -36
-18 -47 -19 -80 -9 -31 9 -43 8 -69 -5 -38 -20 -63 -20 -108 -1 -32 13 -39 13
-84 -5 -40 -16 -55 -17 -81 -8 -25 9 -37 8 -58 -5 -45 -27 -92 -30 -133 -9
-26 14 -40 16 -47 9 -8 -8 -11 -150 -10 -441 1 -237 5 -420 9 -406 7 22 8 22
10 5 1 -11 2 -24 1 -29 -1 -4 1 -18 5 -30 7 -21 7 -21 15 -1 8 19 8 19 14 -2
6 -18 10 -20 26 -10 27 17 33 3 34 -73 0 -62 2 -69 18 -64 12 4 17 0 17 -16 0
-12 4 -18 11 -15 6 4 8 13 5 20 -3 8 2 27 10 44 9 18 12 40 8 56 -6 26 -7 26
-21 5 -21 -29 -28 -25 -27 17 1 30 5 37 24 40 13 2 30 8 37 15 7 6 16 8 20 4
3 -3 1 -6 -5 -6 -7 0 -12 -13 -12 -30 0 -36 2 -37 37 -4 24 22 26 28 14 46
-10 17 -10 23 5 39 29 32 48 25 41 -17 -6 -39 12 -56 37 -35 11 10 16 6 24
-16 l10 -28 1 29 c1 21 5 27 16 22 19 -7 21 7 10 59 -5 22 -4 26 3 16 9 -13
13 -13 28 0 16 13 16 12 5 -9 -12 -23 -6 -47 10 -37 5 4 9 -1 9 -10 0 -21 24
-45 44 -45 9 0 19 12 22 28 4 15 11 32 15 38 5 6 13 34 20 62 6 29 15 52 21
52 5 0 7 -8 4 -17 -7 -23 -26 -122 -26 -138 0 -13 45 -37 53 -28 10 9 -5 33
-17 26 -6 -3 -4 2 5 13 9 10 14 26 12 34 -3 10 1 8 11 -4 9 -11 16 -23 16 -27
0 -15 45 -5 68 14 12 12 22 15 22 9 0 -7 -4 -12 -10 -12 -5 0 -10 -11 -10 -24
0 -14 -4 -28 -10 -31 -17 -10 -11 -39 10 -53 22 -13 22 -14 24 47 1 30 6 35
38 47 44 15 55 5 28 -24 -26 -27 -25 -48 1 -48 14 0 19 5 16 18 -3 11 0 18 9
18 8 0 14 -4 14 -9 0 -5 11 -11 25 -13 29 -6 31 -2 9 20 -15 14 -15 17 2 29
11 8 20 31 24 57 5 40 7 43 27 35 22 -8 22 -9 7 -45 -17 -42 -16 -46 23 -47
15 -1 38 -12 50 -24 14 -14 24 -19 28 -12 5 6 12 4 20 -7 11 -16 14 -15 28 12
26 50 42 59 71 37 14 -10 27 -28 31 -40 3 -13 10 -23 16 -23 6 0 7 6 3 12 -15
23 -11 47 13 74 21 25 23 26 23 6 0 -12 5 -32 11 -45 9 -21 7 -31 -15 -64 -15
-22 -29 -56 -31 -75 -6 -45 -22 -88 -33 -88 -13 0 -2 -47 14 -61 24 -20 35 0
18 32 -14 29 -14 32 3 45 10 8 28 17 41 20 12 3 22 9 23 13 0 3 3 15 6 26 3
11 5 35 5 52 0 18 4 33 9 33 6 0 7 -4 4 -10 -14 -23 16 -8 31 15 20 30 10 47
-10 19 -8 -10 -18 -16 -21 -12 -11 10 4 60 15 53 6 -3 7 1 4 9 -3 9 7 50 22
93 15 42 30 71 32 65 2 -7 -6 -37 -18 -69 -22 -59 -20 -94 5 -120 8 -8 15 -26
15 -39 0 -14 4 -23 9 -19 5 3 12 -4 16 -15 3 -11 10 -20 15 -20 5 0 12 -9 15
-21 7 -19 7 -20 21 -2 19 25 17 33 -6 33 -15 0 -20 7 -20 27 0 14 3 23 7 20 3
-4 12 -2 19 3 8 8 16 6 27 -5 14 -14 16 -12 19 17 2 17 9 33 16 36 9 3 11 -3
6 -22 -6 -27 12 -38 21 -13 6 12 85 20 85 8 0 -4 -5 -12 -11 -18 -8 -8 -8 -17
0 -31 6 -11 11 -30 11 -42 0 -18 3 -19 20 -10 11 6 20 21 20 33 0 17 -2 19
-10 7 -15 -23 -20 -8 -10 34 10 46 12 48 34 40 14 -5 15 -9 4 -16 -10 -7 -10
-11 0 -15 14 -6 16 -49 2 -58 -5 -3 -7 -12 -3 -20 3 -9 -2 -26 -10 -38 -16
-25 -9 -50 13 -45 8 2 16 -10 20 -29 9 -41 27 -63 51 -63 25 0 24 21 -1 53
-11 14 -20 30 -20 36 0 6 -9 11 -20 11 -24 0 -27 28 -4 37 15 6 15 7 -1 19
-29 22 -12 60 31 68 19 4 42 10 50 13 9 3 14 -1 14 -12 0 -9 6 -15 13 -12 6 2
20 0 29 -5 15 -7 18 -4 18 13 0 18 2 19 15 9 13 -11 14 -8 9 19 -4 20 -3 31 5
31 6 0 11 -4 11 -10 0 -5 11 -10 24 -10 14 0 28 -4 31 -10 3 -6 11 -10 17 -10
10 0 7 29 -7 64 -7 16 -5 18 8 13 9 -3 17 -2 17 3 0 6 5 10 10 10 6 0 10 -9
10 -21 0 -18 4 -20 25 -15 36 9 61 -8 75 -49 6 -19 18 -35 25 -35 7 0 20 -3
29 -6 13 -5 16 1 16 30 0 20 5 36 10 36 6 0 10 -11 10 -24 0 -27 15 -42 25
-26 8 13 -15 82 -33 97 -11 9 -10 12 7 18 34 10 41 -2 41 -70 0 -66 11 -88 29
-58 9 16 10 15 11 -6 0 -20 2 -21 15 -11 8 7 15 19 15 26 0 17 17 18 23 2 4
-10 7 -10 18 0 19 18 28 15 22 -8 -4 -14 0 -20 11 -20 9 0 16 8 16 20 0 11 4
20 10 20 5 0 7 -13 4 -29 -5 -24 -2 -29 19 -33 21 -4 26 0 31 22 2 15 3 36 0
46 -3 10 1 28 9 38 13 18 18 18 60 7 25 -7 51 -10 58 -6 7 5 18 -1 28 -14 11
-14 30 -23 59 -25 39 -4 42 -3 48 22 3 15 7 32 9 37 1 6 7 -10 13 -35 9 -38
11 -42 17 -22 9 26 23 29 32 6 5 -13 7 -13 14 -2 7 10 9 10 9 1 0 -7 5 -13 11
-13 6 0 9 14 7 32 -4 40 14 46 36 13 29 -44 54 -64 76 -60 11 2 20 -1 20 -7 0
-6 11 -8 25 -6 17 4 29 0 35 -11 8 -12 9 -8 4 13 -6 25 -4 28 10 23 9 -4 16
-1 16 5 0 6 12 1 26 -13 l26 -24 -6 25 c-6 23 -6 23 7 7 17 -20 34 -22 40 -4
3 9 9 7 24 -6 11 -9 27 -17 35 -17 19 0 29 32 17 51 -5 8 -8 28 -8 44 1 27 2
26 15 -15 9 -25 20 -56 25 -69 9 -23 10 -23 23 -5 13 16 15 14 34 -27 l20 -44
11 28 c6 15 17 27 24 27 9 0 12 9 9 30 -4 31 11 42 22 15 3 -8 17 -15 31 -15
16 0 25 -6 25 -15 0 -8 4 -15 9 -15 19 0 22 20 6 44 -11 16 -13 26 -6 31 7 3
11 -3 11 -14 0 -12 7 -21 15 -21 18 0 21 -45 4 -56 -8 -4 -7 -9 2 -15 14 -8
51 41 46 62 -1 7 4 14 11 16 7 3 12 -4 12 -16 0 -12 5 -21 10 -21 6 0 10 4 10
9 0 5 11 4 24 -2 16 -8 20 -14 13 -19 -6 -4 -14 -2 -18 4 -4 7 -9 7 -13 0 -3
-6 3 -13 14 -17 13 -4 20 -15 20 -30 0 -32 18 -41 35 -19 13 17 16 17 25 4 12
-18 11 -19 16 54 2 33 8 64 15 70 9 8 10 2 6 -27 -5 -29 -3 -36 6 -29 7 5 27
9 45 9 19 0 37 5 42 13 9 15 30 5 30 -14 0 -8 7 -19 15 -26 12 -10 15 -10 15
3 0 8 -4 17 -8 19 -11 4 -43 119 -36 130 3 4 11 5 17 1 7 -4 19 -6 28 -5 9 2
28 -11 43 -28 14 -17 30 -29 35 -26 5 3 11 -4 14 -15 4 -15 11 -20 21 -16 9 4
16 3 16 -2 0 -4 6 -8 13 -8 6 0 23 -3 36 -7 16 -6 21 -5 17 3 -12 19 52 13 64
-6 10 -16 11 -16 6 -1 -3 9 2 19 10 22 22 8 24 8 24 -9 0 -8 4 -15 10 -15 5 0
7 7 4 15 -4 9 0 15 9 15 8 0 18 -8 21 -17 6 -14 9 -15 15 -4 6 9 18 11 35 7
18 -4 26 -2 26 6 0 9 3 9 10 -2 7 -12 15 -11 49 8 33 19 41 20 41 8 0 -8 -4
-18 -10 -21 -5 -3 -10 -13 -10 -22 0 -11 5 -9 20 8 10 13 19 20 20 15 0 -4 8
2 18 14 15 19 24 22 48 15 16 -5 62 -9 101 -9 81 -1 86 4 57 62 -8 18 -16 45
-16 62 -1 16 -6 30 -12 30 -8 0 -8 2 0 8 6 4 14 14 17 22 4 12 6 11 6 -3 1
-10 6 -15 11 -12 7 4 5 14 -5 28 -10 14 -15 42 -14 82 1 33 3 52 6 43 2 -10
11 -18 19 -18 8 0 14 -6 14 -13 0 -7 9 -23 20 -35 23 -24 26 -42 8 -42 -9 0
-9 -3 0 -12 7 -7 12 -23 12 -37 0 -22 2 -21 20 14 22 44 26 95 8 95 -9 0 -9 3
1 9 8 5 11 16 7 27 -4 10 -1 21 6 26 10 6 10 10 -1 17 -12 8 -12 12 -2 25 9
11 10 16 2 16 -6 0 -11 6 -11 14 0 7 -8 24 -19 37 -10 13 -22 35 -26 49 -7 22
-6 23 9 11 15 -13 16 -7 10 71 -5 62 -3 87 5 93 17 10 21 4 31 -58 7 -47 6
-62 -10 -94 -19 -39 -16 -68 6 -59 9 3 16 -6 22 -26 l8 -32 21 21 c12 12 23
40 27 69 8 54 25 115 35 127 11 11 -8 -135 -19 -155 -16 -28 -12 -88 4 -88 22
0 30 -19 16 -35 -16 -19 -34 -19 -26 0 3 8 1 15 -3 15 -12 0 -20 -24 -16 -46
2 -11 4 -32 5 -49 l1 -30 19 23 19 22 3 -22 c2 -15 10 -23 23 -23 20 -1 23
-27 4 -33 -5 -2 -7 -8 -3 -13 3 -5 1 -9 -5 -9 -5 0 -12 6 -15 13 -3 6 -4 -1 0
-18 6 -35 19 -51 28 -36 4 6 2 11 -3 11 -6 0 -11 5 -11 11 0 5 4 8 9 5 5 -3
12 5 15 19 4 16 21 32 47 46 27 13 39 25 35 35 -5 12 -2 12 16 3 18 -10 19
-13 7 -23 -19 -15 -13 -89 11 -143 11 -24 20 -46 20 -50 0 -5 11 -8 25 -8 28
0 33 12 10 22 -12 4 -8 11 20 30 40 27 44 33 15 26 -11 -3 -20 -9 -20 -14 0
-5 -9 -9 -20 -9 -11 0 -20 -6 -21 -12 0 -7 -4 -4 -8 7 -10 24 -8 55 4 74 5 9
4 12 -3 7 -6 -3 -13 -2 -17 4 -3 6 1 13 10 16 12 5 13 9 4 20 -10 12 -8 13 7
8 18 -7 18 -7 1 13 -18 21 -14 33 12 33 14 0 14 -2 1 -10 -13 -8 -13 -10 2
-10 9 0 19 6 21 13 3 6 6 2 6 -11 1 -20 3 -21 22 -11 16 8 18 13 9 19 -9 5 -9
9 -1 15 7 3 9 15 6 25 -3 10 -1 21 5 25 5 3 10 18 10 33 0 22 2 24 11 12 8
-11 12 -12 16 -2 7 19 23 14 16 -5 -3 -10 -3 -15 2 -11 4 4 14 1 22 -7 13 -13
12 -18 -6 -42 l-21 -26 32 -16 c31 -15 32 -15 8 -21 -15 -4 -20 -9 -13 -13 6
-4 14 -30 18 -57 4 -28 11 -50 17 -50 5 0 7 4 4 9 -3 5 6 12 22 16 15 4 21 10
15 12 -7 3 -13 9 -13 14 0 6 5 7 10 4 6 -3 10 -2 10 4 0 5 -5 13 -10 16 -6 4
-8 11 -4 16 3 6 -2 9 -12 7 -11 -2 -22 -12 -26 -23 -5 -17 -6 -15 -7 8 -1 21
4 27 19 27 22 0 25 12 10 41 -7 13 -7 19 -1 19 6 0 13 -11 17 -25 3 -14 9 -25
11 -25 14 0 49 49 50 70 3 32 23 51 23 21 0 -19 3 -21 15 -11 8 6 19 9 24 6
15 -10 7 -69 -13 -96 l-18 -25 6 27 c3 14 2 36 -2 48 -7 20 -9 20 -30 -10 -26
-34 -20 -56 22 -84 28 -18 37 -20 34 -8 -1 4 5 27 12 52 7 25 15 60 16 79 2
19 13 43 25 54 l22 21 -6 -33 c-6 -28 -4 -32 10 -27 9 4 20 1 25 -6 18 -29 7
18 -16 67 -30 64 -46 115 -37 115 4 0 15 -17 25 -37 12 -25 20 -33 25 -24 11
16 27 -5 29 -38 0 -14 8 -29 17 -33 8 -5 15 -14 15 -21 0 -7 11 -17 25 -24 38
-17 42 4 7 40 -28 30 -31 54 -10 68 6 4 14 22 18 40 7 31 8 30 9 -18 1 -29 6
-53 11 -53 6 0 10 9 10 20 0 11 5 20 11 20 7 0 9 -11 6 -29 -4 -21 -1 -34 13
-46 12 -11 20 -13 20 -7 0 7 7 12 16 12 9 0 14 -6 11 -12 -2 -7 5 -30 16 -51
14 -28 22 -35 28 -25 13 19 11 28 -5 28 -15 0 -30 29 -20 39 4 3 9 0 11 -6 7
-20 24 -15 21 5 -2 12 3 17 20 16 23 -1 29 10 12 21 -5 3 -10 12 -10 18 0 7
15 -4 33 -23 18 -19 31 -41 29 -47 -2 -7 1 -13 8 -13 7 0 9 12 6 35 -3 19 -4
35 -3 35 2 0 23 -18 47 -39 44 -39 58 -76 33 -85 -12 -5 -12 -8 -1 -20 7 -8
16 -12 19 -10 3 2 7 41 8 86 1 46 7 99 13 118 8 25 8 35 -1 38 -13 4 -15 42
-2 42 5 0 11 10 13 22 5 33 27 34 26 1 -1 -15 3 -37 7 -47 6 -13 5 -21 -3 -24
-14 -4 -16 -61 -2 -82 14 -23 34 3 34 44 0 26 3 33 16 28 13 -5 13 -3 1 11
-14 17 -9 47 8 47 5 0 19 -32 30 -70 12 -39 29 -74 37 -77 10 -4 12 -9 4 -18
-5 -6 -7 -15 -4 -18 11 -11 42 37 40 63 -1 14 2 28 7 31 5 4 0 16 -12 28 -20
20 -19 57 2 44 7 -4 8 0 2 13 -5 10 -9 34 -9 52 1 43 -13 41 -22 -3 -7 -39
-13 -41 -55 -20 -28 15 -29 16 -13 40 9 14 14 32 10 40 -6 18 30 121 46 131 8
5 9 -6 5 -34 -3 -23 -4 -42 -2 -42 2 0 13 16 24 36 12 20 24 35 26 33 2 -2 -1
-26 -6 -53 -5 -27 -6 -52 -3 -55 10 -10 42 41 37 60 -4 14 0 16 15 12 20 -5
19 -8 -13 -57 -24 -36 -33 -58 -29 -74 9 -31 31 -12 40 33 7 39 24 48 59 35
30 -11 31 -16 5 -58 -11 -18 -20 -39 -20 -47 0 -8 -4 -15 -10 -15 -5 0 -10 -6
-10 -13 0 -8 -7 -28 -16 -45 -11 -23 -12 -36 -5 -49 10 -17 11 -16 17 5 3 12
9 22 13 22 4 0 7 15 8 34 1 45 22 84 34 65 5 -8 8 -21 8 -29 0 -10 -3 -9 -8 4
-5 13 -7 1 -7 -32 1 -42 -3 -54 -21 -67 -18 -13 -21 -22 -16 -47 4 -20 2 -29
-4 -25 -6 4 -15 -5 -21 -18 -7 -14 -8 -25 -3 -25 5 0 11 -9 14 -20 3 -11 1
-20 -4 -20 -5 0 -9 7 -9 15 0 8 -4 15 -10 15 -19 0 -10 -20 25 -59 40 -44 42
-51 16 -51 -14 0 -18 -5 -14 -20 3 -11 1 -20 -4 -20 -15 0 -33 23 -33 42 0 10
-5 18 -11 18 -5 0 -8 4 -5 9 3 5 -1 14 -9 21 -8 7 -15 9 -15 4 0 -5 -5 -1 -11
9 -5 9 -7 22 -4 27 3 5 -5 22 -19 37 l-25 27 -11 -28 c-5 -15 -10 -32 -10 -37
0 -12 17 -12 25 1 13 21 27 9 23 -20 -3 -17 -1 -30 4 -30 4 0 8 -9 8 -20 0
-11 6 -19 13 -18 6 2 13 -9 15 -24 4 -30 33 -61 39 -42 2 7 13 9 25 6 13 -3
19 -1 15 5 -4 6 -1 16 7 22 11 9 15 9 20 -1 3 -7 3 -3 0 10 -4 16 -1 22 12 22
14 0 10 8 -17 37 -20 21 -27 33 -16 30 14 -5 17 0 17 28 0 19 -5 35 -11 35 -5
0 -7 5 -3 12 4 7 11 28 15 48 l6 35 8 -32 c4 -18 11 -33 16 -33 5 0 4 -12 -2
-26 -5 -15 -7 -29 -4 -32 3 -4 8 4 12 16 5 22 23 31 23 12 0 -5 5 -10 11 -10
7 0 5 9 -5 23 -32 45 -36 54 -20 54 7 0 14 -7 14 -14 0 -8 7 -21 15 -29 12
-13 15 -12 24 3 10 20 -7 53 -28 53 -6 0 -11 5 -11 10 0 14 8 13 41 -7 26 -15
28 -20 22 -60 -4 -30 -2 -43 6 -43 7 0 10 -4 7 -8 -2 -4 4 -13 15 -20 23 -15
25 -4 3 26 -8 12 -14 30 -11 40 3 13 7 10 16 -13 10 -24 14 -27 23 -15 8 12 9
11 4 -3 -8 -24 3 -44 14 -27 6 9 10 6 15 -9 3 -11 10 -21 15 -21 18 0 18 33 0
86 -11 32 -18 60 -15 62 8 8 13 -1 39 -68 25 -68 44 -86 53 -51 3 12 9 21 14
21 5 0 9 9 9 20 0 11 -5 20 -11 20 -5 0 -7 -5 -3 -12 5 -7 3 -8 -6 -3 -7 4
-16 2 -21 -6 -13 -21 -12 21 2 60 6 17 8 44 4 59 -6 25 -7 26 -20 8 -16 -21
-36 -13 -29 12 2 9 -1 7 -7 -5 -18 -34 -29 -28 -29 15 0 27 -3 33 -10 22 -13
-20 -13 -6 1 23 8 18 8 30 0 46 -12 22 -31 29 -31 10 0 -5 5 -7 10 -4 6 3 10
0 10 -8 0 -18 -22 -28 -39 -17 -10 6 -9 14 3 38 9 17 16 36 16 43 0 12 66 79
78 79 3 0 -7 -13 -23 -30 -27 -28 -28 -31 -16 -70 l12 -41 20 24 c10 14 19 32
19 40 0 9 5 19 12 23 8 5 9 -3 5 -29 -4 -26 -2 -37 7 -37 17 0 36 21 36 41 0
9 7 23 17 30 15 13 16 11 9 -23 -8 -45 9 -52 25 -10 28 70 32 78 36 60 2 -9
-5 -35 -17 -58 -12 -23 -19 -45 -16 -48 3 -3 6 0 6 7 0 8 7 11 15 7 9 -3 20 3
27 14 18 28 31 25 24 -5 -5 -21 -2 -27 21 -36 40 -16 74 -17 80 -2 8 20 20 16
26 -8 4 -15 0 -23 -14 -26 -16 -5 -18 -11 -13 -47 4 -22 11 -49 15 -58 12 -22
11 -28 -1 -28 -5 0 -9 3 -9 8 5 27 -4 21 -16 -12 -15 -43 -17 -122 -2 -107 5
5 10 21 10 35 2 20 7 26 18 23 12 -3 15 1 12 14 -9 32 6 21 22 -17 17 -40 20
-78 6 -70 -12 8 -31 -17 -37 -49 -3 -18 -1 -24 6 -20 6 4 9 13 6 20 -2 7 2 21
9 32 9 11 14 13 15 5 0 -18 50 16 50 35 0 8 -4 11 -10 8 -5 -3 -10 0 -10 8 0
8 7 17 15 21 16 6 21 26 6 26 -5 0 -17 -8 -27 -17 -17 -17 -17 -16 -11 9 4 16
1 37 -8 54 -8 16 -10 31 -5 34 5 3 5 11 0 20 -7 12 -10 11 -17 -5 -6 -17 -8
-15 -15 15 -5 27 -3 38 9 48 23 16 43 15 43 -3 0 -8 5 -15 10 -15 14 0 12 11
-5 34 -8 11 -15 25 -15 32 0 16 32 13 46 -5 17 -21 51 36 35 61 -7 11 -7 18
-1 18 5 0 10 -5 10 -11 0 -8 5 -7 15 1 22 18 29 6 30 -45 0 -35 3 -44 15 -40
55 16 72 16 94 2 22 -15 25 -14 43 3 23 21 73 16 73 -7 0 -8 4 -12 9 -9 5 4
11 1 13 -5 2 -6 14 -8 28 -4 20 5 25 12 26 40 0 19 -3 35 -8 35 -14 0 -9 20
12 42 22 24 26 38 10 38 -5 0 -10 7 -10 15 0 8 -9 19 -20 25 -19 10 -20 8 -20
-45 0 -56 -4 -62 -29 -46 -12 8 -13 12 -1 25 7 9 10 19 7 22 -7 8 -67 -37 -67
-50 0 -6 5 -4 10 4 6 9 10 10 10 3 0 -6 3 -18 6 -27 5 -13 2 -13 -21 -3 -22
10 -25 17 -21 40 5 25 3 27 -14 22 -16 -5 -19 -3 -13 11 17 46 68 69 80 37 5
-14 7 -13 14 5 10 28 -16 83 -36 75 -8 -3 -15 -13 -15 -23 0 -10 -16 -36 -36
-56 -27 -29 -37 -35 -44 -24 -4 7 -6 20 -3 29 5 14 4 14 -10 1 -13 -12 -14
-23 -6 -58 11 -50 -1 -82 -31 -82 -14 0 -20 7 -20 23 0 13 -5 28 -11 34 -8 8
-6 17 10 34 14 15 21 36 21 62 0 44 45 137 67 137 17 0 17 -14 -3 -51 -16 -31
-13 -59 6 -59 6 0 14 10 19 23 14 36 46 59 78 55 20 -2 28 -9 29 -23 2 -45 2
-45 59 -41 30 3 55 0 55 -5 0 -5 11 -9 23 -9 15 0 39 16 65 44 l42 45 0 104
c0 80 -3 107 -15 117 -11 9 -13 24 -8 58 4 33 3 43 -5 38 -7 -4 -12 -14 -12
-22 0 -9 -8 -14 -22 -13 -51 4 -58 0 -58 -33 1 -32 1 -32 16 -13 15 20 15 20
34 -3 11 -13 16 -30 13 -39 -6 -14 -7 -14 -18 1 -7 9 -17 16 -21 15 -42 -7
-61 3 -72 38 -6 20 -9 40 -6 45 3 4 -2 8 -10 8 -9 0 -17 -7 -17 -15 -1 -8 -2
-21 -3 -27 -2 -23 -41 -15 -44 10 -4 24 -32 31 -32 7 0 -8 -4 -15 -10 -15 -5
0 -10 4 -10 9 0 18 -52 22 -69 6 -22 -19 -47 -19 -55 0 -5 13 -9 13 -28 3 -13
-7 -26 -17 -31 -23 -4 -6 -13 -3 -21 8 -14 18 -15 17 -31 -7 -10 -14 -26 -26
-36 -26 -10 0 -21 -5 -24 -11 -4 -6 -14 -7 -24 -4 -9 4 -21 8 -28 9 -22 4 -25
14 -13 53 6 21 10 54 8 73 -3 34 -4 32 -28 -33 -30 -84 -40 -94 -80 -77 -28
12 -29 13 -13 36 8 13 13 30 10 39 -12 28 -82 -23 -90 -66 -4 -20 -4 -19 -6 7
0 17 -4 33 -7 37 -10 10 -84 -56 -84 -75 0 -46 -51 -4 -65 55 -4 15 -11 27
-16 27 -11 0 -11 -7 0 -28 6 -12 3 -32 -11 -65 -18 -40 -25 -47 -49 -47 -16 0
-39 -10 -51 -22 -15 -15 -23 -18 -26 -9 -3 8 -8 9 -17 1 -10 -8 -23 -1 -54 28
-22 21 -41 44 -41 51 0 28 -45 5 -65 -33 -11 -22 -27 -42 -34 -44 -19 -6 -31
19 -20 40 10 19 8 21 -42 32 -17 4 -31 1 -39 -9 -7 -8 -19 -15 -26 -15 -7 0
-11 -6 -8 -14 6 -17 -34 -64 -59 -68 -12 -2 -23 9 -37 39 -19 44 -16 52 23 66
9 4 17 13 17 21 0 28 -84 31 -105 4 -5 -7 -28 -14 -50 -16 -22 -2 -45 -8 -51
-13 -7 -5 -34 -7 -60 -3 -99 12 -107 11 -114 -16 -4 -17 -8 -21 -14 -12 -12
20 -26 13 -26 -14 0 -22 -3 -24 -22 -18 -31 9 -31 9 -24 39 5 20 11 25 26 20
15 -5 20 -2 20 13 0 11 -6 25 -14 31 -11 10 -17 7 -30 -11 -9 -12 -16 -28 -16
-34 0 -6 -13 -17 -30 -24 -16 -7 -30 -16 -30 -20 0 -20 -34 -40 -68 -40 -26 0
-44 8 -61 25 -29 32 -39 31 -47 -1 -9 -37 14 -58 49 -45 19 7 27 7 27 0 0 -6
9 -8 20 -4 23 7 50 -10 50 -30 0 -7 -9 -23 -20 -36 -17 -21 -21 -22 -30 -9 -8
11 -12 12 -18 3 -14 -22 -83 -11 -113 19 -28 29 -54 114 -43 143 12 30 -17 14
-30 -17 -14 -32 -11 -62 4 -53 18 11 18 -13 -1 -41 -18 -28 -19 -28 -19 -5 0
20 -4 22 -24 17 -32 -8 -36 7 -19 73 9 34 11 57 5 63 -6 6 -12 6 -16 -1 -4 -6
-18 -11 -32 -11 -31 0 -94 -63 -94 -94 0 -17 -51 -56 -73 -56 -17 0 -57 33
-57 47 0 17 -40 63 -55 63 -12 0 -32 -40 -41 -79 -1 -8 -10 -21 -19 -30 -15
-15 -17 -15 -26 2 -18 30 -32 20 -25 -19 5 -26 4 -35 -6 -33 -20 2 -58 -12
-58 -23 0 -5 -4 -6 -10 -3 -5 3 -10 17 -10 31 0 13 -4 24 -10 24 -5 0 -10 -6
-10 -13 0 -8 -8 -24 -19 -36 -16 -18 -20 -19 -31 -6 -11 13 -16 13 -42 -1 -27
-14 -35 -14 -91 2 -66 19 -155 23 -166 8 -3 -5 -26 -10 -51 -12 -24 -2 -51 -9
-60 -17 -10 -9 -20 -11 -30 -5 -12 8 -15 37 -15 152 0 132 -8 200 -37 318 -20
80 -21 118 -4 151 9 18 16 33 16 34 0 9 -54 14 -69 6 -12 -7 -26 -6 -45 5 -16
8 -35 14 -43 14 -9 0 -13 6 -10 13 4 10 -7 13 -46 11 -49 -2 -55 0 -107 46
-30 27 -52 52 -48 56 4 4 27 7 50 8 37 0 151 -47 269 -111 4 -2 7 24 7 59 -1
46 -7 76 -24 110 -22 43 -23 51 -12 93 10 37 10 50 0 66 -11 17 -10 29 2 67 8
26 17 63 20 84 5 25 17 44 40 62 34 25 38 36 51 134 3 20 11 61 17 90 10 47
14 53 32 47 44 -13 96 -17 96 -8 0 24 -51 155 -66 170 -20 20 -41 25 -50 12z
m-34 -69 c0 -5 -5 -10 -11 -10 -5 0 -7 5 -4 10 3 6 8 10 11 10 2 0 4 -4 4 -10z
m-570 -513 c0 -18 -2 -19 -10 -7 -13 20 -13 43 0 35 6 -3 10 -16 10 -28z m34
3 c-4 -16 -3 -37 0 -46 6 -16 8 -15 20 2 8 10 17 16 21 13 8 -9 -23 -39 -39
-39 -14 0 -31 74 -21 91 13 20 24 7 19 -21z m-183 -12 c-10 -27 -51 -58 -76
-58 -8 0 -15 -4 -15 -10 0 -5 -5 -10 -10 -10 -7 0 -7 6 0 20 8 15 8 20 -2 20
-7 0 -3 6 8 13 58 34 99 55 102 52 1 -1 -2 -13 -7 -27z m109 24 c0 -13 -12
-22 -22 -16 -10 6 -1 24 13 24 5 0 9 -4 9 -8z m241 -24 c16 -18 29 -36 29 -40
0 -14 -18 -9 -24 7 -3 8 -15 15 -26 15 -11 0 -20 7 -20 15 0 8 -7 15 -16 15
-8 0 -12 5 -9 10 11 19 36 10 66 -22z m-131 12 c0 -5 -5 -10 -11 -10 -5 0 -7
5 -4 10 3 6 8 10 11 10 2 0 4 -4 4 -10z m-307 -17 c-7 -2 -19 -2 -25 0 -7 3
-2 5 12 5 14 0 19 -2 13 -5z m199 -20 c11 -9 18 -11 18 -5 0 7 4 12 10 12 17
0 0 -27 -25 -38 -19 -9 -23 -8 -19 2 3 8 1 17 -5 21 -12 7 -15 25 -4 25 3 0
15 -7 25 -17z m-279 -138 c-3 -9 -8 -14 -10 -11 -3 3 -2 9 2 15 9 16 15 13 8
-4z m254 -60 c-4 -8 -12 -15 -19 -14 -10 0 -10 2 0 6 6 2 12 12 12 21 0 8 3
13 6 9 4 -3 4 -13 1 -22z m28 15 c3 -5 1 -10 -4 -10 -6 0 -11 5 -11 10 0 6 2
10 4 10 3 0 8 -4 11 -10z m114 -11 c12 -20 11 -21 -6 -14 -10 4 -27 8 -37 10
-32 3 -31 25 1 25 18 0 33 -8 42 -21z m-39 -44 c0 -8 -4 -15 -10 -15 -5 0 -10
7 -10 15 0 8 5 15 10 15 6 0 10 -7 10 -15z m309 -144 c23 -15 5 -44 -21 -35
-31 9 -41 27 -20 36 23 9 25 9 41 -1z m-497 -401 c5 -36 -8 -49 -28 -28 -12
11 -12 21 -4 42 12 33 26 27 32 -14z m3446 -46 c-5 -28 -28 -29 -28 -1 0 13 3
27 7 31 10 10 25 -10 21 -30z m602 -90 c0 -8 -4 -14 -10 -14 -5 0 -10 9 -10
21 0 11 5 17 10 14 6 -3 10 -13 10 -21z m-1788 -6 c-7 -7 -12 -8 -12 -2 0 14
12 26 19 19 2 -3 -1 -11 -7 -17z m-56 -77 c-12 -19 -24 -12 -19 10 4 13 9 17
15 11 6 -6 7 -15 4 -21z m-346 15 c0 -11 -19 -15 -25 -6 -3 5 1 10 9 10 9 0
16 -2 16 -4z m2274 -52 c4 -9 -1 -28 -10 -41 -15 -24 -16 -24 -29 -6 -19 24
-18 33 3 49 23 18 29 17 36 -2z m-1827 -16 c-3 -8 -6 -5 -6 6 -1 11 2 17 5 13
3 -3 4 -12 1 -19z m-4200 -73 c-8 -19 -47 -7 -47 15 0 10 8 26 17 36 16 16 18
15 26 -10 5 -15 6 -33 4 -41z m3950 23 c-3 -8 -6 -5 -6 6 -1 11 2 17 5 13 3
-3 4 -12 1 -19z m273 -24 c0 -8 9 -23 20 -34 23 -23 55 -27 47 -6 -4 9 0 12
13 9 10 -3 27 4 39 16 27 27 31 27 68 -9 33 -32 43 -30 43 7 0 15 5 23 13 20
7 -2 12 -21 12 -47 0 -52 18 -62 35 -21 7 17 16 28 21 25 17 -10 9 -43 -15
-62 -22 -16 -24 -23 -16 -55 9 -43 -3 -49 -22 -9 -10 20 -21 27 -43 27 -21 0
-31 5 -33 19 -3 14 0 17 12 13 21 -8 20 6 -1 32 l-18 21 -21 -25 c-12 -13 -20
-26 -17 -29 9 -9 -18 -46 -45 -60 -24 -13 -30 -12 -50 4 -12 10 -22 25 -22 34
0 9 -6 16 -14 16 -22 0 -28 17 -15 41 9 17 13 19 20 8 4 -7 11 -10 15 -6 10
10 -6 25 -31 29 -14 2 -20 -2 -19 -15 2 -17 1 -17 -17 -1 -22 20 -26 42 -4 24
12 -10 16 -9 20 2 3 8 5 19 4 24 -1 5 -1 15 0 22 1 18 21 5 21 -14z m-141 -89
c-2 -52 -10 -68 -24 -44 -6 9 14 99 22 99 2 0 2 -25 2 -55z m99 -39 c-2 -25 2
-41 10 -43 7 -3 11 3 10 14 -4 24 12 32 25 12 7 -11 6 -25 -3 -46 l-14 -30
-25 23 c-14 14 -32 22 -38 19 -9 -3 -14 8 -15 33 0 20 -2 51 -3 67 -4 46 6 51
32 19 18 -22 23 -39 21 -68z m-4108 64 c0 -5 -4 -10 -10 -10 -5 0 -10 5 -10
10 0 6 5 10 10 10 6 0 10 -4 10 -10z m4505 0 c3 -5 1 -10 -4 -10 -6 0 -11 5
-11 10 0 6 2 10 4 10 3 0 8 -4 11 -10z m-1823 -17 c10 -9 18 -22 18 -30 0 -7
9 -13 19 -13 28 0 36 -19 17 -38 -14 -14 -17 -14 -33 -1 -40 33 -72 43 -98 31
-38 -18 -45 -15 -45 18 0 30 4 33 70 43 14 3 27 5 29 6 3 0 13 -6 23 -16z
m1145 1 c2 -5 -9 -27 -22 -49 l-26 -40 7 45 c3 25 8 49 11 53 6 10 26 4 30 -9z
m113 -6 c0 -13 3 -34 7 -46 4 -18 8 -20 14 -10 7 10 9 9 9 -3 0 -9 -7 -19 -15
-23 -8 -3 -15 -12 -15 -21 0 -8 -6 -15 -12 -15 -7 0 -25 -7 -40 -14 -34 -18
-44 -6 -18 22 20 21 20 21 -8 49 -24 24 -25 28 -9 31 11 2 30 -7 44 -20 l25
-23 -7 37 c-4 20 -4 41 0 47 11 19 25 12 25 -11z m611 -9 c-5 -13 -10 -19 -10
-12 -1 15 10 45 15 40 3 -2 0 -15 -5 -28z m809 21 c0 -5 -4 -10 -10 -10 -5 0
-10 5 -10 10 0 6 5 10 10 10 6 0 10 -4 10 -10z m-2510 -17 c-1 -10 -50 -47
-50 -38 0 17 22 45 35 45 8 0 15 -3 15 -7z m130 -3 c0 -5 -4 -10 -10 -10 -5 0
-10 5 -10 10 0 6 5 10 10 10 6 0 10 -4 10 -10z m760 -61 c0 -9 -9 -19 -20 -22
-21 -5 -28 7 -10 18 6 3 10 16 10 28 0 18 2 19 10 7 5 -8 10 -22 10 -31z
m1135 -30 c5 -52 4 -54 -20 -54 -25 0 -33 9 -16 20 6 3 13 26 17 51 3 25 8 43
10 41 2 -2 6 -28 9 -58z m-380 41 c3 -5 -1 -10 -9 -10 -9 0 -16 5 -16 10 0 6
4 10 9 10 6 0 13 -4 16 -10z m1296 -3 c-1 -12 -15 -9 -19 4 -3 6 1 10 8 8 6
-3 11 -8 11 -12z m-2764 -19 c-3 -8 -6 -5 -6 6 -1 11 2 17 5 13 3 -3 4 -12 1
-19z m83 -25 c1 -31 3 -35 11 -20 5 9 17 17 26 17 12 0 9 -6 -10 -26 -22 -22
-28 -24 -47 -12 -18 11 -23 10 -35 -5 -24 -33 -27 1 -4 43 30 53 59 55 59 3z
m2210 33 c0 -2 -9 -6 -20 -9 -11 -3 -20 -1 -20 4 0 5 9 9 20 9 11 0 20 -2 20
-4z m-2138 -33 c-3 -16 -7 -22 -10 -15 -4 13 4 42 11 42 2 0 2 -12 -1 -27z
m861 -10 c4 -19 2 -33 -3 -33 -6 0 -10 17 -10 37 0 43 5 41 13 -4z m244 0 c-3
-3 -11 -2 -17 2 -8 5 -7 11 2 22 12 15 13 14 16 -1 2 -10 1 -20 -1 -23z m-522
-12 c-8 -36 -25 -41 -25 -8 0 22 19 51 28 43 2 -3 1 -18 -3 -35z m1141 2 c-11
-11 -19 6 -11 24 8 17 8 17 12 0 3 -10 2 -21 -1 -24z m-713 20 c9 -9 -23 -44
-34 -37 -5 3 -4 14 1 25 11 20 22 24 33 12z m-1203 -7 c0 -3 -4 -8 -10 -11 -5
-3 -10 -1 -10 4 0 6 5 11 10 11 6 0 10 -2 10 -4z m300 -37 c0 -10 -4 -19 -10
-19 -5 0 -10 12 -10 26 0 14 4 23 10 19 6 -3 10 -15 10 -26z m510 22 c0 -6 -4
-13 -10 -16 -5 -3 -10 1 -10 9 0 9 5 16 10 16 6 0 10 -4 10 -9z m637 -23 c-3
-7 -5 -2 -5 12 0 14 2 19 5 13 2 -7 2 -19 0 -25z m-2537 12 c0 -5 -4 -10 -10
-10 -5 0 -10 5 -10 10 0 6 5 10 10 10 6 0 10 -4 10 -10z m2195 0 c-3 -5 -10
-10 -16 -10 -5 0 -9 5 -9 10 0 6 7 10 16 10 8 0 12 -4 9 -10z m135 0 c0 -5 -4
-10 -9 -10 -5 0 -11 -10 -13 -22 -2 -13 -6 -18 -9 -13 -9 13 7 55 21 55 5 0
10 -4 10 -10z m432 -12 c-7 -7 -12 -8 -12 -2 0 14 12 26 19 19 2 -3 -1 -11 -7
-17z m-1479 -30 c-3 -18 -11 -26 -24 -25 -23 2 -23 2 -2 38 20 33 34 26 26
-13z m-1236 17 c9 -25 -4 -29 -17 -6 -7 15 -7 21 0 21 6 0 13 -7 17 -15z
m1561 -35 c3 -16 0 -20 -10 -15 -27 16 -38 27 -33 35 10 16 40 3 43 -20z
m1392 15 c0 -8 -4 -15 -10 -15 -5 0 -10 7 -10 15 0 8 5 15 10 15 6 0 10 -7 10
-15z m84 -10 c-4 -8 -8 -15 -10 -15 -2 0 -4 7 -4 15 0 8 4 15 10 15 5 0 7 -7
4 -15z m-1424 -4 c0 -6 -4 -13 -10 -16 -5 -3 -10 1 -10 9 0 9 5 16 10 16 6 0
10 -4 10 -9z m1107 3 c-3 -3 -12 -4 -19 -1 -8 3 -5 6 6 6 11 1 17 -2 13 -5z
m-960 -36 c-3 -8 -6 -5 -6 6 -1 11 2 17 5 13 3 -3 4 -12 1 -19z m-1916 -9 c23
-19 23 -20 3 -14 -26 7 -54 -17 -55 -48 0 -20 -2 -19 -10 5 -8 21 -6 33 7 52
20 31 25 32 55 5z m49 11 c0 -5 -4 -10 -10 -10 -5 0 -10 5 -10 10 0 6 5 10 10
10 6 0 10 -4 10 -10z m1388 -18 c6 -18 -15 -14 -22 4 -4 10 -1 14 6 12 6 -2
14 -10 16 -16z m1852 -12 c0 -5 -5 -10 -11 -10 -5 0 -7 5 -4 10 3 6 8 10 11
10 2 0 4 -4 4 -10z m-5640 -82 c0 -32 5 -58 10 -58 6 0 10 -7 10 -15 0 -8 -4
-15 -10 -15 -5 0 -7 -7 -4 -15 4 -9 0 -15 -10 -15 -14 0 -16 15 -16 103 0 69
3 97 10 87 5 -8 10 -41 10 -72z m3626 67 c-3 -10 -1 -15 7 -13 38 7 74 -30 46
-47 -6 -4 -8 -12 -6 -19 3 -6 13 -29 22 -51 15 -34 15 -38 1 -26 -13 11 -17
11 -22 -3 -3 -9 -2 -29 4 -44 13 -34 14 -94 1 -87 -5 4 -9 13 -9 21 0 8 -5 14
-12 14 -9 0 -9 3 0 12 7 7 12 21 12 32 0 20 0 20 -16 0 -14 -18 -15 -18 -8 6
3 14 12 38 20 53 17 36 8 57 -23 55 -18 -2 -26 -10 -30 -31 -5 -26 -7 -27 -24
-11 -17 16 -19 15 -29 -10 -13 -36 -13 -41 4 -27 20 17 28 -14 17 -69 -1 -3
-12 13 -25 35 -12 22 -20 45 -17 50 12 20 7 56 -6 51 -16 -6 -16 -1 -2 25 5
11 14 17 20 14 5 -4 9 -2 9 2 0 10 59 83 67 83 3 0 2 -7 -1 -15z m546 -10 c-4
-25 -16 -32 -27 -16 -3 5 2 17 11 25 21 21 22 20 16 -9z m-128 -20 c3 -8 1
-15 -4 -15 -6 0 -10 7 -10 15 0 8 2 15 4 15 2 0 6 -7 10 -15z m56 -22 c0 -11
-3 -14 -8 -7 -4 6 -14 14 -22 17 -10 4 -8 6 8 6 15 1 22 -5 22 -16z m1480 1
c0 -8 -4 -12 -10 -9 -5 3 -10 10 -10 16 0 5 5 9 10 9 6 0 10 -7 10 -16z
m-5730 -15 c0 -5 -4 -9 -10 -9 -5 0 -10 7 -10 16 0 8 5 12 10 9 6 -3 10 -10
10 -16z m4336 -15 c-4 -9 -9 -15 -11 -12 -3 3 -3 13 1 22 4 9 9 15 11 12 3 -3
3 -13 -1 -22z m-3167 -60 c-3 -42 -2 -97 3 -122 4 -25 6 -47 4 -50 -9 -9 -26
10 -26 29 0 10 -7 19 -15 19 -17 0 -20 11 -6 26 5 5 11 42 13 82 3 66 7 77 33
92 0 0 -2 -34 -6 -76z m2418 68 c6 -4 14 -19 18 -34 4 -15 13 -32 21 -39 20
-16 17 -33 -8 -55 -23 -19 -23 -19 -7 1 16 20 15 55 -1 55 -5 0 -18 18 -29 40
-19 39 -18 47 6 32z m-922 -12 c-7 -12 -55 -14 -55 -2 0 4 14 8 30 9 18 1 28
-2 25 -7z m69 -5 c-7 -16 -24 -21 -24 -6 0 8 7 13 27 20 1 1 0 -6 -3 -14z
m757 -17 c1 -18 1 -39 0 -45 -3 -22 8 -14 24 17 9 17 13 35 10 40 -3 6 -1 10
4 10 6 0 11 -5 11 -11 0 -5 4 -8 9 -4 5 3 13 0 17 -6 7 -11 -15 -31 -26 -24
-4 2 -16 -14 -27 -36 l-21 -40 -6 35 c-5 24 -11 33 -21 30 -10 -4 -12 1 -9 18
5 21 5 22 -7 4 -9 -15 -9 -23 0 -39 22 -34 4 -29 -34 9 -28 28 -34 39 -23 45
17 12 31 11 23 0 -3 -5 -1 -12 5 -16 5 -3 10 0 10 7 0 19 21 38 42 38 13 0 18
-8 19 -32z m-3536 2 c-3 -5 -10 -10 -16 -10 -5 0 -9 5 -9 10 0 6 7 10 16 10 8
0 12 -4 9 -10z m1269 -78 c-4 -18 -11 -32 -15 -32 -9 0 -2 44 8 63 10 16 13 0
7 -31z m-1284 12 c0 -8 -4 -12 -10 -9 -5 3 -10 10 -10 16 0 5 5 9 10 9 6 0 10
-7 10 -16z m971 -7 c-10 -9 -11 -8 -5 6 3 10 9 15 12 12 3 -3 0 -11 -7 -18z
m2679 2 c0 -5 -5 -7 -11 -3 -7 4 -9 0 -5 -13 3 -10 -1 -28 -9 -39 -12 -16 -14
-17 -15 -2 0 25 18 68 30 68 5 0 10 -5 10 -11z m-3515 -19 c3 -5 2 -10 -4 -10
-5 0 -13 5 -16 10 -3 6 -2 10 4 10 5 0 13 -4 16 -10z m3595 -40 c0 -21 -2 -23
-15 -10 -9 9 -12 24 -8 38 7 29 23 10 23 -28z m816 13 c-10 -10 -19 5 -10 18
6 11 8 11 12 0 2 -7 1 -15 -2 -18z m-3696 13 c0 -3 -4 -8 -10 -11 -5 -3 -10
-1 -10 4 0 6 5 11 10 11 6 0 10 -2 10 -4z m495 -17 c4 -12 12 -18 21 -15 21 8
17 -18 -6 -39 -20 -18 -29 -8 -10 11 7 7 4 16 -10 29 -21 19 -26 35 -11 35 5
0 13 -9 16 -21z m365 4 c0 -15 -2 -16 -10 -3 -6 9 -10 10 -10 3 0 -6 5 -15 10
-18 20 -12 9 -25 -20 -25 -16 0 -30 5 -30 10 0 6 8 10 17 10 9 0 13 3 10 7 -8
7 11 33 24 33 5 0 9 -8 9 -17z m1887 -5 c-3 -8 -6 -5 -6 6 -1 11 2 17 5 13 3
-3 4 -12 1 -19z m-3497 -8 c0 -5 -5 -10 -11 -10 -5 0 -7 5 -4 10 3 6 8 10 11
10 2 0 4 -4 4 -10z m65 -1 c12 -19 -5 -23 -22 -6 -16 16 -16 17 -1 17 9 0 20
-5 23 -11z m3481 -55 c-20 -26 -36 -42 -36 -37 0 15 61 96 67 90 3 -3 -11 -27
-31 -53z m192 29 c-5 -22 -21 -20 -23 4 -1 14 3 19 12 16 8 -3 13 -12 11 -20z
m-3708 7 c0 -5 -2 -10 -4 -10 -3 0 -8 5 -11 10 -3 6 -1 10 4 10 6 0 11 -4 11
-10z m440 -27 c-11 -17 -11 -17 -6 0 3 10 6 24 7 30 0 9 2 9 5 0 3 -7 0 -20
-6 -30z m-764 -30 c-10 -10 -19 5 -10 18 6 11 8 11 12 0 2 -7 1 -15 -2 -18z
m524 15 c0 -7 -5 -20 -10 -28 -8 -12 -10 -9 -10 13 0 15 5 27 10 27 6 0 10 -6
10 -12z m43 -19 c-12 -12 -26 -18 -33 -14 -8 5 -2 13 17 25 35 22 43 16 16
-11z m740 -25 c-15 -23 -19 -25 -21 -11 -2 10 4 30 14 45 15 22 19 24 22 10 2
-9 -5 -29 -15 -44z m2750 22 c-3 -4 -9 -2 -14 5 -13 22 -11 31 5 17 8 -7 12
-17 9 -22z m-3153 -21 c0 -8 -4 -15 -10 -15 -5 0 -7 7 -4 15 4 8 8 15 10 15 2
0 4 -7 4 -15z m2577 -17 c-3 -8 -6 -5 -6 6 -1 11 2 17 5 13 3 -3 4 -12 1 -19z
m-667 -39 c0 -18 -4 -28 -10 -24 -5 3 -10 20 -10 36 0 18 4 28 10 24 6 -3 10
-20 10 -36z m360 20 c0 -5 -4 -9 -10 -9 -5 0 -10 7 -10 16 0 8 5 12 10 9 6 -3
10 -10 10 -16z m-553 -21 c-3 -8 -6 -5 -6 6 -1 11 2 17 5 13 3 -3 4 -12 1 -19z
m-2957 -19 c-7 -11 -14 -18 -17 -15 -8 8 5 36 17 36 7 0 7 -6 0 -21z m3504
-12 c11 -30 4 -42 -19 -34 -19 8 -21 71 -2 65 6 -3 16 -17 21 -31z"/>
<path d="M5700 1738 c0 -5 5 -18 11 -29 8 -16 13 -18 24 -9 8 6 12 17 9 25 -6
16 -44 27 -44 13z"/>
<path d="M4501 1431 c-8 -15 -7 -20 8 -24 14 -3 17 0 13 19 -5 29 -8 30 -21 5z"/>
<path d="M3412 3270 c-14 -23 -15 -30 -3 -30 8 0 24 41 18 47 -2 1 -8 -7 -15
-17z"/>
<path d="M2711 2664 c0 -11 3 -14 6 -6 3 7 2 16 -1 19 -3 4 -6 -2 -5 -13z"/>
<path d="M2696 2632 c-4 -8 -26 -126 -26 -144 0 -5 -7 -8 -15 -8 -19 0 -20
-49 -2 -56 10 -3 12 -20 9 -59 -2 -30 -1 -55 4 -55 14 0 44 59 33 65 -5 4 -9
15 -9 26 0 25 20 24 103 -1 46 -14 68 -26 72 -40 4 -11 10 -20 15 -20 5 0 15
-2 23 -6 9 -3 18 5 25 23 27 70 27 70 -33 92 -30 12 -88 24 -127 28 l-71 6 6
79 c6 74 5 88 -7 70z"/>
<path d="M4150 2242 c-50 -4 -70 -16 -70 -43 0 -11 -4 -19 -10 -19 -20 0 -10
-59 14 -87 l25 -28 21 47 c11 26 25 50 30 53 13 8 42 64 38 73 -2 4 -23 6 -48
4z"/>
<path d="M4340 2218 c-27 -29 -26 -52 1 -45 12 3 22 0 26 -9 7 -18 63 -19 63
0 0 7 -5 26 -10 42 -13 37 -51 43 -80 12z"/>
<path d="M5971 2154 c0 -11 3 -14 6 -6 3 7 2 16 -1 19 -3 4 -6 -2 -5 -13z"/>
<path d="M1926 2135 l-29 -25 29 -36 c68 -86 56 -80 100 -51 29 19 49 25 76
23 44 -5 61 11 60 55 0 17 -2 32 -4 34 -2 2 -21 -3 -43 -10 -30 -11 -42 -11
-53 -2 -15 12 -79 37 -97 37 -5 0 -23 -11 -39 -25z"/>
<path d="M2327 2154 c-3 -3 -27 -11 -54 -18 -41 -11 -48 -16 -45 -36 1 -13 8
-30 15 -38 6 -8 11 -23 9 -33 -5 -28 17 -32 28 -5 10 28 83 68 106 59 10 -4
14 3 14 25 0 17 -3 33 -7 35 -16 9 -60 16 -66 11z"/>
<path d="M6305 2140 c14 -16 20 -17 27 -8 13 22 9 28 -19 28 -26 0 -26 0 -8
-20z"/>
<path d="M1728 2132 c-16 -9 -28 -19 -28 -22 0 -3 12 -11 28 -17 27 -12 66 -8
88 8 6 5 14 6 17 2 4 -3 13 0 22 7 43 36 -73 56 -127 22z"/>
<path d="M2830 2051 c0 -7 -5 -9 -12 -5 -7 4 -4 -3 7 -15 17 -20 20 -21 23 -6
2 9 -1 22 -7 28 -8 8 -11 8 -11 -2z"/>
<path d="M4361 2026 c-8 -10 -9 -16 -2 -21 13 -7 51 12 51 25 0 15 -36 12 -49
-4z"/>
<path d="M7491 1874 c0 -11 3 -14 6 -6 3 7 2 16 -1 19 -3 4 -6 -2 -5 -13z"/>
<path d="M7431 1801 c-6 -11 -11 -30 -11 -43 1 -22 1 -22 15 -4 17 23 22 20
27 -14 2 -21 -2 -25 -27 -30 -24 -4 -31 -11 -33 -34 -3 -26 -2 -28 12 -17 14
12 16 8 16 -40 0 -66 17 -54 23 16 l3 50 2 -57 c1 -32 6 -58 12 -58 12 0 30
34 30 57 0 15 -2 16 -10 3 -8 -12 -10 -9 -10 13 0 15 5 27 10 27 6 0 10 9 10
20 0 13 -5 18 -15 14 -20 -8 -19 13 1 24 12 7 14 17 9 45 -4 20 -11 37 -15 37
-5 0 -15 3 -23 6 -9 3 -20 -3 -26 -15z"/>
<path d="M7330 1800 c0 -5 5 -10 11 -10 5 0 7 5 4 10 -3 6 -8 10 -11 10 -2 0
-4 -4 -4 -10z"/>
<path d="M7060 1740 c-8 -5 -11 -12 -7 -16 4 -4 13 -2 19 4 15 15 7 24 -12 12z"/>
<path d="M6086 1698 c-18 -36 -11 -53 10 -24 13 18 20 56 10 56 -3 0 -12 -14
-20 -32z"/>
<path d="M7347 1663 c-7 -35 2 -60 14 -41 13 19 12 -8 0 -31 -15 -27 -3 -60
20 -54 12 3 20 0 20 -8 1 -8 5 2 8 21 8 41 4 60 -12 57 -7 -1 -10 10 -9 30 3
23 -2 34 -16 42 -17 9 -20 7 -25 -16z"/>
<path d="M6550 1662 c0 -7 -9 -12 -19 -12 -23 0 -36 -16 -21 -25 5 -3 10 0 10
7 0 7 6 4 12 -7 11 -19 12 -18 19 10 5 16 6 31 4 34 -3 2 -5 -1 -5 -7z"/>
<path d="M6971 1637 c2 -12 0 -28 -4 -34 -5 -8 -4 -13 2 -13 6 0 11 -5 11 -12
0 -19 -31 -47 -46 -41 -8 3 -14 -1 -14 -10 0 -9 -3 -23 -6 -31 -5 -13 -1 -15
17 -12 13 3 30 5 38 5 11 1 11 4 0 19 -7 9 -10 14 -6 11 4 -4 22 7 39 25 l31
31 10 -23 c7 -15 7 -26 1 -30 -5 -4 -15 -18 -23 -32 -14 -24 -13 -24 5 -10 10
8 22 19 26 25 4 5 10 2 14 -8 4 -11 0 -22 -10 -30 -11 -9 -13 -16 -6 -27 8
-12 11 -13 19 -1 7 11 9 11 14 0 3 -8 6 9 6 38 1 32 -4 53 -11 56 -10 4 -10 8
1 15 10 8 11 11 1 17 -10 6 -8 12 6 23 17 13 16 14 -16 9 -19 -3 -46 -8 -59
-13 -23 -7 -24 -6 -18 29 4 26 2 37 -9 41 -11 4 -15 0 -13 -17z"/>
<path d="M6620 1638 c-56 -67 -60 -75 -35 -84 20 -8 19 -38 -1 -70 -15 -22
-15 -24 0 -18 9 3 16 10 16 16 0 5 5 6 10 3 7 -5 9 8 5 39 -3 28 -1 46 5 46 5
0 10 -8 11 -17 0 -15 2 -15 8 2 5 11 4 23 -2 26 -5 4 -8 21 -5 38 5 34 4 37
-12 19z"/>
<path d="M6188 1634 c-5 -4 -8 -16 -8 -28 0 -14 3 -17 11 -9 6 6 9 19 7 28 -1
9 -6 13 -10 9z"/>
<path d="M7170 1595 c0 -14 -6 -28 -14 -31 -8 -3 -12 -13 -9 -25 7 -24 22 -25
19 -1 -2 9 3 26 10 37 16 23 18 45 4 45 -5 0 -10 -11 -10 -25z"/>
<path d="M6650 1598 c0 -7 5 -20 10 -28 8 -12 10 -11 10 7 0 12 -4 25 -10 28
-5 3 -10 0 -10 -7z"/>
<path d="M6265 1580 c-3 -5 -1 -10 4 -10 6 0 11 5 11 10 0 6 -2 10 -4 10 -3 0
-8 -4 -11 -10z"/>
<path d="M6714 1580 c-12 -5 -25 -14 -30 -21 -5 -9 -2 -11 9 -6 16 6 32 -18
21 -34 -3 -5 0 -9 5 -9 6 0 11 8 11 17 0 10 3 13 9 8 12 -14 23 -105 12 -105
-5 0 -12 -10 -16 -22 l-7 -23 -8 25 -8 25 -1 -27 c-1 -15 -9 -31 -18 -37 -15
-8 -16 -13 -5 -30 14 -25 16 -51 2 -51 -5 0 -7 -7 -3 -16 9 -23 23 3 23 43 0
17 5 35 10 38 6 4 9 2 8 -3 -3 -11 1 -12 32 -12 11 0 20 5 20 10 0 6 -6 10
-14 10 -23 0 -27 29 -6 40 11 6 20 21 20 34 0 13 7 40 15 60 12 28 12 36 3 36
-7 0 -22 14 -33 30 -22 33 -21 32 -51 20z"/>
<path d="M7207 1570 c-3 -12 0 -20 8 -20 8 0 11 8 8 20 -3 11 -7 20 -8 20 -1
0 -5 -9 -8 -20z"/>
<path d="M6795 1570 c3 -5 8 -10 11 -10 2 0 4 5 4 10 0 6 -5 10 -11 10 -5 0
-7 -4 -4 -10z"/>
<path d="M6895 1560 c-3 -5 -2 -10 4 -10 5 0 13 5 16 10 3 6 2 10 -4 10 -5 0
-13 -4 -16 -10z"/>
<path d="M7282 1538 c-9 -32 3 -77 16 -64 3 4 1 11 -5 17 -8 8 -5 21 9 45 17
29 18 34 4 34 -9 0 -19 -13 -24 -32z"/>
<path d="M6072 1518 c2 -23 -1 -32 -10 -30 -17 3 -23 -18 -14 -51 l7 -28 24
20 c22 19 23 23 11 71 -14 57 -23 66 -18 18z"/>
<path d="M7240 1541 c0 -6 5 -13 10 -16 6 -3 10 1 10 9 0 9 -4 16 -10 16 -5 0
-10 -4 -10 -9z"/>
<path d="M6640 1514 c0 -8 5 -12 10 -9 6 3 10 10 10 16 0 5 -4 9 -10 9 -5 0
-10 -7 -10 -16z"/>
<path d="M7106 1523 c-3 -3 -6 -15 -6 -25 0 -13 8 -18 30 -18 20 0 30 -5 30
-15 0 -18 -16 -20 -24 -2 -3 6 -4 -3 -3 -22 1 -19 7 -36 14 -38 7 -3 10 4 7
19 -3 15 1 12 11 -10 9 -18 13 -38 9 -43 -3 -5 -1 -16 6 -24 9 -10 9 -19 0
-37 -9 -19 -6 -17 17 7 16 18 40 32 56 33 26 2 27 1 23 -43 -2 -24 0 -43 4
-40 4 2 8 27 9 55 1 38 -2 49 -10 44 -9 -5 -10 -2 -6 10 4 10 7 20 7 22 0 2
11 4 25 4 26 0 33 14 14 26 -6 3 -15 1 -19 -6 -4 -7 -13 -9 -19 -6 -6 4 -11 4
-10 -1 1 -4 -4 -21 -11 -38 l-13 -30 -7 30 c-4 17 -12 40 -19 50 -11 20 -11
20 -9 0 2 -11 8 -23 13 -27 6 -5 5 -12 -5 -17 -19 -13 -23 -7 -22 31 1 26 -8
41 -42 75 -24 23 -46 39 -50 36z"/>
<path d="M7190 1510 c6 -11 15 -20 20 -20 21 0 5 33 -18 38 -10 2 -10 -2 -2
-18z"/>
<path d="M7340 1514 c0 -8 5 -12 10 -9 6 4 8 11 5 16 -9 14 -15 11 -15 -7z"/>
<path d="M7460 1515 c0 -8 5 -15 10 -15 6 0 10 7 10 15 0 8 -4 15 -10 15 -5 0
-10 -7 -10 -15z"/>
<path d="M6191 1462 c-7 -29 -11 -56 -8 -59 8 -7 29 75 25 95 -2 9 -10 -7 -17
-36z"/>
<path d="M7420 1493 c0 -12 5 -25 10 -28 13 -8 13 15 0 35 -8 12 -10 11 -10
-7z"/>
<path d="M7344 1452 c2 -24 12 -52 22 -63 18 -20 40 -27 29 -9 -3 6 -1 10 4
10 6 0 11 5 11 11 0 5 -4 7 -10 4 -5 -3 -10 1 -10 9 0 9 -7 16 -15 16 -8 0
-19 15 -25 33 -10 31 -10 31 -6 -11z"/>
<path d="M5971 1464 c0 -11 3 -14 6 -6 3 7 2 16 -1 19 -3 4 -6 -2 -5 -13z"/>
<path d="M7200 1465 c7 -9 15 -13 17 -11 7 7 -7 26 -19 26 -6 0 -6 -6 2 -15z"/>
<path d="M7390 1473 c0 -5 5 -15 10 -23 7 -12 9 -10 7 8 -1 19 -17 33 -17 15z"/>
<path d="M6616 1448 c-6 -26 5 -41 34 -43 13 -1 20 4 20 17 0 15 -4 17 -19 9
-16 -9 -17 -7 -13 14 6 31 -14 33 -22 3z"/>
<path d="M7280 1444 c0 -8 5 -12 10 -9 6 3 10 10 10 16 0 5 -4 9 -10 9 -5 0
-10 -7 -10 -16z"/>
<path d="M7444 1436 c-3 -8 -3 -20 1 -26 3 -5 1 -10 -4 -10 -6 0 -11 -6 -11
-13 0 -19 37 -50 49 -42 13 8 15 35 2 35 -5 0 -8 14 -7 31 1 34 -20 51 -30 25z"/>
<path d="M5143 1433 c-19 -7 -16 -20 7 -26 15 -4 20 0 20 14 0 19 -5 21 -27
12z"/>
<path d="M5786 1419 c-16 -16 -17 -21 -5 -36 13 -16 12 -17 -2 -5 -14 10 -18
10 -23 -3 -3 -9 0 -15 10 -15 8 0 17 -13 21 -32 6 -30 7 -31 12 -10 3 13 11
23 16 23 6 0 14 7 19 16 6 11 10 12 16 3 5 -9 9 -8 13 3 3 7 1 20 -4 28 -8 12
-10 12 -19 -1 -9 -13 -10 -13 -10 1 0 8 -6 22 -12 31 -12 15 -15 14 -32 -3z"/>
<path d="M5872 1428 c-8 -8 -9 -15 -1 -25 17 -20 29 -15 29 12 0 27 -9 32 -28
13z"/>
<path d="M6948 1399 c-16 -39 -16 -40 0 -33 9 4 27 8 39 8 20 1 21 3 7 16 -13
13 -16 13 -24 0 -14 -21 -13 5 0 31 6 10 7 19 3 19 -4 0 -16 -19 -25 -41z"/>
<path d="M5985 1398 c4 -18 8 -41 8 -50 1 -9 5 -14 9 -12 4 3 8 0 8 -5 0 -6 5
-11 10 -11 15 0 12 32 -5 54 -8 11 -15 28 -15 38 0 10 -5 18 -11 18 -8 0 -9
-11 -4 -32z"/>
<path d="M6360 1410 c0 -5 5 -10 11 -10 5 0 7 5 4 10 -3 6 -8 10 -11 10 -2 0
-4 -4 -4 -10z"/>
<path d="M7065 1410 c-3 -5 -1 -10 4 -10 6 0 11 5 11 10 0 6 -2 10 -4 10 -3 0
-8 -4 -11 -10z"/>
<path d="M4765 1380 c1 -17 5 -33 9 -37 3 -3 6 -14 6 -24 0 -10 4 -20 8 -23 9
-5 7 77 -2 101 -10 24 -24 13 -21 -17z"/>
<path d="M5560 1400 c0 -5 5 -10 10 -10 6 0 10 5 10 10 0 6 -4 10 -10 10 -5 0
-10 -4 -10 -10z"/>
<path d="M5612 1370 c-1 -28 6 -43 24 -59 31 -27 36 -27 24 5 -6 14 -10 37
-10 52 1 26 1 26 15 8 13 -17 15 -18 15 -3 0 9 -1 17 -3 17 -1 0 -16 4 -33 9
-31 9 -32 9 -32 -29z m28 -14 c0 -3 -4 -8 -10 -11 -5 -3 -10 -1 -10 4 0 6 5
11 10 11 6 0 10 -2 10 -4z"/>
<path d="M7082 1390 c-18 -29 -15 -36 8 -15 20 18 26 35 12 35 -4 0 -13 -9
-20 -20z"/>
<path d="M6654 1392 c-21 -2 -35 -12 -47 -32 -19 -32 -22 -44 -7 -35 17 11 32
-5 19 -21 -12 -15 -5 -64 10 -64 4 0 6 12 3 26 -3 19 -1 25 6 20 8 -5 10 2 5
25 -4 22 -3 30 5 25 6 -3 14 4 18 16 4 13 12 26 18 30 15 10 5 14 -30 10z"/>
<path d="M4630 1380 c0 -5 5 -10 11 -10 5 0 7 5 4 10 -3 6 -8 10 -11 10 -2 0
-4 -4 -4 -10z"/>
<path d="M5453 1379 c-8 -8 -7 -18 3 -37 8 -15 14 -34 15 -42 0 -10 2 -11 6
-2 2 6 11 12 18 12 8 0 16 4 19 9 3 4 -6 6 -19 3 -20 -3 -25 0 -24 14 0 12 3
14 6 6 4 -10 8 -10 19 -1 18 15 18 43 0 36 -7 -3 -18 -1 -23 4 -5 5 -13 5 -20
-2z"/>
<path d="M6323 1347 c0 -23 1 -35 4 -27 3 8 9 22 14 31 5 11 4 21 -4 27 -10 9
-13 2 -14 -31z"/>
<path d="M6040 1350 c0 -13 5 -18 15 -14 8 4 15 12 15 20 0 8 -7 14 -15 14 -8
0 -15 -9 -15 -20z"/>
<path d="M6387 1349 c-4 -15 -2 -19 8 -15 11 4 12 0 5 -19 -6 -16 -6 -25 1
-25 5 0 12 7 15 15 9 22 24 18 24 -7 0 -16 3 -19 11 -11 13 13 -2 40 -36 65
-22 17 -23 16 -28 -3z"/>
<path d="M7325 1360 c-3 -5 -1 -10 4 -10 6 0 11 5 11 10 0 6 -2 10 -4 10 -3 0
-8 -4 -11 -10z"/>
<path d="M5160 1350 c0 -6 -5 -8 -11 -4 -9 5 -10 -1 -5 -20 4 -18 3 -25 -4
-21 -5 3 -10 -1 -10 -11 0 -13 3 -14 14 -5 11 10 16 6 25 -16 l11 -28 -4 27
c-1 15 1 25 5 22 5 -3 9 -17 10 -32 0 -15 7 -43 15 -62 l14 -35 -6 49 c-7 61
-24 98 -41 92 -7 -3 -13 1 -13 10 0 8 5 12 10 9 6 -3 10 1 10 9 0 8 -4 18 -10
21 -5 3 -10 1 -10 -5z"/>
<path d="M7410 1351 c0 -13 29 -35 37 -28 7 8 -15 37 -28 37 -5 0 -9 -4 -9 -9z"/>
<path d="M7060 1350 c-10 -35 -7 -46 15 -57 20 -9 25 -8 25 3 0 8 -5 14 -10
14 -6 0 -15 10 -20 23 -5 12 -9 20 -10 17z"/>
<path d="M4751 1324 c0 -11 3 -14 6 -6 3 7 2 16 -1 19 -3 4 -6 -2 -5 -13z"/>
<path d="M5674 1329 c-2 -4 0 -18 5 -31 7 -17 10 -19 10 -5 1 10 8 20 16 23 8
4 15 9 15 13 0 9 -40 9 -46 0z"/>
<path d="M6075 1324 c-9 -9 -14 -18 -11 -21 6 -6 46 20 46 29 0 13 -18 9 -35
-8z"/>
<path d="M6351 1324 c0 -11 3 -14 6 -6 3 7 2 16 -1 19 -3 4 -6 -2 -5 -13z"/>
<path d="M6561 1324 c0 -11 3 -14 6 -6 3 7 2 16 -1 19 -3 4 -6 -2 -5 -13z"/>
<path d="M6962 1335 c4 -4 0 -14 -10 -21 -16 -12 -16 -13 0 -14 9 0 20 5 24
11 4 8 9 7 15 -2 6 -10 9 -10 9 -2 0 7 -10 18 -22 24 -13 6 -20 8 -16 4z"/>
<path d="M4963 1310 c-4 -16 -8 -18 -19 -9 -16 13 -18 1 -5 -20 14 -21 39 -6
39 23 0 31 -8 34 -15 6z"/>
<path d="M5292 1300 c1 -35 8 -33 12 4 2 14 0 26 -5 26 -4 0 -7 -14 -7 -30z"/>
<path d="M5410 1326 c0 -2 7 -7 16 -10 8 -3 12 -2 9 4 -6 10 -25 14 -25 6z"/>
<path d="M7247 1323 c-4 -3 -7 -11 -7 -17 0 -6 5 -5 12 2 6 6 9 14 7 17 -3 3
-9 2 -12 -2z"/>
<path d="M7310 1306 c0 -31 10 -56 21 -56 4 0 6 7 3 15 -4 8 -2 15 4 15 15 0
3 38 -14 44 -10 4 -14 -2 -14 -18z"/>
<path d="M5545 1306 c-23 -25 -26 -40 -4 -19 12 12 21 24 18 27 -2 2 -9 -1
-14 -8z"/>
<path d="M5594 1249 c3 -41 5 -75 6 -76 0 -2 5 -3 10 -3 6 0 8 10 5 23 -3 12
1 31 9 42 14 18 15 18 16 3 0 -24 26 -23 33 1 3 12 -4 28 -19 42 -13 12 -24
17 -24 11 0 -7 -4 -12 -10 -12 -5 0 -10 6 -10 14 0 8 -5 18 -11 22 -8 4 -9
-15 -5 -67z"/>
<path d="M6220 1309 c0 -5 5 -7 10 -4 6 3 10 8 10 11 0 2 -4 4 -10 4 -5 0 -10
-5 -10 -11z"/>
<path d="M4821 1300 c0 -8 4 -22 9 -30 12 -18 12 -2 0 25 -6 13 -9 15 -9 5z"/>
<path d="M5060 1293 c0 -13 5 -23 10 -23 13 0 13 11 0 30 -8 12 -10 11 -10 -7z"/>
<path d="M6086 1293 c-6 -14 -5 -15 5 -6 7 7 10 15 7 18 -3 3 -9 -2 -12 -12z"/>
<path d="M6102 1278 c-30 -48 -28 -56 4 -19 14 17 24 36 22 43 -2 6 -14 -4
-26 -24z"/>
<path d="M5727 1293 c-4 -3 -7 -11 -7 -17 0 -6 5 -5 12 2 6 6 9 14 7 17 -3 3
-9 2 -12 -2z"/>
<path d="M5850 1285 c-7 -8 -16 -12 -21 -9 -5 3 -25 0 -44 -7 -34 -13 -45 -32
-25 -44 6 -3 10 -1 10 5 0 7 7 10 15 6 9 -3 15 0 15 9 0 9 9 13 26 12 19 -1
29 4 35 21 10 26 6 28 -11 7z"/>
<path d="M5885 1291 c-7 -12 12 -24 25 -16 11 7 4 25 -10 25 -5 0 -11 -4 -15
-9z"/>
<path d="M6326 1275 c-18 -28 -21 -39 -6 -30 6 4 10 -6 10 -22 0 -25 1 -26 16
-11 10 10 13 21 8 30 -5 7 -7 23 -5 36 3 29 -3 28 -23 -3z"/>
<path d="M6579 1300 c-9 -60 -8 -81 3 -78 17 6 23 57 9 71 -6 6 -11 9 -12 7z"/>
<path d="M6920 1294 c0 -17 17 -36 24 -26 3 5 -1 15 -9 22 -8 7 -15 9 -15 4z"/>
<path d="M4765 1265 c0 -14 4 -25 8 -25 5 0 6 -13 2 -29 -5 -24 -2 -32 15 -41
15 -8 19 -17 14 -32 -5 -17 -3 -20 13 -16 26 7 53 -8 53 -30 0 -14 2 -15 10
-2 9 15 -18 50 -40 50 -5 0 -10 7 -10 15 0 8 -4 15 -10 15 -16 0 -12 17 6 24
10 4 13 2 8 -7 -5 -9 -4 -9 5 -1 8 7 9 19 3 34 -6 15 -11 19 -16 12 -11 -19
-36 -14 -36 7 0 24 -10 51 -19 51 -3 0 -6 -11 -6 -25z"/>
<path d="M6530 1280 c0 -5 5 -10 11 -10 5 0 7 5 4 10 -3 6 -8 10 -11 10 -2 0
-4 -4 -4 -10z"/>
<path d="M6884 1275 c3 -8 -2 -21 -10 -30 -9 -8 -11 -15 -5 -15 5 0 13 5 16
10 10 17 25 11 18 -7 -5 -12 -2 -15 10 -10 8 3 18 1 21 -6 3 -9 5 -8 5 1 1 7
-10 23 -24 36 -13 13 -22 26 -18 29 3 4 1 7 -6 7 -8 0 -11 -7 -7 -15z"/>
<path d="M6960 1283 c0 -5 4 -14 9 -21 6 -10 10 -9 14 7 3 14 0 21 -9 21 -8 0
-14 -3 -14 -7z"/>
<path d="M7030 1279 c0 -5 5 -7 10 -4 6 3 10 8 10 11 0 2 -4 4 -10 4 -5 0 -10
-5 -10 -11z"/>
<path d="M7235 1282 c-11 -2 -29 -11 -40 -18 -17 -12 -17 -14 -2 -14 10 0 17
-8 17 -19 0 -10 7 -24 15 -31 9 -8 15 -8 15 -2 0 6 -6 13 -12 15 -7 3 -3 6 8
6 28 1 42 -18 37 -51 -4 -32 13 -47 22 -19 8 25 -20 81 -40 81 -18 0 -20 21
-3 38 15 15 9 20 -17 14z"/>
<path d="M5410 1258 c0 -19 2 -20 10 -8 13 19 13 30 0 30 -5 0 -10 -10 -10
-22z"/>
<path d="M6835 1260 c-13 -15 -15 -24 -8 -31 8 -8 15 -2 26 20 18 35 9 41 -18
11z"/>
<path d="M7480 1265 c10 -12 10 -15 -3 -15 -9 0 -18 -4 -21 -9 -3 -5 6 -8 19
-8 20 0 25 5 25 23 0 15 -6 24 -16 24 -14 0 -14 -3 -4 -15z"/>
<path d="M5700 1240 c0 -18 4 -29 10 -25 6 3 10 15 10 25 0 10 -4 22 -10 25
-6 4 -10 -7 -10 -25z"/>
<path d="M6042 1245 c-13 -29 -8 -32 15 -9 10 10 12 19 6 25 -6 6 -14 0 -21
-16z"/>
<path d="M7045 1253 c-18 -14 -18 -15 -2 -9 10 3 23 6 28 6 5 0 9 5 9 10 0 14
-12 12 -35 -7z"/>
<path d="M5303 1244 c-3 -9 -1 -19 6 -23 6 -4 9 -15 5 -24 -3 -10 -1 -17 5
-17 6 0 11 7 11 16 0 14 3 14 15 4 12 -10 15 -9 16 6 1 14 3 13 9 -6 6 -21 8
-22 14 -8 4 9 2 26 -4 38 -9 17 -14 19 -26 9 -8 -7 -14 -7 -14 -1 0 18 -30 23
-37 6z"/>
<path d="M5918 1254 c-11 -17 2 -88 18 -104 14 -13 15 -12 10 10 -4 14 -10 43
-14 65 -4 22 -11 35 -14 29z"/>
<path d="M5052 1230 c0 -14 2 -19 5 -12 2 6 2 18 0 25 -3 6 -5 1 -5 -13z"/>
<path d="M6140 1208 c0 -56 7 -78 26 -78 16 0 19 16 4 25 -6 3 -7 17 -4 30 4
14 0 33 -10 47 -16 22 -16 21 -16 -24z"/>
<path d="M6405 1240 c-3 -6 1 -7 9 -4 18 7 21 14 7 14 -6 0 -13 -4 -16 -10z"/>
<path d="M4920 1231 c0 -5 5 -13 10 -16 6 -3 10 -2 10 4 0 5 -4 13 -10 16 -5
3 -10 2 -10 -4z"/>
<path d="M5470 1223 c0 -12 5 -25 10 -28 13 -8 13 15 0 35 -8 12 -10 11 -10
-7z"/>
<path d="M5490 1230 c0 -5 5 -10 11 -10 5 0 7 5 4 10 -3 6 -8 10 -11 10 -2 0
-4 -4 -4 -10z"/>
<path d="M5560 1230 c0 -5 5 -10 11 -10 5 0 7 5 4 10 -3 6 -8 10 -11 10 -2 0
-4 -4 -4 -10z"/>
<path d="M6730 1230 c0 -5 4 -10 9 -10 6 0 13 5 16 10 3 6 -1 10 -9 10 -9 0
-16 -4 -16 -10z"/>
<path d="M7000 1230 c0 -5 5 -10 11 -10 5 0 7 5 4 10 -3 6 -8 10 -11 10 -2 0
-4 -4 -4 -10z"/>
<path d="M7126 1225 c4 -8 8 -15 10 -15 2 0 4 7 4 15 0 8 -4 15 -10 15 -5 0
-7 -7 -4 -15z"/>
<path d="M7160 1233 c0 -5 6 -15 13 -22 10 -11 9 -13 -5 -8 -10 3 -20 2 -24
-4 -3 -6 -12 -8 -20 -5 -18 7 -18 -18 -1 -32 13 -11 53 -6 74 10 16 12 1 62
-20 66 -9 2 -17 0 -17 -5z"/>
<path d="M4880 1209 c0 -5 5 -7 10 -4 6 3 10 8 10 11 0 2 -4 4 -10 4 -5 0 -10
-5 -10 -11z"/>
<path d="M5730 1204 c0 -8 5 -12 10 -9 6 4 8 11 5 16 -9 14 -15 11 -15 -7z"/>
<path d="M7332 1208 c-14 -14 -16 -64 -4 -72 12 -7 34 66 24 76 -5 5 -13 3
-20 -4z"/>
<path d="M7412 1184 c0 -19 5 -34 10 -34 6 0 7 -11 4 -25 -7 -28 8 -33 37 -11
23 18 22 35 -3 29 -17 -5 -20 0 -20 30 0 21 -6 37 -14 40 -10 4 -14 -3 -14
-29z"/>
<path d="M5660 1200 c0 -5 5 -10 10 -10 6 0 10 5 10 10 0 6 -4 10 -10 10 -5 0
-10 -4 -10 -10z"/>
<path d="M5848 1203 c6 -2 18 -2 25 0 6 3 1 5 -13 5 -14 0 -19 -2 -12 -5z"/>
<path d="M6227 1190 c3 -11 7 -20 9 -20 2 0 4 9 4 20 0 11 -4 20 -9 20 -5 0
-7 -9 -4 -20z"/>
<path d="M7030 1199 c0 -5 5 -7 10 -4 6 3 10 8 10 11 0 2 -4 4 -10 4 -5 0 -10
-5 -10 -11z"/>
<path d="M4635 1190 c3 -5 8 -10 11 -10 2 0 4 5 4 10 0 6 -5 10 -11 10 -5 0
-7 -4 -4 -10z"/>
<path d="M5240 1190 c-13 -8 -13 -10 1 -10 9 0 21 -10 27 -22 10 -22 11 -21
11 10 1 33 -11 40 -39 22z"/>
<path d="M6937 1193 c-11 -19 0 -68 16 -71 9 -2 17 1 17 7 0 6 -5 11 -11 11
-7 0 -10 12 -7 30 4 28 -5 41 -15 23z"/>
<path d="M4723 1178 c3 -9 0 -24 -8 -35 -13 -17 -14 -16 -25 12 -7 17 -14 24
-17 17 -3 -7 -2 -20 3 -30 4 -9 6 -24 5 -32 -3 -13 0 -12 15 1 11 9 29 20 42
23 12 4 22 12 22 17 0 5 0 12 0 17 0 4 -6 7 -12 7 -7 0 -17 5 -21 10 -5 6 -7
3 -4 -7z"/>
<path d="M4860 1181 c0 -5 5 -13 10 -16 6 -3 10 -2 10 4 0 5 -4 13 -10 16 -5
3 -10 2 -10 -4z"/>
<path d="M5536 1175 c4 -8 10 -12 15 -9 11 6 2 24 -11 24 -5 0 -7 -7 -4 -15z"/>
<path d="M5757 1170 c-3 -11 -1 -23 4 -26 5 -3 9 6 9 20 0 31 -6 34 -13 6z"/>
<path d="M6870 1180 c0 -5 5 -10 11 -10 5 0 7 5 4 10 -3 6 -8 10 -11 10 -2 0
-4 -4 -4 -10z"/>
<path d="M6993 1182 c-8 -5 -9 -13 -3 -22 11 -17 23 -8 18 14 -2 9 -8 12 -15
8z"/>
<path d="M7376 1173 c-6 -14 -5 -15 5 -6 7 7 10 15 7 18 -3 3 -9 -2 -12 -12z"/>
<path d="M4890 1171 c0 -5 7 -11 15 -15 8 -3 15 -1 15 3 0 5 -7 11 -15 15 -8
3 -15 1 -15 -3z"/>
<path d="M5094 1165 c5 -11 9 -29 11 -39 2 -24 21 -32 28 -12 3 8 -6 27 -21
43 -19 20 -24 23 -18 8z"/>
<path d="M5810 1170 c0 -5 6 -10 14 -10 8 0 18 5 21 10 3 6 -3 10 -14 10 -12
0 -21 -4 -21 -10z"/>
<path d="M6091 1166 c-9 -10 -8 -15 4 -20 8 -3 15 -4 15 -2 0 3 3 11 6 20 8
20 -9 21 -25 2z"/>
<path d="M6810 1170 c0 -5 5 -10 10 -10 6 0 10 5 10 10 0 6 -4 10 -10 10 -5 0
-10 -4 -10 -10z"/>
<path d="M5340 1151 c0 -22 16 -36 24 -22 8 12 -3 41 -15 41 -5 0 -9 -9 -9
-19z"/>
<path d="M5860 1160 c0 -5 5 -10 11 -10 5 0 7 5 4 10 -3 6 -8 10 -11 10 -2 0
-4 -4 -4 -10z"/>
<path d="M6470 1145 c0 -8 10 -23 21 -34 18 -16 25 -18 40 -8 18 11 17 13 -11
26 -16 8 -30 18 -30 23 0 4 -4 8 -10 8 -5 0 -10 -7 -10 -15z"/>
<path d="M5533 1131 c-6 -10 -8 -23 -3 -30 5 -9 10 -4 14 14 9 34 4 40 -11 16z"/>
<path d="M5810 1141 c0 -4 9 -16 20 -26 11 -10 20 -14 20 -9 0 5 -9 17 -20 27
-11 9 -20 13 -20 8z"/>
<path d="M620 1120 c0 -19 3 -21 12 -12 9 9 9 15 0 24 -9 9 -12 7 -12 -12z"/>
<path d="M7160 1130 c-9 -6 -10 -10 -3 -10 6 0 15 5 18 10 8 12 4 12 -15 0z"/>
<path d="M7360 1128 c1 -14 24 -48 32 -48 16 0 13 38 -3 48 -24 15 -29 15 -29
0z"/>
<path d="M5560 1119 c0 -5 5 -7 10 -4 6 3 10 8 10 11 0 2 -4 4 -10 4 -5 0 -10
-5 -10 -11z"/>
<path d="M537 1106 c-4 -9 -13 -16 -22 -16 -17 0 -19 -9 -5 -30 8 -12 10 -12
16 3 3 9 10 14 15 11 13 -8 24 25 12 37 -7 7 -12 5 -16 -5z"/>
<path d="M5760 1100 c0 -11 5 -20 10 -20 6 0 10 9 10 20 0 11 -4 20 -10 20 -5
0 -10 -9 -10 -20z"/>
<path d="M294 1099 c-3 -6 -1 -16 5 -22 8 -8 11 -5 11 11 0 24 -5 28 -16 11z"/>
<path d="M1090 1095 c0 -8 5 -15 10 -15 6 0 10 7 10 15 0 8 -4 15 -10 15 -5 0
-10 -7 -10 -15z"/>
<path d="M1561 1086 c-10 -25 -31 -36 -31 -16 0 16 -14 11 -27 -9 -10 -16 -9
-18 8 -14 15 4 19 0 19 -22 0 -21 4 -26 16 -21 9 3 17 6 19 6 2 0 1 9 -2 21
-3 11 0 31 7 45 8 13 10 27 7 30 -4 4 -11 -5 -16 -20z"/>
<path d="M4755 1100 c3 -5 8 -10 11 -10 2 0 4 5 4 10 0 6 -5 10 -11 10 -5 0
-7 -4 -4 -10z"/>
<path d="M0 1084 c0 -8 5 -12 10 -9 6 3 10 10 10 16 0 5 -4 9 -10 9 -5 0 -10
-7 -10 -16z"/>
<path d="M250 1091 c0 -5 -3 -18 -7 -28 -6 -17 -5 -17 15 1 12 10 19 23 16 27
-7 12 -24 11 -24 0z"/>
<path d="M840 1085 c0 -8 -4 -15 -10 -15 -5 0 -10 -7 -10 -15 0 -20 16 -19 24
1 4 9 9 15 12 12 2 -3 0 -16 -5 -30 -6 -15 -6 -30 0 -39 7 -11 13 -9 29 11 17
22 21 23 34 10 8 -8 18 -33 21 -55 5 -33 1 -47 -22 -82 -15 -24 -35 -43 -44
-43 -13 0 -15 -6 -10 -32 7 -33 31 -52 31 -24 0 25 28 31 51 10 20 -18 20 -18
14 8 -6 22 -2 28 24 41 29 14 31 14 46 -9 l16 -25 28 20 c26 19 29 19 44 4 15
-15 17 -15 23 1 4 9 2 26 -3 38 -8 18 -11 19 -24 6 -8 -8 -21 -15 -29 -15 -8
0 -23 -4 -32 -8 -14 -6 -18 -2 -18 18 0 27 -21 42 -37 26 -15 -15 -43 1 -43
25 0 25 27 106 42 123 7 9 6 14 -6 18 -9 3 -23 7 -32 10 -8 3 -22 -2 -30 -10
-22 -21 -31 -19 -38 10 -7 28 -46 36 -46 10z"/>
<path d="M1988 1088 c-7 -18 25 -72 45 -76 12 -3 17 4 17 22 0 14 -5 28 -10
31 -6 4 -8 11 -5 16 3 5 -1 6 -10 2 -10 -3 -20 0 -25 6 -6 10 -8 10 -12 -1z"/>
<path d="M5140 1091 c0 -6 4 -13 10 -16 6 -3 7 1 4 9 -7 18 -14 21 -14 7z"/>
<path d="M6030 1088 c0 -7 10 -24 21 -38 15 -18 19 -20 15 -7 -3 10 -6 27 -6
38 0 10 -7 19 -15 19 -8 0 -15 -6 -15 -12z"/>
<path d="M1895 1080 c-3 -5 -5 -10 -3 -11 29 -7 36 -5 31 7 -6 16 -19 18 -28
4z"/>
<path d="M6680 1071 c12 -23 30 -36 30 -22 0 10 -27 41 -36 41 -3 0 0 -9 6
-19z"/>
<path d="M755 1070 c-11 -17 5 -32 21 -19 9 7 14 8 14 1 0 -6 -5 -12 -12 -14
-12 -4 -3 -28 11 -28 17 0 18 39 2 54 -20 19 -28 20 -36 6z"/>
<path d="M6476 1051 c-23 -24 -25 -29 -11 -35 33 -12 53 -6 59 19 13 51 -8 58
-48 16z"/>
<path d="M7265 1071 c-3 -5 -1 -12 5 -16 5 -3 10 1 10 9 0 18 -6 21 -15 7z"/>
<path d="M1127 1051 c-6 -23 21 -51 49 -51 11 0 15 4 9 8 -6 4 -16 19 -22 35
-15 32 -29 35 -36 8z"/>
<path d="M1945 1040 c-7 -32 1 -54 16 -45 12 8 12 75 0 75 -5 0 -12 -13 -16
-30z"/>
<path d="M706 1044 c-4 -10 -16 -13 -43 -9 -33 5 -43 2 -71 -24 -20 -19 -38
-28 -49 -24 -13 5 -15 2 -10 -19 5 -19 0 -31 -21 -50 -15 -14 -35 -28 -44 -31
-24 -8 -23 -29 2 -58 20 -24 20 -24 35 -5 10 13 12 23 5 30 -14 14 -12 26 4
26 8 0 17 9 21 19 3 11 19 22 35 26 17 4 38 17 48 29 10 13 27 26 39 30 12 4
24 13 26 21 6 14 41 10 63 -6 7 -6 9 1 6 20 -4 32 -37 49 -46 25z"/>
<path d="M2646 1045 c-9 -26 -7 -32 5 -12 6 10 9 21 6 23 -2 3 -7 -2 -11 -11z"/>
<path d="M5565 1050 c3 -5 8 -10 11 -10 2 0 4 5 4 10 0 6 -5 10 -11 10 -5 0
-7 -4 -4 -10z"/>
<path d="M6744 1038 c-4 -13 -11 -26 -17 -29 -18 -12 1 -41 23 -34 17 5 21 1
26 -24 4 -17 10 -29 14 -26 4 2 13 -7 21 -21 10 -20 11 -29 1 -44 -17 -28 -15
-51 3 -43 11 4 20 -6 32 -36 9 -22 19 -41 23 -41 4 0 10 -13 13 -28 8 -40 37
-71 71 -74 26 -3 30 1 38 30 6 22 14 32 22 29 8 -3 18 -1 24 5 19 19 50 -2 64
-45 12 -38 16 -42 43 -39 41 5 55 20 33 36 -10 7 -18 23 -18 35 0 24 10 27 29
9 10 -11 15 -9 27 6 18 25 19 136 1 160 -12 16 -14 16 -31 -3 -15 -16 -22 -18
-33 -10 -7 7 -17 9 -20 5 -4 -4 -2 -11 6 -15 7 -5 15 -26 18 -49 5 -37 3 -41
-26 -57 -17 -8 -36 -13 -41 -10 -15 9 -12 89 5 111 20 26 19 45 -2 42 -15 -3
-17 4 -15 40 3 36 1 43 -19 51 -19 6 -27 3 -41 -15 -23 -29 -23 -55 1 -61 10
-2 28 -18 40 -33 l21 -29 -25 -25 c-14 -14 -25 -33 -25 -43 -1 -14 -6 -11 -23
12 -14 19 -22 44 -22 70 0 43 0 44 -72 29 -28 -5 -34 -3 -44 20 -7 14 -16 23
-21 20 -12 -7 -38 15 -38 32 0 8 11 16 25 20 19 5 30 0 47 -19 l22 -25 18 23
c23 30 23 38 -1 23 -27 -16 -60 12 -54 46 3 15 -1 25 -11 29 -10 4 -16 1 -16
-7 0 -15 -21 -26 -51 -26 -14 0 -19 7 -19 25 0 31 -16 33 -26 3z m186 -254 c0
-8 -4 -12 -10 -9 -5 3 -10 10 -10 16 0 5 5 9 10 9 6 0 10 -7 10 -16z"/>
<path d="M7210 1050 c0 -5 5 -10 11 -10 5 0 7 5 4 10 -3 6 -8 10 -11 10 -2 0
-4 -4 -4 -10z"/>
<path d="M4405 1040 c3 -5 8 -10 11 -10 2 0 4 5 4 10 0 6 -5 10 -11 10 -5 0
-7 -4 -4 -10z"/>
<path d="M4460 1040 c0 -5 5 -10 10 -10 6 0 10 5 10 10 0 6 -4 10 -10 10 -5 0
-10 -4 -10 -10z"/>
<path d="M6551 1036 c-15 -18 1 -56 24 -56 18 0 19 17 1 48 -11 20 -14 21 -25
8z"/>
<path d="M28 1016 c-30 -23 -35 -52 -15 -79 11 -17 14 -16 43 5 33 24 42 43
22 43 -7 0 -15 12 -18 27 l-5 26 -27 -22z"/>
<path d="M226 1033 c-11 -11 -6 -50 8 -62 11 -9 14 -6 18 17 4 27 -13 57 -26
45z"/>
<path d="M480 1010 c0 -28 2 -31 15 -20 12 10 13 16 3 29 -7 9 -14 18 -15 20
-2 2 -3 -10 -3 -29z"/>
<path d="M1306 1023 c-3 -10 -2 -46 3 -81 8 -68 32 -105 53 -84 7 7 20 12 30
12 17 0 17 2 2 25 -9 13 -24 27 -35 30 -27 9 -23 33 11 65 17 15 30 30 30 33
0 13 -52 2 -64 -14 -7 -10 -16 -16 -19 -12 -4 3 -2 12 4 19 6 8 6 14 0 18 -5
4 -12 -2 -15 -11z"/>
<path d="M1896 1022 c-9 -11 -21 -34 -26 -51 -7 -26 -6 -33 7 -38 8 -3 19 0
24 8 6 9 4 15 -6 17 -22 5 -18 18 12 42 17 13 23 24 16 31 -6 6 -15 3 -27 -9z"/>
<path d="M3895 1030 c3 -5 11 -10 16 -10 6 0 7 5 4 10 -3 6 -11 10 -16 10 -6
0 -7 -4 -4 -10z"/>
<path d="M4227 1027 c-3 -8 -1 -20 4 -28 5 -9 9 -9 9 -2 0 6 3 18 6 27 3 9 2
16 -4 16 -5 0 -12 -6 -15 -13z"/>
<path d="M6420 1024 c0 -8 5 -12 10 -9 6 4 8 11 5 16 -9 14 -15 11 -15 -7z"/>
<path d="M2295 1020 c3 -5 8 -10 11 -10 2 0 4 5 4 10 0 6 -5 10 -11 10 -5 0
-7 -4 -4 -10z"/>
<path d="M3410 1020 c0 -5 5 -10 10 -10 6 0 10 5 10 10 0 6 -4 10 -10 10 -5 0
-10 -4 -10 -10z"/>
<path d="M520 1010 c0 -5 5 -10 10 -10 6 0 10 5 10 10 0 6 -4 10 -10 10 -5 0
-10 -4 -10 -10z"/>
<path d="M7484 1009 c-3 -6 -1 -16 5 -22 8 -8 11 -5 11 11 0 24 -5 28 -16 11z"/>
<path d="M437 1004 c-4 -4 -7 -17 -7 -28 1 -19 1 -20 11 -3 11 19 8 43 -4 31z"/>
<path d="M1446 968 c2 -24 6 -58 8 -75 5 -29 2 -33 -18 -33 -20 0 -36 -16 -36
-35 0 -2 15 -8 33 -13 17 -6 40 -13 49 -17 14 -5 16 -2 14 21 -2 16 -8 30 -15
32 -15 5 -14 31 5 67 13 25 13 31 1 40 -8 6 -16 19 -18 29 -8 40 -26 27 -23
-16z"/>
<path d="M5630 1000 c19 -13 30 -13 30 0 0 6 -10 10 -22 10 -19 0 -20 -2 -8
-10z"/>
<path d="M7255 1002 c-11 -11 -4 -21 13 -20 9 0 23 -1 31 -3 7 -2 15 1 18 7 4
11 -52 25 -62 16z"/>
<path d="M1600 995 c-10 -53 -10 -60 1 -42 6 10 8 25 6 35 -3 9 -6 13 -7 7z"/>
<path d="M4110 996 c0 -2 7 -6 15 -10 8 -3 15 -1 15 4 0 6 -7 10 -15 10 -8 0
-15 -2 -15 -4z"/>
<path d="M5790 993 c0 -5 5 -15 10 -23 7 -11 12 -12 21 -3 6 6 8 16 5 22 -8
12 -36 15 -36 4z"/>
<path d="M7130 985 c0 -8 5 -15 10 -15 6 0 10 7 10 15 0 8 -4 15 -10 15 -5 0
-10 -7 -10 -15z"/>
<path d="M1091 976 c-8 -9 -15 -28 -17 -43 l-3 -26 21 20 c11 12 18 30 16 43
-3 21 -4 22 -17 6z"/>
<path d="M5341 974 c0 -11 3 -14 6 -6 3 7 2 16 -1 19 -3 4 -6 -2 -5 -13z"/>
<path d="M677 973 c-2 -5 -8 -26 -12 -48 -4 -22 -12 -43 -18 -47 -24 -15 2
-18 29 -3 41 21 71 19 79 -5 8 -24 18 -25 34 -6 14 17 -3 61 -20 51 -5 -4 -12
7 -15 23 -4 19 -14 32 -28 36 -29 8 -44 7 -49 -1z"/>
<path d="M835 971 c-3 -5 -1 -12 5 -16 5 -3 10 1 10 9 0 18 -6 21 -15 7z"/>
<path d="M4050 970 c0 -5 5 -10 10 -10 6 0 10 5 10 10 0 6 -4 10 -10 10 -5 0
-10 -4 -10 -10z"/>
<path d="M5190 959 c0 -5 5 -7 10 -4 6 3 10 8 10 11 0 2 -4 4 -10 4 -5 0 -10
-5 -10 -11z"/>
<path d="M6468 956 c-13 -10 -15 -15 -6 -24 16 -16 35 -15 41 2 9 22 -15 37
-35 22z"/>
<path d="M6711 954 c0 -11 3 -14 6 -6 3 7 2 16 -1 19 -3 4 -6 -2 -5 -13z"/>
<path d="M7253 959 c-29 -11 -29 -30 -2 -47 28 -18 44 -2 33 31 -8 20 -13 23
-31 16z"/>
<path d="M5104 946 c-16 -18 -37 -76 -30 -84 4 -4 15 3 24 16 10 13 33 25 55
29 20 3 34 9 31 14 -2 4 -11 6 -19 2 -9 -3 -15 1 -15 10 0 18 -32 28 -46 13z"/>
<path d="M6600 939 c-15 -28 -8 -73 11 -77 10 -2 20 8 27 25 19 47 18 55 -5
64 -18 6 -25 4 -33 -12z"/>
<path d="M986 935 c4 -8 10 -15 15 -15 5 0 9 7 9 15 0 8 -7 15 -15 15 -9 0
-12 -6 -9 -15z"/>
<path d="M1780 932 c0 -13 9 -22 26 -26 32 -8 42 -1 28 22 -16 26 -54 28 -54
4z"/>
<path d="M2582 942 c-13 -4 -23 -10 -23 -14 1 -5 1 -12 1 -17 0 -9 53 -31 76
-31 17 0 18 42 2 58 -13 13 -21 13 -56 4z"/>
<path d="M5506 936 c3 -9 11 -16 16 -16 13 0 5 23 -10 28 -7 2 -10 -2 -6 -12z"/>
<path d="M7372 938 c-19 -19 -16 -62 4 -54 8 3 24 2 34 -4 15 -8 19 -5 23 23
6 43 -31 65 -61 35z"/>
<path d="M355 913 c-16 -16 -33 -27 -37 -25 -10 3 -10 1 3 -37 9 -26 14 -29
26 -20 7 7 11 19 8 27 -6 15 11 42 26 42 12 0 11 -37 -1 -61 -6 -11 -7 -19 -1
-19 13 0 27 50 23 88 -4 39 -9 40 -47 5z"/>
<path d="M2040 919 c0 -18 2 -19 15 -9 15 12 12 30 -6 30 -5 0 -9 -10 -9 -21z"/>
<path d="M5771 914 c-9 -20 -9 -30 0 -41 15 -17 25 -7 34 35 8 40 -16 45 -34
6z"/>
<path d="M863 923 c-10 -3 -10 -10 -2 -24 12 -23 29 -16 29 12 0 19 -5 22 -27
12z"/>
<path d="M214 895 c5 -19 3 -23 -8 -19 -20 8 -25 -43 -8 -78 7 -15 10 -33 6
-40 -4 -7 -3 -10 1 -5 5 4 18 -2 30 -13 l21 -20 23 21 c19 18 22 28 16 58 -4
20 -11 40 -16 46 -5 5 -9 21 -9 36 0 26 -15 39 -47 39 -11 0 -14 -7 -9 -25z"/>
<path d="M2180 900 c0 -5 5 -10 10 -10 6 0 10 5 10 10 0 6 -4 10 -10 10 -5 0
-10 -4 -10 -10z"/>
<path d="M6515 901 c-3 -5 -1 -12 5 -16 5 -3 10 1 10 9 0 18 -6 21 -15 7z"/>
<path d="M0 823 c0 -77 1 -79 30 -96 50 -30 37 -111 -15 -91 -23 9 -18 -6 11
-32 30 -29 34 -29 34 -5 0 47 42 22 55 -32 6 -24 44 -58 53 -46 2 2 5 -22 6
-54 2 -49 0 -60 -16 -68 -25 -14 -48 -5 -48 19 0 31 -24 72 -42 72 -14 0 -18
-8 -18 -33 0 -37 -15 -58 -36 -50 -22 8 -16 -11 8 -26 19 -12 63 -20 120 -22
25 -1 58 37 58 66 0 15 6 25 15 25 7 0 19 8 24 18 6 9 11 11 11 5 0 -19 17
-16 40 7 31 31 6 71 -61 96 -19 7 -42 51 -34 65 4 5 13 9 21 9 23 0 16 19 -9
25 -13 4 -29 15 -36 27 -7 11 -8 17 -2 14 24 -15 18 14 -9 44 -17 19 -30 42
-30 51 0 10 -4 21 -10 24 -5 3 -10 1 -10 -5 0 -6 -5 -8 -10 -5 -6 3 -7 17 -4
31 7 29 -6 32 -24 4 -15 -25 -42 -26 -42 -1 0 10 -7 24 -15 31 -13 11 -15 3
-15 -67z m138 -82 c17 -47 15 -54 -13 -67 -22 -11 -26 -9 -40 19 -17 33 -20
67 -6 67 5 0 11 10 14 21 5 18 8 20 20 8 7 -8 19 -29 25 -48z m36 -107 c7 -19
-13 -59 -24 -48 -10 10 -1 64 10 64 4 0 11 -7 14 -16z"/>
<path d="M5588 875 c-7 -34 4 -52 35 -57 19 -3 22 -9 22 -46 0 -29 6 -48 17
-56 28 -21 32 -60 9 -104 -25 -49 -27 -72 -6 -72 8 0 15 4 15 9 0 5 13 12 30
16 37 8 37 9 48 78 10 61 1 87 -28 87 -21 0 -33 15 -35 44 -2 18 -25 43 -73
75 -12 8 -23 24 -24 35 -3 16 -5 14 -10 -9z"/>
<path d="M5957 868 c-22 -24 -30 -28 -42 -18 -19 16 -34 5 -28 -20 7 -25 39
-19 65 11 9 10 18 19 21 19 5 0 20 -46 22 -70 1 -8 3 -20 4 -26 2 -16 37 -24
49 -12 7 7 17 5 31 -4 25 -17 14 -31 -31 -42 -34 -8 -35 -23 -5 -57 15 -19 35
-28 63 -32 41 -5 42 -4 58 36 14 37 14 42 0 58 -10 11 -13 25 -9 38 5 17 9 19
25 9 27 -17 34 -5 19 36 l-12 35 -69 -6 c-57 -5 -71 -3 -88 12 -11 10 -20 24
-20 30 0 7 -6 17 -13 23 -10 9 -20 4 -40 -20z"/>
<path d="M1850 880 c-11 -7 -12 -12 -4 -20 8 -8 13 -6 17 9 3 12 4 21 4 21 -1
0 -9 -5 -17 -10z"/>
<path d="M2013 883 c-18 -6 -16 -33 1 -33 15 0 30 27 18 33 -4 3 -13 2 -19 0z"/>
<path d="M5661 887 c2 -1 13 -9 24 -17 19 -14 19 -14 6 3 -7 9 -18 17 -24 17
-6 0 -8 -1 -6 -3z"/>
<path d="M4005 854 c0 -28 28 -54 42 -41 9 9 -17 59 -32 64 -6 2 -11 -9 -10
-23z"/>
<path d="M5220 864 c0 -9 7 -14 17 -12 25 5 28 28 4 28 -12 0 -21 -6 -21 -16z"/>
<path d="M565 837 c-10 -24 -10 -33 -2 -36 7 -2 18 -8 25 -14 11 -8 12 -5 7
15 -4 15 -2 29 4 32 16 10 14 23 -5 30 -10 4 -19 -4 -29 -27z"/>
<path d="M1558 848 c9 -9 15 -9 24 0 9 9 7 12 -12 12 -19 0 -21 -3 -12 -12z"/>
<path d="M2052 847 c-8 -9 -8 -19 1 -37 19 -38 34 -35 33 6 -1 40 -16 53 -34
31z"/>
<path d="M6710 835 c-7 -13 -16 -23 -19 -22 -4 1 -20 -10 -36 -25 -16 -16 -33
-28 -36 -28 -11 0 -18 -66 -12 -110 5 -33 9 -41 23 -37 23 6 43 -44 38 -91 -6
-46 9 -82 35 -82 13 0 17 -5 14 -15 -4 -8 -2 -17 3 -20 11 -7 24 31 15 45 -3
5 1 23 10 40 9 17 13 35 9 41 -3 6 6 24 22 40 23 24 30 26 43 16 12 -10 14 -9
9 4 -4 9 -1 27 6 40 27 52 26 58 -3 73 -24 13 -29 23 -35 71 -3 31 -13 63 -20
71 -22 21 -51 17 -66 -11z m1 -117 c19 -29 40 -58 49 -65 13 -10 12 -12 -5
-18 -11 -4 -31 -11 -44 -16 -28 -12 -27 -13 -35 31 -3 19 -8 47 -12 62 -6 26
0 58 10 58 2 0 19 -24 37 -52z"/>
<path d="M7331 838 c-30 -82 -30 -87 -6 -131 15 -25 22 -50 19 -63 -8 -31 12
-38 36 -14 20 20 23 20 46 5 28 -18 30 -37 7 -76 -14 -24 -15 -34 -6 -60 13
-35 9 -54 -20 -87 -40 -44 -13 -156 41 -168 15 -3 33 -7 40 -10 21 -6 13 26
-13 58 -32 38 -32 63 1 93 24 23 25 26 23 140 -2 64 -6 118 -11 121 -12 7 -10
74 2 74 6 0 10 10 10 21 0 17 -3 19 -14 10 -10 -9 -20 -4 -45 21 -17 17 -31
35 -31 40 0 12 -43 48 -57 48 -7 0 -17 -10 -22 -22z"/>
<path d="M1265 830 c-4 -6 -3 -16 3 -22 6 -6 12 -6 17 2 4 6 3 16 -3 22 -6 6
-12 6 -17 -2z"/>
<path d="M1890 827 c0 -21 12 -28 27 -16 19 16 16 29 -7 29 -11 0 -20 -6 -20
-13z"/>
<path d="M2795 819 c-4 -11 -4 -24 0 -27 9 -9 36 28 29 39 -9 15 -22 10 -29
-12z"/>
<path d="M5482 818 c5 -15 48 -24 48 -10 0 10 -23 22 -42 22 -5 0 -8 -6 -6
-12z"/>
<path d="M5750 820 c-8 -5 -11 -12 -8 -16 10 -9 38 3 38 16 0 12 -10 13 -30 0z"/>
<path d="M4258 788 c-2 -54 1 -70 19 -83 20 -15 92 -8 112 10 17 16 7 65 -13
65 -7 0 -25 9 -39 20 -14 11 -37 20 -51 20 -22 0 -26 -5 -28 -32z"/>
<path d="M2230 790 c0 -23 25 -27 33 -6 7 16 -1 26 -20 26 -7 0 -13 -9 -13
-20z"/>
<path d="M3503 773 c8 -47 28 -62 57 -43 13 9 13 11 0 20 -8 5 -11 10 -5 10 5
0 -2 11 -17 25 -36 33 -42 32 -35 -12z"/>
<path d="M4745 785 c-14 -13 -25 -31 -25 -39 0 -8 -12 -24 -26 -35 -14 -11
-29 -33 -33 -48 -15 -57 -71 -32 -71 31 0 21 -3 27 -10 20 -13 -13 -17 -93 -7
-115 6 -12 0 -19 -25 -30 -44 -18 -57 -37 -48 -69 6 -21 -1 -40 -37 -99 -42
-69 -44 -75 -32 -105 7 -17 18 -38 26 -47 7 -8 13 -20 13 -26 0 -5 12 -15 27
-22 24 -11 29 -10 53 16 15 15 29 38 32 51 6 21 4 22 -45 20 -50 -3 -52 -2
-52 25 -1 36 18 51 55 44 51 -11 61 0 30 34 -16 16 -33 29 -39 29 -6 0 0 21
13 48 14 26 31 61 38 79 10 22 18 29 27 24 7 -5 33 -6 57 -3 24 2 57 -1 74 -8
27 -11 34 -11 47 3 14 14 13 18 -10 43 -37 40 -42 69 -17 110 12 19 29 40 39
47 10 6 20 20 24 30 10 28 -48 23 -78 -8z"/>
<path d="M530 790 c0 -5 5 -10 11 -10 5 0 7 5 4 10 -3 6 -8 10 -11 10 -2 0 -4
-4 -4 -10z"/>
<path d="M3378 793 c6 -2 12 -12 12 -20 0 -13 3 -13 16 -2 14 12 14 14 -3 20
-10 4 -22 8 -28 8 -5 -1 -4 -3 3 -6z"/>
<path d="M4027 777 c-3 -9 -15 -17 -26 -17 -30 0 -35 -29 -7 -42 14 -6 26 -19
29 -29 4 -16 8 -17 31 -6 29 13 34 27 11 27 -18 0 -20 16 -3 26 8 5 7 10 -4
18 -8 6 -17 18 -20 25 -3 12 -6 12 -11 -2z"/>
<path d="M6280 771 c-10 -19 -9 -26 4 -39 15 -15 16 -15 16 0 0 9 5 18 10 20
7 2 5 10 -3 22 -14 19 -15 19 -27 -3z"/>
<path d="M5120 770 c0 -6 9 -19 20 -30 32 -32 55 -23 28 12 -16 19 -48 31 -48
18z"/>
<path d="M387 738 c21 -36 53 -50 53 -24 0 21 -35 56 -56 56 -14 0 -13 -4 3
-32z"/>
<path d="M2756 755 c-15 -8 -35 -15 -42 -15 -8 0 -17 -6 -20 -13 -7 -19 45
-95 69 -103 29 -9 124 5 137 21 7 8 27 17 46 21 37 7 43 23 18 48 -17 17 -24
19 -67 16 -33 -2 -97 18 -97 31 0 13 -10 11 -44 -6z"/>
<path d="M3611 757 c-23 -23 -11 -37 28 -37 52 0 58 13 16 32 -24 10 -37 12
-44 5z"/>
<path d="M1532 715 l-33 -35 28 -24 c27 -23 27 -25 10 -44 -10 -11 -29 -23
-43 -26 -23 -6 -35 -36 -15 -36 6 0 22 -16 37 -36 24 -31 25 -37 12 -50 -9 -9
-13 -26 -10 -45 4 -24 9 -30 23 -26 25 7 32 -7 30 -59 -1 -34 3 -46 18 -54 27
-14 57 -13 73 3 17 18 57 27 64 16 8 -13 21 -11 38 7 19 18 21 65 4 82 -8 8
-8 15 -1 24 6 7 13 23 16 36 4 17 1 22 -14 22 -10 0 -19 -4 -19 -10 0 -19 -59
-11 -72 10 -16 25 -38 26 -38 1 0 -36 12 -51 40 -51 16 0 31 -4 34 -9 9 -14
-5 -71 -17 -71 -14 0 -36 32 -37 52 0 10 -11 20 -25 24 -14 3 -25 11 -25 17 0
7 -4 7 -12 -1 -7 -7 -19 -12 -26 -12 -12 0 -14 14 -9 78 3 42 13 96 21 120 14
40 14 46 -1 69 -13 20 -14 28 -5 31 16 5 16 32 -1 32 -7 0 -27 -16 -45 -35z"/>
<path d="M3745 739 c-4 -5 -4 -21 -1 -33 4 -17 -3 -34 -24 -61 -30 -37 -41
-97 -21 -109 5 -3 26 8 47 25 39 31 52 69 33 95 -5 6 0 16 11 24 27 20 25 45
-5 58 -32 15 -32 15 -40 1z"/>
<path d="M576 712 c-9 -37 -6 -44 11 -34 9 5 10 17 4 37 l-8 30 -7 -33z"/>
<path d="M2113 720 c3 -11 1 -23 -4 -26 -5 -3 -9 -10 -9 -16 0 -6 9 -3 19 6
19 17 18 56 -1 56 -6 0 -8 -9 -5 -20z"/>
<path d="M6380 709 c0 -35 20 -66 33 -52 13 12 7 41 -13 64 l-19 24 -1 -36z"/>
<path d="M3077 719 c-26 -15 -21 -37 13 -54 17 -9 30 -20 30 -25 0 -6 7 -10
15 -10 21 0 19 24 -5 45 -11 10 -20 24 -20 31 0 19 -13 24 -33 13z"/>
<path d="M5570 715 c0 -9 -9 -15 -25 -15 -14 0 -25 -5 -25 -11 0 -5 -6 -7 -12
-3 -7 4 -5 -1 4 -12 12 -14 14 -24 7 -37 -8 -13 -6 -19 6 -23 9 -4 17 -5 18
-3 11 19 47 102 47 109 0 6 -4 10 -10 10 -5 0 -10 -7 -10 -15z"/>
<path d="M476 704 c-4 -9 1 -14 14 -14 23 0 27 15 6 23 -8 3 -17 -1 -20 -9z"/>
<path d="M3197 713 c-12 -12 -7 -28 12 -40 16 -10 18 -8 19 18 1 27 -15 39
-31 22z"/>
<path d="M4441 706 c-8 -9 -21 -14 -29 -11 -10 3 -12 0 -8 -10 3 -8 1 -15 -4
-15 -6 0 -10 -7 -10 -15 0 -8 3 -15 8 -15 4 0 8 -14 9 -30 1 -17 -2 -30 -7
-30 -15 0 -21 18 -8 23 7 2 2 5 -12 5 -39 1 -188 20 -209 27 -11 3 -23 14 -26
24 -3 10 -14 26 -25 36 -17 15 -20 15 -25 3 -3 -8 9 -31 30 -53 19 -22 35 -42
35 -46 0 -4 17 -10 38 -14 20 -4 43 -12 50 -18 8 -6 35 -12 60 -13 26 0 68 -7
94 -13 67 -18 88 -5 81 51 -2 24 -9 52 -13 63 -5 11 -10 31 -12 44 -3 22 -4
23 -17 7z"/>
<path d="M5216 687 c-9 -44 -8 -45 24 -62 36 -19 40 -19 40 0 0 8 -5 15 -11
15 -11 0 -9 28 5 61 5 12 0 16 -23 16 -24 0 -30 -5 -35 -30z"/>
<path d="M5434 682 c-44 -53 -47 -61 -34 -77 7 -9 10 -28 6 -45 -3 -17 -2 -30
2 -30 16 1 39 26 34 38 -2 7 3 23 12 37 9 13 17 38 18 55 1 17 6 34 10 36 9 6
1 24 -10 24 -4 0 -21 -17 -38 -38z"/>
<path d="M288 680 c-14 -10 -28 -16 -32 -12 -4 3 -4 -1 0 -11 7 -18 7 -18 42
-22 13 -1 22 3 22 11 0 8 9 14 20 14 15 0 20 -7 20 -29 0 -16 -6 -31 -15 -35
-16 -6 -21 -46 -7 -46 5 0 15 12 23 28 8 15 18 30 23 33 16 13 -4 64 -31 77
-35 16 -36 16 -65 -8z"/>
<path d="M3913 663 c-13 -5 -18 -65 -6 -76 12 -13 33 15 33 44 0 30 -8 39 -27
32z"/>
<path d="M580 640 c-31 -24 -58 -25 -81 -4 -19 17 -69 13 -69 -6 0 -5 20 -23
44 -39 37 -26 44 -36 49 -73 3 -23 12 -47 20 -53 23 -17 40 -91 27 -115 -9
-17 -7 -26 10 -48 11 -15 29 -38 39 -51 18 -25 18 -25 29 -4 9 16 6 33 -10 79
-11 32 -27 67 -35 76 -18 20 -11 46 14 55 10 4 21 11 24 16 10 14 -2 47 -16
47 -20 0 -33 42 -23 78 14 52 8 65 -22 42z"/>
<path d="M2986 652 c-10 -17 -16 -71 -8 -76 5 -3 25 -3 45 1 29 4 37 10 37 27
0 11 -7 29 -14 39 -14 18 -51 23 -60 9z"/>
<path d="M669 622 c5 -10 17 -25 26 -32 14 -12 18 -11 26 1 20 31 11 49 -26
49 -32 0 -35 -2 -26 -18z"/>
<path d="M813 604 c-18 -8 -33 -21 -33 -29 0 -8 -9 -15 -20 -15 -11 0 -20 -7
-20 -15 0 -8 -4 -15 -8 -15 -4 0 -13 -13 -19 -29 -9 -26 -8 -32 9 -48 18 -16
22 -16 46 -2 26 14 28 14 55 -23 33 -46 34 -78 5 -104 -27 -23 -49 -24 -72 -5
-12 10 -19 11 -30 2 -12 -10 -9 -17 22 -44 71 -61 100 -69 132 -37 26 26 72
26 95 0 10 -11 29 -20 42 -20 24 0 32 -27 14 -46 -6 -5 -13 -28 -17 -52 l-7
-42 40 3 c63 6 75 17 63 57 -18 64 -14 77 35 99 41 18 45 23 45 55 0 41 -18
56 -36 31 -11 -15 -18 -16 -38 -7 -13 6 -27 20 -31 31 -3 12 -10 21 -14 21 -9
0 -91 77 -91 86 0 4 9 -1 20 -11 20 -18 21 -18 26 2 3 12 14 23 25 26 26 7 24
37 -6 65 -25 25 -40 22 -63 -9 -16 -23 -39 -14 -58 24 -12 23 -18 27 -25 16
-7 -11 -11 -10 -23 6 -9 11 -16 26 -16 33 0 15 -6 14 -47 -4z m83 -85 c25 -7
49 -20 55 -30 11 -21 18 -154 8 -163 -13 -13 -72 28 -84 58 -7 17 -23 40 -35
51 -40 37 -45 56 -19 76 29 22 21 21 75 8z"/>
<path d="M2072 603 c-10 -4 -9 -8 5 -19 22 -16 33 -18 33 -4 0 6 -8 11 -17 11
-10 1 -4 5 12 9 27 7 28 8 5 8 -14 0 -31 -2 -38 -5z"/>
<path d="M5099 602 c-20 -2 -27 -11 -35 -41 -8 -28 -7 -40 3 -49 18 -17 5 -42
-22 -42 -12 0 -30 -9 -40 -20 -25 -28 -9 -59 38 -75 38 -13 47 -9 60 28 10 27
27 20 27 -11 0 -20 -8 -32 -31 -46 -19 -11 -28 -23 -25 -33 3 -8 6 -19 6 -24
0 -5 11 -9 25 -9 14 0 25 4 25 9 0 17 52 -2 67 -25 12 -19 13 -27 3 -39 -10
-12 -8 -18 11 -35 29 -24 33 -24 49 -5 10 13 9 15 -9 15 -18 0 -22 5 -19 27 2
23 11 30 50 42 54 16 61 29 63 111 1 60 17 100 41 100 8 0 12 5 9 10 -4 6 -13
7 -23 1 -9 -4 -22 -7 -27 -5 -6 2 -19 -12 -29 -31 -11 -19 -25 -35 -32 -35 -7
0 -16 -9 -19 -20 -8 -26 -50 -26 -72 -1 -9 11 -20 18 -25 15 -4 -3 -11 2 -15
12 -4 10 0 20 10 26 10 5 17 15 17 23 0 11 8 13 30 9 24 -5 30 -3 30 10 0 9
-8 19 -17 22 -55 18 -69 28 -83 57 -12 26 -20 32 -41 29z"/>
<path d="M5822 598 c-18 -18 -15 -38 6 -31 20 8 33 24 26 35 -7 11 -18 10 -32
-4z"/>
<path d="M6184 590 c-28 -17 -28 -19 -9 -44 11 -14 21 -17 48 -12 40 8 90 43
84 60 -5 16 -94 14 -123 -4z"/>
<path d="M2673 581 c-9 -15 -8 -26 5 -55 16 -36 42 -49 42 -21 0 12 7 14 28 9
49 -11 53 -14 50 -36 -2 -18 -9 -23 -33 -23 -19 0 -29 -5 -27 -12 1 -7 -2 -13
-7 -13 -5 0 -12 6 -14 13 -3 7 -6 5 -6 -5 -1 -9 4 -28 10 -42 10 -21 8 -27
-22 -54 -19 -17 -31 -34 -27 -37 11 -11 58 4 58 17 0 16 49 58 67 58 8 0 23
-5 34 -11 12 -6 27 -8 35 -5 11 4 9 15 -10 55 -12 28 -29 57 -36 65 -17 21 -6
46 20 46 20 0 21 1 3 25 -20 28 -45 32 -63 11 -10 -13 -16 -13 -46 1 -19 9
-34 20 -34 25 0 14 -15 8 -27 -11z"/>
<path d="M4092 588 c-14 -14 -16 -38 -4 -38 12 0 32 23 32 37 0 16 -12 17 -28
1z"/>
<path d="M4900 586 c0 -33 23 -77 37 -72 8 3 21 6 29 6 17 0 19 51 2 68 -17
17 -68 15 -68 -2z"/>
<path d="M7090 585 c-15 -18 -13 -20 18 -29 23 -8 27 0 16 28 -8 20 -18 20
-34 1z"/>
<path d="M1907 584 c-8 -8 3 -34 14 -34 11 0 12 27 0 34 -4 3 -11 3 -14 0z"/>
<path d="M2493 582 c-10 -6 -9 -16 4 -45 16 -34 42 -54 30 -23 -3 8 3 26 13
39 20 25 20 25 -3 31 -28 7 -30 7 -44 -2z"/>
<path d="M3820 580 c0 -6 7 -10 15 -10 8 0 15 2 15 4 0 2 -7 6 -15 10 -8 3
-15 1 -15 -4z"/>
<path d="M7180 570 c0 -5 5 -10 10 -10 6 0 10 5 10 10 0 6 -4 10 -10 10 -5 0
-10 -4 -10 -10z"/>
<path d="M1395 559 c-12 -19 5 -23 22 -6 16 16 16 17 1 17 -9 0 -20 -5 -23
-11z"/>
<path d="M3345 560 c-3 -5 -1 -10 4 -10 6 0 11 5 11 10 0 6 -2 10 -4 10 -3 0
-8 -4 -11 -10z"/>
<path d="M5748 553 c-9 -2 -19 -15 -22 -29 -4 -13 -10 -24 -14 -24 -5 0 -22
-11 -39 -26 -32 -26 -34 -52 -8 -74 11 -9 21 -6 43 10 15 11 39 22 53 24 14 1
30 6 37 10 12 7 18 -2 24 -39 2 -11 12 -21 23 -22 28 -4 59 41 51 73 -8 32 -8
39 4 40 6 1 14 2 18 3 8 1 32 44 32 57 0 2 -13 -2 -30 -11 -16 -8 -38 -15 -49
-15 -14 0 -18 -5 -14 -20 4 -15 -2 -22 -23 -30 -44 -17 -59 -9 -60 33 -1 42
-3 45 -26 40z"/>
<path d="M6394 535 c-8 -34 1 -55 26 -55 12 0 24 -9 29 -23 5 -12 24 -38 42
-57 29 -32 32 -33 26 -11 -3 13 0 36 9 52 22 44 19 62 -11 55 -20 -5 -27 -1
-39 23 -25 47 -72 56 -82 16z"/>
<path d="M3070 530 c-13 -8 -13 -14 4 -44 17 -31 23 -35 50 -31 43 5 58 -6 54
-40 -4 -38 -20 -41 -54 -9 -28 25 -29 26 -32 5 -2 -13 -11 -21 -22 -21 -11 0
-24 -8 -29 -18 -5 -10 -28 -27 -50 -37 -44 -19 -52 -42 -25 -70 15 -14 18 -14
40 0 15 10 43 15 78 14 58 -2 76 4 76 27 0 10 8 14 25 11 33 -4 37 -10 26 -40
-9 -22 -7 -28 8 -37 10 -5 22 -21 25 -35 4 -14 14 -25 22 -25 13 0 14 -3 5
-14 -11 -13 -5 -46 9 -46 4 0 14 8 24 19 22 25 12 101 -15 108 -22 6 -33 36
-30 86 1 31 -3 42 -28 63 -25 20 -29 31 -25 53 9 45 -21 83 -62 79 -18 -1 -36
1 -40 5 -10 9 -16 9 -34 -3z"/>
<path d="M5500 521 c0 -13 7 -18 25 -18 45 0 39 27 -7 34 -12 2 -18 -4 -18
-16z"/>
<path d="M7120 525 c0 -8 2 -15 4 -15 2 0 6 7 10 15 3 8 1 15 -4 15 -6 0 -10
-7 -10 -15z"/>
<path d="M2850 510 c0 -5 5 -10 10 -10 6 0 10 5 10 10 0 6 -4 10 -10 10 -5 0
-10 -4 -10 -10z"/>
<path d="M3761 469 c-48 -47 -60 -76 -52 -122 1 -5 -7 -11 -18 -14 -11 -3 -22
-11 -25 -19 -7 -19 -26 -18 -26 1 0 8 -2 15 -5 15 -4 0 -75 -47 -83 -55 -5 -4
29 -58 42 -67 6 -4 17 -3 27 2 9 5 19 6 23 3 3 -4 19 6 35 21 27 26 32 27 65
16 45 -14 54 -9 54 34 0 19 3 39 6 45 4 5 2 12 -3 16 -6 3 -7 13 -4 23 6 15 5
15 -11 3 -16 -14 -17 -12 -14 15 2 22 9 30 27 32 23 4 24 2 18 -38 l-5 -41 76
3 c59 3 77 7 77 18 0 9 -14 17 -36 20 -19 4 -47 15 -62 26 -22 16 -26 27 -27
67 0 61 -13 61 -79 -4z"/>
<path d="M6056 505 c4 -8 8 -15 10 -15 2 0 4 7 4 15 0 8 -4 15 -10 15 -5 0 -7
-7 -4 -15z"/>
<path d="M2138 483 c-21 -3 -30 -12 -34 -31 -3 -15 -7 -32 -9 -38 -5 -17 23
-54 41 -54 8 0 17 8 21 18 3 9 12 24 20 33 13 15 8 81 -6 78 -3 -1 -18 -4 -33
-6z"/>
<path d="M4733 472 c-2 -11 -24 -31 -48 -46 -41 -27 -66 -66 -41 -66 6 0 17
-13 23 -30 13 -36 35 -38 65 -8 16 16 22 34 22 74 1 29 4 55 8 59 9 9 -1 35
-14 35 -5 0 -12 -8 -15 -18z"/>
<path d="M1398 455 c-6 -14 -17 -25 -24 -25 -7 0 -24 -5 -37 -11 -22 -10 -24
-16 -21 -54 2 -24 0 -46 -6 -50 -5 -3 -10 -29 -10 -56 l0 -50 38 7 c20 4 65 7
100 7 44 1 62 4 62 14 0 7 -4 13 -10 13 -5 0 -10 11 -10 24 0 33 -25 53 -45
36 -12 -10 -16 -10 -18 1 -3 8 -9 30 -16 50 -14 44 -6 75 15 58 8 -6 14 -19
14 -28 1 -14 2 -13 11 2 15 25 2 87 -17 87 -8 0 -20 -11 -26 -25z"/>
<path d="M1862 435 c0 -49 17 -75 49 -75 17 0 22 10 31 60 4 22 -33 60 -58 60
-20 0 -22 -5 -22 -45z"/>
<path d="M6048 460 c-7 -11 -18 -20 -24 -20 -16 0 -22 -20 -15 -49 9 -36 22
-35 65 3 26 24 37 42 34 57 -4 30 -44 36 -60 9z"/>
<path d="M3588 464 c-2 -5 -1 -27 2 -49 l6 -40 5 38 c5 35 -4 69 -13 51z"/>
<path d="M4280 460 c0 -5 5 -10 10 -10 6 0 10 5 10 10 0 6 -4 10 -10 10 -5 0
-10 -4 -10 -10z"/>
<path d="M1990 449 c0 -5 5 -7 10 -4 6 3 10 8 10 11 0 2 -4 4 -10 4 -5 0 -10
-5 -10 -11z"/>
<path d="M295 438 c-10 -31 -8 -45 9 -70 23 -34 42 -36 50 -4 8 31 -7 71 -29
80 -23 8 -25 8 -30 -6z"/>
<path d="M6126 403 c4 -16 8 -30 10 -31 5 -7 44 10 44 19 0 6 -9 7 -20 4 -16
-5 -20 -2 -20 14 0 12 -5 21 -10 21 -6 0 -8 -11 -4 -27z"/>
<path d="M2237 413 c-4 -3 -7 -17 -7 -30 0 -12 -5 -23 -11 -23 -6 0 -20 -11
-31 -25 -11 -14 -23 -23 -28 -20 -20 12 -20 -18 0 -51 15 -23 27 -33 38 -29
25 9 61 -22 68 -60 3 -20 13 -37 23 -40 10 -3 24 -17 31 -30 14 -27 29 -28 40
-4 4 8 12 24 18 36 7 12 9 29 6 38 -4 9 -1 27 6 41 16 28 13 32 -37 49 l-38
13 1 55 c2 49 -1 56 -26 71 -30 17 -43 20 -53 9z"/>
<path d="M5440 403 c0 -39 46 -57 70 -28 17 20 5 33 -38 41 -27 6 -32 4 -32
-13z"/>
<path d="M7320 401 c0 -14 18 -23 31 -15 8 4 7 9 -2 15 -18 11 -29 11 -29 0z"/>
<path d="M2464 389 c-2 -5 -11 -6 -18 -3 -17 6 -27 -28 -14 -50 5 -9 19 -16
32 -16 23 0 66 -41 66 -63 0 -8 3 -17 6 -20 9 -9 44 11 44 26 0 16 36 47 55
47 24 0 18 12 -27 52 -38 34 -48 38 -91 36 -26 -1 -50 -5 -53 -9z"/>
<path d="M7155 360 c-3 -10 -1 -28 4 -39 6 -11 11 -38 11 -61 0 -37 3 -42 30
-51 17 -6 30 -15 30 -20 0 -5 12 -9 26 -9 20 0 25 4 20 16 -3 9 -9 47 -12 85
-6 57 -11 71 -30 84 -33 21 -71 19 -79 -5z"/>
<path d="M417 350 c-8 -11 -12 -32 -9 -45 l4 -25 19 24 c20 25 26 66 10 66 -6
0 -16 -9 -24 -20z"/>
<path d="M4251 333 c-19 -23 -29 -44 -25 -55 3 -9 -2 -31 -11 -48 -14 -26 -14
-30 0 -30 8 0 23 -17 34 -38 l20 -39 -26 -27 c-14 -15 -22 -30 -19 -34 9 -8
76 65 76 83 0 8 -5 17 -10 20 -7 4 -7 12 -1 23 7 12 5 22 -6 34 -14 16 -13 18
10 29 20 9 25 18 23 43 -3 29 -21 76 -31 76 -2 0 -17 -17 -34 -37z"/>
<path d="M4850 360 c0 -5 -6 -10 -14 -10 -8 0 -18 -5 -22 -12 -9 -14 23 -38
50 -38 11 0 27 -7 37 -16 10 -9 23 -13 28 -9 17 10 13 60 -7 78 -20 18 -72 23
-72 7z"/>
<path d="M7027 363 c-4 -3 -7 -17 -7 -30 0 -13 -11 -35 -25 -49 -26 -26 -31
-49 -16 -73 8 -12 14 -12 40 -1 25 10 30 16 25 36 -5 18 -2 24 11 24 9 0 13 4
10 10 -3 6 1 7 9 4 13 -5 16 2 16 40 0 44 -1 46 -28 46 -16 0 -32 -3 -35 -7z"/>
<path d="M378 353 c7 -3 16 -2 19 1 4 3 -2 6 -13 5 -11 0 -14 -3 -6 -6z"/>
<path d="M3456 343 c-3 -6 4 -13 15 -16 11 -3 19 -14 19 -26 0 -30 18 -26 26
7 4 15 11 33 16 39 8 10 1 12 -31 10 -22 -1 -43 -7 -45 -14z"/>
<path d="M5660 316 c0 -29 6 -53 18 -66 9 -11 22 -37 28 -58 14 -47 71 -80
105 -60 18 11 23 10 40 -11 13 -17 18 -32 14 -45 -4 -12 -8 -32 -9 -46 -1 -21
4 -25 29 -26 17 -1 33 3 36 8 4 6 28 13 54 16 42 4 49 8 62 39 11 27 11 38 2
49 -7 8 -8 24 -4 41 5 16 7 35 6 45 -1 9 3 19 9 23 15 9 12 25 -4 25 -8 0 -17
-11 -20 -25 -4 -14 -12 -25 -20 -25 -15 0 -40 -26 -42 -44 0 -6 -2 -17 -2 -24
-1 -7 -6 -11 -11 -8 -10 7 -24 -30 -21 -61 0 -11 -3 -24 -9 -27 -12 -8 -43 58
-45 94 -1 19 -9 28 -36 36 -23 8 -36 19 -38 32 -2 12 -12 24 -22 27 -14 4 -20
21 -27 68 l-8 62 -42 3 -43 3 0 -45z"/>
<path d="M2880 324 c0 -8 5 -12 10 -9 6 4 8 11 5 16 -9 14 -15 11 -15 -7z"/>
<path d="M6343 311 c8 -39 -9 -57 -70 -75 -50 -14 -53 -14 -78 6 -28 22 -34
19 -53 -24 -10 -23 -9 -28 3 -28 8 0 15 5 15 10 0 6 4 10 10 10 5 0 7 -7 3
-16 -4 -10 1 -17 16 -21 11 -3 21 -12 21 -19 0 -8 11 -24 25 -36 14 -12 25
-26 25 -31 0 -5 8 -16 18 -24 12 -10 14 -16 5 -19 -7 -3 -23 -14 -35 -24 l-23
-19 37 -1 c33 0 38 3 37 23 -1 49 16 92 38 95 20 3 22 -2 25 -55 l3 -58 76 -3
c85 -3 92 1 103 60 6 35 4 39 -31 62 -21 13 -55 27 -75 30 -36 7 -38 9 -38 46
0 41 7 49 28 28 9 -9 12 -7 12 9 0 11 -7 26 -15 33 -8 7 -15 23 -15 35 0 24
-17 35 -52 35 -17 0 -20 -5 -15 -29z"/>
<path d="M3542 319 c2 -6 8 -10 13 -10 5 0 11 4 13 10 2 6 -4 11 -13 11 -9 0
-15 -5 -13 -11z"/>
<path d="M4047 324 c-8 -9 15 -44 30 -44 19 0 26 20 13 35 -13 16 -32 19 -43
9z"/>
<path d="M5797 293 c-10 -9 -8 -53 2 -53 5 0 14 7 21 15 20 24 -2 59 -23 38z"/>
<path d="M3428 259 c-16 -11 -28 -28 -28 -38 0 -9 -5 -22 -11 -28 -13 -13 6
-73 23 -73 17 0 58 32 58 46 0 7 14 23 30 36 25 18 28 24 15 31 -8 4 -15 15
-15 22 0 8 -4 15 -9 15 -5 0 -15 2 -23 5 -7 2 -25 -5 -40 -16z"/>
<path d="M1933 263 c-17 -6 -17 -53 0 -53 16 0 40 38 32 50 -7 11 -13 11 -32
3z"/>
<path d="M3898 244 c-16 -8 -28 -17 -28 -20 0 -19 23 -41 42 -40 18 1 23 8 26
39 4 41 0 43 -40 21z"/>
<path d="M0 211 c0 -35 2 -39 25 -37 32 1 32 22 0 52 l-25 23 0 -38z"/>
<path d="M5468 205 c-10 -16 -18 -36 -18 -43 0 -7 -4 -11 -9 -8 -5 3 -11 -5
-13 -19 -3 -14 -2 -25 1 -26 41 -3 112 -1 135 5 26 6 28 10 22 44 -3 20 -6 46
-6 57 0 18 -6 20 -47 20 -41 0 -49 -4 -65 -30z"/>
<path d="M2659 228 c0 -2 -3 -15 -5 -30 -4 -24 -1 -28 20 -28 16 0 23 -5 22
-17 -1 -15 6 -17 40 -15 24 2 45 -1 49 -8 11 -17 45 18 45 47 0 16 -4 22 -12
17 -6 -4 -35 -9 -64 -10 -46 -3 -52 -1 -62 21 -9 20 -29 34 -33 23z"/>
<path d="M480 200 c-8 -5 -11 -12 -7 -16 4 -4 15 0 24 9 18 18 8 23 -17 7z"/>
<path d="M4700 196 c0 -22 17 -28 24 -10 9 22 8 24 -9 24 -8 0 -15 -6 -15 -14z"/>
<path d="M6910 190 c0 -5 5 -10 10 -10 6 0 10 5 10 10 0 6 -4 10 -10 10 -5 0
-10 -4 -10 -10z"/>
<path d="M2959 184 c-1 -5 -1 -13 0 -18 1 -5 -6 -17 -14 -27 -12 -12 -14 -25
-9 -41 4 -13 7 -35 6 -50 -2 -23 1 -27 24 -25 41 3 50 26 34 91 -12 50 -38 94
-41 70z"/>
<path d="M5300 180 c0 -5 7 -10 16 -10 8 0 12 5 9 10 -3 6 -10 10 -16 10 -5 0
-9 -4 -9 -10z"/>
<path d="M825 170 c-7 -12 2 -30 16 -30 12 0 12 27 0 35 -5 3 -12 1 -16 -5z"/>
<path d="M4085 140 c-16 -31 -14 -60 4 -60 8 0 22 80 15 88 -1 2 -10 -10 -19
-28z"/>
<path d="M7276 155 c-3 -8 -1 -15 4 -15 6 0 10 7 10 15 0 8 -2 15 -4 15 -2 0
-6 -7 -10 -15z"/>
<path d="M4720 153 c0 -7 -25 -19 -55 -27 -50 -15 -86 -45 -85 -71 1 -5 17
-20 36 -32 35 -23 79 -29 100 -15 14 9 25 102 12 102 -6 0 -5 7 2 15 10 12 10
19 2 27 -9 9 -12 9 -12 1z"/>
<path d="M270 140 c0 -5 -6 -10 -12 -10 -7 0 -14 -10 -15 -22 0 -13 -4 -42 -8
-65 -7 -42 -7 -43 19 -41 26 2 43 28 31 48 -3 5 -3 16 2 23 4 6 13 27 19 45
11 30 10 32 -12 32 -13 0 -24 -4 -24 -10z"/>
<path d="M6880 143 c0 -5 -18 -7 -39 -5 -32 3 -45 -1 -65 -22 -15 -14 -26 -34
-26 -46 0 -27 29 -39 42 -17 19 36 76 1 62 -38 -5 -12 2 -15 30 -15 30 0 37 4
42 25 4 15 -1 44 -11 70 -15 41 -35 68 -35 48z"/>
<path d="M975 120 c-3 -5 -1 -10 4 -10 6 0 11 5 11 10 0 6 -2 10 -4 10 -3 0
-8 -4 -11 -10z"/>
<path d="M7077 123 c-21 -3 -29 -11 -34 -34 -3 -16 -10 -26 -15 -23 -16 10 13
-40 31 -53 9 -7 48 -12 94 -13 l77 0 0 40 c0 36 -2 40 -25 40 -15 0 -36 11
-49 25 -13 14 -30 24 -37 24 -8 -1 -27 -4 -42 -6z"/>
<path d="M1224 106 c-8 -22 3 -33 18 -18 9 9 9 15 0 24 -9 9 -13 7 -18 -6z"/>
<path d="M5601 104 c0 -11 3 -14 6 -6 3 7 2 16 -1 19 -3 4 -6 -2 -5 -13z"/>
<path d="M7267 86 c-10 -15 -16 -30 -13 -34 11 -10 38 25 34 44 -3 15 -6 14
-21 -10z"/>
<path d="M1428 93 c-22 -5 -24 -46 -3 -63 19 -16 21 -14 29 27 8 33 1 42 -26
36z"/>
<path d="M5640 80 c-17 -31 -3 -80 22 -80 18 0 20 5 15 41 -7 53 -21 68 -37
39z"/>
<path d="M1565 50 c-4 -20 -13 -30 -25 -30 -10 0 -22 -4 -25 -10 -4 -6 11 -10
38 -10 37 0 46 4 50 21 3 12 10 18 16 14 7 -4 11 4 11 19 0 22 -5 26 -29 26
-25 0 -31 -5 -36 -30z"/>
<path d="M3720 60 c0 -23 52 -60 85 -60 19 0 35 5 35 10 0 10 -12 13 -40 11
-9 -1 -26 10 -38 24 -22 25 -42 33 -42 15z"/>
<path d="M5246 48 c-9 -34 -7 -48 5 -48 6 0 9 9 6 20 -3 10 0 21 7 23 8 3 8 8
0 16 -9 9 -13 7 -18 -11z"/>
<path d="M655 37 c-11 -7 -33 -12 -49 -12 -16 0 -31 -6 -33 -12 -4 -10 12 -13
56 -13 61 0 72 8 53 37 -5 9 -12 9 -27 0z"/>
<path d="M5538 25 c6 -32 12 -32 12 0 0 14 -4 25 -9 25 -4 0 -6 -11 -3 -25z"/>
<path d="M7367 35 c-9 -8 -23 -15 -31 -15 -9 0 -16 -4 -16 -10 0 -6 37 -10 90
-10 85 0 90 1 90 21 0 19 -2 20 -16 8 -21 -17 -75 -13 -90 7 -10 13 -14 13
-27 -1z"/>
</g>
</svg>
